<svg xmlns="http://www.w3.org/2000/svg" width="36" height="129" fill="none" viewBox="0 0 36 129"><g fill="#F6D4AD" filter="url(#a)"><path d="M23.565 83.966c-.83 1.021-1.142 1.292-1.843 1.582 0 0-8.698 3.22-9.835 3.658-1.138.437-2.006.49-2.006 3.021v3.838c.024.527-.003.855 1.41 2.424.16.178 4.55 5.013 4.839 5.332.373.457.559.885.559 1.283v1.443c5.518 6.934 5.581 7.003 5.999 7.571v-7.216c0-.697-.28-1.463-.839-2.298l-6.885-7.106c-.554-.534-.965-.997-.965-1.406 0-.576.254-.74.965-.708l2.32.08c.535.031.952.466.952.993v2.368c0 .389.255.733.632.853l2.035.648c.591.189 1.199-.243 1.199-.852v-2.66c0-.574.493-1.028 1.077-.994l4.34-.208c1.762-.162 2.642-1.198 2.642-3.107v-6.623c0-.753-.485-1.389-1.213-1.63l-2.824-.937c-.859-.286-1.73-.37-2.56.651h.001Z"/><path d="m16.422 108.016-1.568-1.892c-1.65-2.135-2.858-3.18-3.05-5.499l-1.415-1.558c-1.823-1.766-1.65-2.903-1.65-3.286V91.97c0-1.758.819-3.023 2.367-3.654l.013-.005.012-.005 1.959-.727c.216-.087.453-.168.71-.265l5.584-2.15c2.552-1.074 3.493-3.132 3.493-5.177 0-2.421-1.652-4.974-3.183-5.693.67 1.361.562 5.658-3.746 7.49-3.555 1.51-2.386 1.015-4.46 1.801-3.678 1.393-4.329 1.575-4.329 3.788 0 10.526.004 1.59.004 19.199 0 2.633.592 2.835 5.013 7.512 1.052 1.054 1.46 1.939 1.46 2.657 0 1.058-.835 1.549-1.109 1.689l-4.21 2.148c-.82.467-1.158 1.144-1.158 1.859v3.749c0 .505.356.943.844 1.105l1.942.646c.779.258 1.586-.309 1.586-1.115l.034-2.489c.031-.677.155-.773.745-.985l9.497-2.948c.606-.184.864-.517.864-1.435v-2.111c0-1.237-.5-1.866-1.346-2.856-.55-.643-3.225-3.953-4.903-5.978v-.004ZM8.772 59.07a5.446 5.446 0 0 1 3.007 2.34V36.173c0-.516-.22-.803-.59-.933L6.257 33.6c-.605-.212-1.241.228-1.241.858v3.856c0 .692.226 1.366.643 1.922l.836 1.114a3.2 3.2 0 0 1 .644 1.923V58.55l1.631.518.001.001ZM23.51 34.066v13.826c0 .336-.163.492-.49.47-.217-.015-.41-.116-.583-.303-.171-.186-.256-.387-.256-.6v-7.717a.72.72 0 0 0-.499-.682l-2.52-.836c-.476-.158-.97.188-.97.68V40.9c0 .335-.163.49-.49.469-.217-.015-.41-.117-.582-.303-.17-.186-.256-.387-.256-.6v-2.478a.745.745 0 0 0-.506-.697l-2.543-.843a.737.737 0 0 0-.961.7v5.261c0 .367.132.718.396 1.056.265.338.575.565.932.682l2.728.926c.475.157.795.593.795 1.084v3.11c0 .698.542 1.49 1.329 1.737l9.139 3.017c.17.058.35.093.536.105.435.03.788-.09 1.061-.36.273-.272.409-.62.409-1.047V35.655a.837.837 0 0 0-.579-.791l-4.902-1.63c-.584-.193-1.188.232-1.188.835v-.003Z"/><path d="M19.944 73.47c.37-4.67 3.716-2.858 3.716.763v4.498c0 1.541 1.012 2.906 2.507 3.382l5.888 1.958c1.131.36 2.296-.553 2.296-1.72v-4.344a1.72 1.72 0 0 0-1.211-1.633l-1.902-.606a1.491 1.491 0 0 1-1.05-1.416v-3.783c0-7.153-3.239-9.587-6.346-10.581-5.533-1.77-7.881 8.421-3.898 13.48v.003Zm-.894 1.24c-3.053 1.55-7.356-.083-7.356-7.351v-3.051c-.002-1.956-1.287-3.688-3.184-4.291l-5.344-1.7C2.097 57.978 1 58.758 1 59.861v4.544c0 .703.462 1.325 1.145 1.543 2.435.856 2.88.879 2.88 3.626 0 3.258-.914 11.164 6.99 11.932 2.984.29 7.384-2.257 7.034-6.796h.001Zm1.287-37.643c.171.057.349.091.535.105.435.03.789-.09 1.061-.361.273-.271.503-.651.503-1.079V26.85c-.187-.712-.732-1.228-1.27-1.878l-.212-.256c-.79-.97-2.668-3.163-2.782-3.296l-5.127-5.806a5.66 5.66 0 0 1-.836-1.143l-.418-.132c-1.708-.49-1.723.291-1.723 2.237v11.26c0 .362.235.683.585.798l2.559.846c.556.183 1.13-.222 1.13-.798v-6.425c0-.336.165-.493.49-.47.218.015.413.117.584.303.172.187.257.387.257.6v8.15c0 .335-.164.491-.49.469a.644.644 0 0 1-.149-.03l-.021-.006-5.327-1.755-.011-.004c-.431-.137-.648-.434-.648-.888V15.37a1.39 1.39 0 0 0-.993-1.323l-2-.611a.78.78 0 0 0-1.017.734v16.5c0 .366.132.722.396 1.068.264.345.573.576.93.692h.005l13.985 4.64h.004v-.003Z"/><path d="m22.864 1.491-7.883 2.52c-1.54.535-2.166 1.61-2.166 3.2v5.04c0 .738.1 1.581 1.079 2.631l.147.168 4.995 5.656s1.973 2.306 2.804 3.323c.17.208.342.413.51.62.65.809 1.121 1.646 1.121 2.948v3.12c0 .344.223.65.554.76l5.035 1.66c.53.177 1.084-.191 1.084-.74v-5.844c0-1.387-.522-2.235-1.36-2.94-.84-.705-8.453-9.408-9.165-10.15-.71-.74-1.808-1.753-1.808-2.413 0-.66.475-1.05 1.201-1.017l1.809.048c1.474.039 2.65 1.222 2.65 2.67v1.779c0 .588.383 1.11.952 1.3l3.873 1.284c.907.301 1.848-.36 1.848-1.3V4.275c0-1.81-1.496-3.275-3.34-3.275h-.775c-1.075 0-2.143.167-3.165.492Zm-6.239 47.355.014-2.497a.767.767 0 0 0-.532-.732l-2.263-.737c-.506-.168-1.02.171-1.022.694 0 0-.021 17.49-.021 20.849 0 .183-.5 9.227 6.08 7.419-2.017-2.439-2.075-4.058-2.075-7.286 0-2.948.072-8.846.072-8.846.003-.67.332-.982.985-.933.125.01.24.033.348.072l10.65 3.606c.644.218 1.285-.267 1.289-.934l-.005-3.299c.002-.417-.217-.77-.618-.907l-10.492-3.47c-.82-.284-2.426-1.02-2.414-3h.004Z"/></g><defs><filter id="a" width="35.3506" height="129" x="0" y="0" color-interpolation-filters="sRGB" filterUnits="userSpaceOnUse"><feFlood flood-opacity="0" result="BackgroundImageFix"/><feColorMatrix in="SourceAlpha" result="hardAlpha" values="0 0 0 0 0 0 0 0 0 0 0 0 0 0 0 0 0 0 127 0"/><feOffset/><feGaussianBlur stdDeviation="0.5"/><feComposite in2="hardAlpha" operator="out"/><feColorMatrix values="0 0 0 0 0.705882 0 0 0 0 0.960784 0 0 0 0 0.901961 0 0 0 1 0"/><feBlend in2="BackgroundImageFix" result="effect1_dropShadow_6594_5802"/><feBlend in="SourceGraphic" in2="effect1_dropShadow_6594_5802" result="shape"/></filter></defs></svg>