<svg xmlns="http://www.w3.org/2000/svg" width="65" height="65" viewBox="0 0 65 65" fill="none">
    <path d="M55.5609 7.63086L35.5735 22.4758L39.2697 13.7175L55.5609 7.63086Z" fill="#E2761B" stroke="#E2761B" stroke-width="0.200879" stroke-linecap="round" stroke-linejoin="round"/>
    <path d="M9.41904 7.63086L29.2458 22.6164L25.7304 13.7175L9.41904 7.63086ZM48.3694 42.0414L43.0462 50.1971L54.436 53.3308L57.7103 42.2222L48.3694 42.0414ZM7.30981 42.2222L10.5641 53.3308L21.9539 50.1971L16.6306 42.0414L7.30981 42.2222Z" fill="#E4761B" stroke="#E4761B" stroke-width="0.200879" stroke-linecap="round" stroke-linejoin="round"/>
    <path d="M21.311 28.2621L18.1371 33.0631L29.4466 33.5653L29.0448 21.4121L21.311 28.2621ZM43.6688 28.2621L35.8345 21.2715L35.5734 33.5653L46.8628 33.0631L43.6688 28.2621ZM21.9538 50.198L28.7435 46.8835L22.8778 42.3035L21.9538 50.198ZM36.2363 46.8835L43.0461 50.198L42.1019 42.3035L36.2363 46.8835Z" fill="#E4761B" stroke="#E4761B" stroke-width="0.200879" stroke-linecap="round" stroke-linejoin="round"/>
    <path d="M43.046 50.1973L36.2362 46.8828L36.7786 51.3222L36.7183 53.1904L43.046 50.1973ZM21.9537 50.1973L28.2814 53.1904L28.2412 51.3222L28.7434 46.8828L21.9537 50.1973Z" fill="#D7C1B3" stroke="#D7C1B3" stroke-width="0.200879" stroke-linecap="round" stroke-linejoin="round"/>
    <path d="M28.3819 39.3703L22.7172 37.703L26.7147 35.875L28.3819 39.3703ZM36.5979 39.3703L38.2652 35.875L42.2828 37.703L36.5979 39.3703Z" fill="#233447" stroke="#233447" stroke-width="0.200879" stroke-linecap="round" stroke-linejoin="round"/>
    <path d="M21.9538 50.1975L22.918 42.0418L16.6305 42.2226L21.9538 50.1975ZM42.0818 42.0418L43.0461 50.1975L48.3693 42.2226L42.0818 42.0418ZM46.8628 33.0625L35.5734 33.5647L36.6179 39.3701L38.2852 35.8748L42.3028 37.7028L46.8628 33.0625ZM22.7171 37.7028L26.7347 35.8748L28.3819 39.3701L29.4466 33.5647L18.1371 33.0625L22.7171 37.7028Z" fill="#CD6116" stroke="#CD6116" stroke-width="0.200879" stroke-linecap="round" stroke-linejoin="round"/>
    <path d="M18.1371 33.0625L22.8778 42.3029L22.7171 37.7028L18.1371 33.0625ZM42.3028 37.7028L42.1019 42.3029L46.8628 33.0625L42.3028 37.7028ZM29.4466 33.5647L28.3819 39.3701L29.7077 46.2201L30.009 37.2006L29.4466 33.5647ZM35.5734 33.5647L35.031 37.1805L35.2721 46.2201L36.6179 39.3701L35.5734 33.5647Z" fill="#E4751F" stroke="#E4751F" stroke-width="0.200879" stroke-linecap="round" stroke-linejoin="round"/>
    <path d="M36.618 39.3704L35.2721 46.2204L36.2363 46.8833L42.102 42.3033L42.3029 37.7031L36.618 39.3704ZM22.7172 37.7031L22.8779 42.3033L28.7435 46.8833L29.7077 46.2204L28.3819 39.3704L22.7172 37.7031Z" fill="#F6851B" stroke="#F6851B" stroke-width="0.200879" stroke-linecap="round" stroke-linejoin="round"/>
    <path d="M36.7183 53.1913L36.7786 51.3232L36.2764 50.8812H28.7033L28.2412 51.3232L28.2814 53.1913L21.9537 50.1982L24.1634 52.0062L28.643 55.1198H36.3367L40.8363 52.0062L43.046 50.1982L36.7183 53.1913Z" fill="#C0AD9E" stroke="#C0AD9E" stroke-width="0.200879" stroke-linecap="round" stroke-linejoin="round"/>
    <path d="M36.2364 46.8826L35.2722 46.2197H29.7079L28.7437 46.8826L28.2415 51.322L28.7035 50.8801H36.2766L36.7788 51.322L36.2364 46.8826Z" fill="#161616" stroke="#161616" stroke-width="0.200879" stroke-linecap="round" stroke-linejoin="round"/>
    <path d="M56.4046 23.44L58.112 15.2442L55.5609 7.63086L36.2363 21.9736L43.6689 28.2611L54.1748 31.3346L56.505 28.6227L55.5006 27.8995L57.1076 26.4331L55.8622 25.4689L57.4692 24.2435L56.4046 23.44ZM6.88794 15.2442L8.59541 23.44L7.51066 24.2435L9.1177 25.4689L7.89233 26.4331L9.49936 27.8995L8.49497 28.6227L10.8051 31.3346L21.311 28.2611L28.7436 21.9736L9.41901 7.63086L6.88794 15.2442Z" fill="#763D16" stroke="#763D16" stroke-width="0.200879" stroke-linecap="round" stroke-linejoin="round"/>
    <path d="M54.1749 31.3358L43.6689 28.2624L46.8629 33.0634L42.102 42.3038L48.3694 42.2235H57.7103L54.1749 31.3358ZM21.3111 28.2624L10.8051 31.3358L7.30981 42.2235H16.6306L22.8779 42.3038L18.1372 33.0634L21.3111 28.2624ZM35.5735 33.5656L36.2364 21.9749L39.2897 13.7188H25.7304L28.7436 21.9749L29.4467 33.5656L29.6877 37.2216L29.7078 46.2209H35.2722L35.3123 37.2216L35.5735 33.5656Z" fill="#F6851B" stroke="#F6851B" stroke-width="0.200879" stroke-linecap="round" stroke-linejoin="round"/>
</svg>
