<svg xmlns="http://www.w3.org/2000/svg" width="65" height="65" viewBox="0 0 65 65" fill="none">
    <path d="M50.126 20.534C40.6682 11.1553 25.3318 11.1553 15.874 20.534L14.624 21.7718C14.5118 21.882 14.4225 22.014 14.3615 22.1598C14.3006 22.3057 14.2692 22.4624 14.2692 22.6208C14.2692 22.7792 14.3006 22.936 14.3615 23.0818C14.4225 23.2277 14.5118 23.3596 14.624 23.4698L18.518 27.3308C18.6329 27.4436 18.7865 27.5066 18.9464 27.5066C19.1064 27.5066 19.26 27.4436 19.3749 27.3308L21.0524 25.6677C27.6516 19.1264 38.35 19.1264 44.9476 25.6677L46.5139 27.2213C46.6288 27.3341 46.7824 27.3971 46.9423 27.3971C47.1023 27.3971 47.2559 27.3341 47.3707 27.2213L51.2648 23.3603C51.377 23.2501 51.4663 23.1182 51.5272 22.9723C51.5882 22.8265 51.6196 22.6697 51.6196 22.5113C51.6196 22.3529 51.5882 22.1962 51.5272 22.0503C51.4663 21.9045 51.377 21.7725 51.2648 21.6623L50.126 20.534Z" fill="#FFA753"/>
    <path d="M61.6452 31.9551L58.1803 28.5178C57.9508 28.2919 57.6435 28.1656 57.3235 28.1656C57.0036 28.1656 56.6962 28.2919 56.4667 28.5178L45.3767 39.5152C45.3194 39.572 45.2424 39.6038 45.1621 39.6038C45.0819 39.6038 45.0049 39.572 44.9476 39.5152L33.856 28.5178C33.6265 28.2919 33.3192 28.1656 32.9992 28.1656C32.6793 28.1656 32.3719 28.2919 32.1424 28.5178L21.0524 39.5152C20.9951 39.572 20.9181 39.6038 20.8379 39.6038C20.7576 39.6038 20.6806 39.572 20.6233 39.5152L9.5333 28.5178C9.30388 28.2924 8.99685 28.1664 8.67727 28.1664C8.35769 28.1664 8.05066 28.2924 7.82124 28.5178L4.35485 31.9551C4.24258 32.0653 4.15332 32.1973 4.09237 32.3431C4.03141 32.4889 4 32.6457 4 32.8041C4 32.9625 4.03141 33.1192 4.09237 33.2651C4.15332 33.4109 4.24258 33.5429 4.35485 33.6531L19.9826 49.1478C20.2121 49.3736 20.5195 49.5 20.8394 49.5C21.1594 49.5 21.4667 49.3736 21.6962 49.1478L32.7862 38.1504C32.8436 38.0936 32.9206 38.0618 33.0008 38.0618C33.081 38.0618 33.158 38.0936 33.2154 38.1504L44.3053 49.1478C44.5348 49.3736 44.8422 49.5 45.1621 49.5C45.4821 49.5 45.7895 49.3736 46.019 49.1478L61.6452 33.6531C61.7574 33.5429 61.8467 33.4109 61.9076 33.2651C61.9686 33.1192 62 32.9625 62 32.8041C62 32.6457 61.9686 32.4889 61.9076 32.3431C61.8467 32.1973 61.7574 32.0653 61.6452 31.9551Z" fill="#FFA753"/>
</svg>
