<svg xmlns="http://www.w3.org/2000/svg" width="116" height="35" fill="none"><g fill="#fff" clip-path="url(#a)"><path d="M7.014 2.33V1.16H.28v1.17h2.717V10h1.3V2.33h2.717ZM10.777.9V10h1.3V4.67h2.86V10h1.3V3.5h-4.16V.9h-1.3Zm12.532 9.23c.494 0 .858 0 1.872-.26V8.726c-.845.234-1.352.234-1.872.234-1.52 0-1.885-.715-1.976-1.625h4.29V6.62c0-2.041-.806-3.25-2.808-3.25s-2.808 1.339-2.808 3.38c0 1.287.364 3.38 3.302 3.38Zm-2.002-3.965c.065-1.053.507-1.625 1.508-1.625 1.053 0 1.482.494 1.508 1.625h-3.016Zm20.291.39v-1.17h-3.627V2.33h4.394V1.16h-5.694V10h1.3V6.555h3.627ZM46.136.9v1.3h1.3V.9h-1.3Zm0 2.6V10h1.3V3.5h-1.3Zm9.132 1.17V3.5h-3.796V10h1.3V4.67h2.496Zm6.267 5.46c1.521 0 2.444-.845 2.444-1.95 0-1.196-.702-1.599-2.626-2.119-1.105-.299-1.274-.546-1.274-.91 0-.325.221-.611.884-.611.715 0 1.547.208 2.496.676v-1.17c-.637-.442-1.495-.676-2.366-.676-1.39 0-2.314.741-2.314 1.82 0 1.027.507 1.638 2.366 2.041 1.196.26 1.534.507 1.534.962 0 .403-.299.767-1.144.767-.962 0-1.573-.234-2.756-.975v1.313c.95.637 1.742.832 2.756.832Zm7.904-1.3V4.67h1.716V3.5h-1.716V.9h-1.3v2.6h-1.04v1.17h1.04V10h3.016V8.83h-1.716Zm14.062 0V1.16h-1.3V10h4.914V8.83h-3.614Zm10.42 1.3c.494 0 .858 0 1.872-.26V8.726c-.845.234-1.352.234-1.872.234-1.52 0-1.885-.715-1.976-1.625h4.29V6.62c0-2.041-.806-3.25-2.808-3.25S90.62 4.709 90.62 6.75c0 1.287.364 3.38 3.302 3.38ZM91.92 6.165c.065-1.053.507-1.625 1.508-1.625 1.053 0 1.482.494 1.508 1.625H91.92Zm10.022 3.965c.91 0 1.417-.26 1.807-.78V10h2.08V8.7h-.78V3.5h-4.68v1.17h3.38v1.69c-.39-.52-.897-.78-1.807-.78-1.586 0-2.326 1.144-2.326 2.275s.74 2.275 2.326 2.275Zm.39-1.17c-.949 0-1.417-.455-1.417-1.105 0-.65.468-1.105 1.417-1.105.949 0 1.417.455 1.417 1.105 0 .65-.468 1.105-1.417 1.105Zm10.639-5.59c-.91 0-1.547.351-1.937.91V3.5h-1.3v8.58h1.3V9.22c.39.559 1.027.91 1.937.91 2.106 0 2.847-1.469 2.847-3.38 0-1.911-.741-3.38-2.847-3.38Zm-.195 5.59c-1.274 0-1.742-.65-1.742-2.21s.468-2.21 1.742-2.21 1.742.65 1.742 2.21-.468 2.21-1.742 2.21Z"/><path fill-opacity=".33" d="m2.23 32.83 2.028-1.963c1.131-1.092 1.716-1.846 1.716-3.107 0-1.261-.74-2.73-2.847-2.73-2.106 0-2.847 1.469-2.847 3.12h1.3c0-1.3.468-1.95 1.547-1.95 1.08 0 1.547.585 1.547 1.495 0 .949-.52 1.521-1.69 2.613L.28 32.83V34h5.564v-1.17H2.23Zm10.353 1.3c2.236 0 2.977-1.469 2.977-2.86 0-1.781-1.21-2.6-2.834-2.34l2.574-2.6v-1.17H9.996v1.17h3.588l-2.301 2.34.52 1.17h.975c.819 0 1.482.325 1.482 1.43 0 1.04-.468 1.69-1.677 1.69-1.21 0-1.677-.65-1.677-1.69h-1.3c0 1.391.74 2.86 2.977 2.86ZM23 25.03c-2.704 0-3.536 2.08-3.536 4.55 0 2.47.832 4.55 3.536 4.55s3.536-2.08 3.536-4.55c0-2.47-.832-4.55-3.536-4.55Zm2.236 4.55c0 .728-.052 1.326-.169 1.807l-3.419-4.836c.338-.234.78-.351 1.352-.351 1.73 0 2.236 1.027 2.236 3.38Zm-4.472 0c0-.715.052-1.313.156-1.794l3.42 4.823c-.326.234-.768.351-1.34.351-1.742 0-2.236-1.027-2.236-3.38Zm13.085-4.55c-2.704 0-3.536 2.08-3.536 4.55 0 2.47.832 4.55 3.536 4.55s3.536-2.08 3.536-4.55c0-2.47-.832-4.55-3.536-4.55Zm2.236 4.55c0 .728-.052 1.326-.169 1.807l-3.419-4.836c.338-.234.78-.351 1.352-.351 1.73 0 2.236 1.027 2.236 3.38Zm-4.472 0c0-.715.052-1.313.156-1.794l3.42 4.823c-.326.234-.768.351-1.34.351-1.742 0-2.236-1.027-2.236-3.38Zm9.803-.078v1.17h4.576v-1.17h-4.576Zm10.552 3.328 2.028-1.963c1.131-1.092 1.716-1.846 1.716-3.107 0-1.261-.741-2.73-2.847-2.73s-2.847 1.469-2.847 3.12h1.3c0-1.3.468-1.95 1.547-1.95s1.547.585 1.547 1.495c0 .949-.52 1.521-1.69 2.613l-2.704 2.522V34h5.564v-1.17h-3.614Zm10.352 1.3c2.236 0 2.977-1.469 2.977-2.86 0-1.781-1.209-2.6-2.833-2.34l2.573-2.6v-1.17h-5.304v1.17h3.589l-2.302 2.34.52 1.17h.976c.819 0 1.482.325 1.482 1.43 0 1.04-.468 1.69-1.677 1.69-1.21 0-1.677-.65-1.677-1.69h-1.3c0 1.391.74 2.86 2.977 2.86Zm10.093 0c2.51 0 3.211-1.3 3.211-2.47 0-1.118-.35-1.976-1.937-2.366v-.208c1.131-.39 1.417-.962 1.417-1.846 0-1.17-.702-2.21-2.69-2.21-1.99 0-2.692 1.04-2.692 2.21 0 .884.286 1.456 1.417 1.846v.208c-1.586.39-1.937 1.235-1.937 2.366 0 1.17.702 2.47 3.211 2.47Zm0-5.525c-1.027 0-1.39-.507-1.39-1.17 0-.793.363-1.235 1.39-1.235 1.014 0 1.391.442 1.391 1.235 0 .663-.377 1.17-1.39 1.17Zm0 4.355c-1.547 0-1.91-.702-1.91-1.625s.363-1.56 1.91-1.56c1.534 0 1.911.637 1.911 1.56s-.377 1.625-1.91 1.625Zm10.293-7.93c-2.938 0-3.302 2.353-3.302 3.64v1.69c0 2.288.806 3.77 3.107 3.77 2.3 0 3.107-1.469 3.107-3.12s-.806-3.12-2.912-3.12c-.91 0-1.612.481-2.002.91 0-1.157.039-2.6 2.002-2.6.52 0 1.157 0 2.002.234V25.29c-1.014-.26-1.508-.26-2.002-.26Zm-.195 4.017c1.274 0 1.807.663 1.807 1.963s-.533 1.95-1.807 1.95-1.807-1.04-1.807-2.08c0-1.17.533-1.833 1.807-1.833Z"/></g><defs><clipPath id="a"><path fill="#fff" d="M0 0h116v35H0z"/></clipPath></defs></svg>