<svg width="386" height="919" viewBox="0 0 386 919" fill="none" xmlns="http://www.w3.org/2000/svg">
<line opacity="0.33" x1="383" y1="34" x2="383" y2="868" stroke="white" stroke-width="11" stroke-dasharray="1 11"/>
<line x1="383" y1="415" x2="383" y2="773" stroke="#FFA753" stroke-width="11" stroke-dasharray="1 11"/>
<path d="M42.014 559.33V558.16H35.28V559.33H37.997V567H39.297V559.33H42.014ZM45.7765 557.9V567H47.0765V561.67H49.9365V567H51.2365V560.5H47.0765V557.9H45.7765ZM58.309 567.13C58.803 567.13 59.167 567.13 60.181 566.87V565.726C59.336 565.96 58.829 565.96 58.309 565.96C56.788 565.96 56.424 565.245 56.333 564.335H60.623V563.62C60.623 561.579 59.817 560.37 57.815 560.37C55.813 560.37 55.007 561.709 55.007 563.75C55.007 565.037 55.371 567.13 58.309 567.13ZM56.307 563.165C56.372 562.112 56.814 561.54 57.815 561.54C58.868 561.54 59.297 562.034 59.323 563.165H56.307ZM72.9709 565.83V563.035H76.3249V561.865H72.9709V559.33H77.3649V558.16H71.6709V567H77.3649V565.83H72.9709ZM85.0686 561.67V560.5H81.2726V567H82.5726V561.67H85.0686ZM90.5226 567.13C91.4326 567.13 91.9396 566.87 92.3296 566.35V567H94.4096V565.7H93.6296V560.5H88.9496V561.67H92.3296V563.36C91.9396 562.84 91.4326 562.58 90.5226 562.58C88.9366 562.58 88.1956 563.724 88.1956 564.855C88.1956 565.986 88.9366 567.13 90.5226 567.13ZM90.9126 565.96C89.9636 565.96 89.4956 565.505 89.4956 564.855C89.4956 564.205 89.9636 563.75 90.9126 563.75C91.8616 563.75 92.3296 564.205 92.3296 564.855C92.3296 565.505 91.8616 565.96 90.9126 565.96ZM38.257 587.13C40.233 587.13 41.364 585.791 41.364 583.75C41.364 581.709 40.233 580.37 38.257 580.37C36.281 580.37 35.15 581.709 35.15 583.75C35.15 585.791 36.281 587.13 38.257 587.13ZM38.257 585.96C36.918 585.96 36.45 585.44 36.45 583.75C36.45 582.06 36.918 581.54 38.257 581.54C39.596 581.54 40.064 582.06 40.064 583.75C40.064 585.44 39.596 585.96 38.257 585.96ZM48.6742 581.67V580.5H46.8282V579.07H48.6742V577.9H45.5282V580.5H44.4882V581.67H45.5282V587H46.8282V581.67H48.6742ZM61.7975 585.83V581.67H63.5135V580.5H61.7975V577.9H60.4975V580.5H59.4575V581.67H60.4975V587H63.5135V585.83H61.7975ZM67.5449 577.9V587H68.8449V581.67H71.7049V587H73.0049V580.5H68.8449V577.9H67.5449ZM80.0774 587.13C80.5714 587.13 80.9354 587.13 81.9494 586.87V585.726C81.1044 585.96 80.5974 585.96 80.0774 585.96C78.5564 585.96 78.1924 585.245 78.1014 584.335H82.3914V583.62C82.3914 581.579 81.5854 580.37 79.5834 580.37C77.5814 580.37 76.7754 581.709 76.7754 583.75C76.7754 585.037 77.1394 587.13 80.0774 587.13ZM78.0754 583.165C78.1404 582.112 78.5824 581.54 79.5834 581.54C80.6364 581.54 81.0654 582.034 81.0914 583.165H78.0754ZM96.9753 587.13C98.5873 587.13 99.0943 586.272 99.3283 585.765H99.5363V587H100.836V582.593H96.1303V583.763H99.5363C99.4063 584.907 98.7433 585.96 97.2353 585.96C95.3633 585.96 94.4793 585.063 94.4793 582.58C94.4793 580.097 95.2333 579.2 97.1053 579.2C98.6133 579.2 99.1853 579.993 99.2893 581.137H100.576C100.446 579.317 99.2633 578.03 97.1053 578.03C94.2713 578.03 93.1793 580.24 93.1793 582.58C93.1793 584.92 94.2713 587.13 96.9753 587.13ZM108.538 581.67V580.5H104.742V587H106.042V581.67H108.538ZM115.031 587.13C115.525 587.13 115.889 587.13 116.903 586.87V585.726C116.058 585.96 115.551 585.96 115.031 585.96C113.51 585.96 113.146 585.245 113.055 584.335H117.345V583.62C117.345 581.579 116.539 580.37 114.537 580.37C112.535 580.37 111.729 581.709 111.729 583.75C111.729 585.037 112.093 587.13 115.031 587.13ZM113.029 583.165C113.094 582.112 113.536 581.54 114.537 581.54C115.59 581.54 116.019 582.034 116.045 583.165H113.029ZM123.051 587.13C123.961 587.13 124.468 586.87 124.858 586.35V587H126.938V585.7H126.158V580.5H121.478V581.67H124.858V583.36C124.468 582.84 123.961 582.58 123.051 582.58C121.465 582.58 120.724 583.724 120.724 584.855C120.724 585.986 121.465 587.13 123.051 587.13ZM123.441 585.96C122.492 585.96 122.024 585.505 122.024 584.855C122.024 584.205 122.492 583.75 123.441 583.75C124.39 583.75 124.858 584.205 124.858 584.855C124.858 585.505 124.39 585.96 123.441 585.96ZM132.263 585.83V581.67H133.979V580.5H132.263V577.9H130.963V580.5H129.923V581.67H130.963V587H133.979V585.83H132.263ZM36.71 605.83V598.16H35.41V607H40.324V605.83H36.71ZM47.13 607.13C47.624 607.13 47.988 607.13 49.002 606.87V605.726C48.157 605.96 47.65 605.96 47.13 605.96C45.609 605.96 45.245 605.245 45.154 604.335H49.444V603.62C49.444 601.579 48.638 600.37 46.636 600.37C44.634 600.37 43.828 601.709 43.828 603.75C43.828 605.037 44.192 607.13 47.13 607.13ZM45.128 603.165C45.193 602.112 45.635 601.54 46.636 601.54C47.689 601.54 48.118 602.034 48.144 603.165H45.128ZM55.1504 607.13C56.0604 607.13 56.5674 606.87 56.9574 606.35V607H59.0374V605.7H58.2574V600.5H53.5774V601.67H56.9574V603.36C56.5674 602.84 56.0604 602.58 55.1504 602.58C53.5644 602.58 52.8234 603.724 52.8234 604.855C52.8234 605.986 53.5644 607.13 55.1504 607.13ZM55.5404 605.96C54.5914 605.96 54.1234 605.505 54.1234 604.855C54.1234 604.205 54.5914 603.75 55.5404 603.75C56.4894 603.75 56.9574 604.205 56.9574 604.855C56.9574 605.505 56.4894 605.96 55.5404 605.96ZM66.1791 600.37C65.2691 600.37 64.6321 600.721 64.2421 601.28V600.5H62.9421V609.08H64.2421V606.22C64.6321 606.779 65.2691 607.13 66.1791 607.13C68.2851 607.13 69.0261 605.661 69.0261 603.75C69.0261 601.839 68.2851 600.37 66.1791 600.37ZM65.9841 605.96C64.7101 605.96 64.2421 605.31 64.2421 603.75C64.2421 602.19 64.7101 601.54 65.9841 601.54C67.2581 601.54 67.7261 602.19 67.7261 603.75C67.7261 605.31 67.2581 605.96 65.9841 605.96Z" fill="#FFA753"/>
<path d="M37.23 629.83L39.258 627.867C40.389 626.775 40.974 626.021 40.974 624.76C40.974 623.499 40.233 622.03 38.127 622.03C36.021 622.03 35.28 623.499 35.28 625.15H36.58C36.58 623.85 37.048 623.2 38.127 623.2C39.206 623.2 39.674 623.785 39.674 624.695C39.674 625.644 39.154 626.216 37.984 627.308L35.28 629.83V631H40.844V629.83H37.23ZM47.5825 631.13C49.8185 631.13 50.5595 629.661 50.5595 628.27C50.5595 626.489 49.3505 625.67 47.7255 625.93L50.2995 623.33V622.16H44.9955V623.33H48.5835L46.2825 625.67L46.8025 626.84H47.7775C48.5965 626.84 49.2595 627.165 49.2595 628.27C49.2595 629.31 48.7915 629.96 47.5825 629.96C46.3735 629.96 45.9055 629.31 45.9055 628.27H44.6055C44.6055 629.661 45.3465 631.13 47.5825 631.13ZM58.0001 622.03C55.2961 622.03 54.4641 624.11 54.4641 626.58C54.4641 629.05 55.2961 631.13 58.0001 631.13C60.7041 631.13 61.5361 629.05 61.5361 626.58C61.5361 624.11 60.7041 622.03 58.0001 622.03ZM60.2361 626.58C60.2361 627.308 60.1841 627.906 60.0671 628.387L56.6481 623.551C56.9861 623.317 57.4281 623.2 58.0001 623.2C59.7291 623.2 60.2361 624.227 60.2361 626.58ZM55.7641 626.58C55.7641 625.865 55.8161 625.267 55.9201 624.786L59.3391 629.609C59.0141 629.843 58.5721 629.96 58.0001 629.96C56.2581 629.96 55.7641 628.933 55.7641 626.58ZM68.849 622.03C66.145 622.03 65.313 624.11 65.313 626.58C65.313 629.05 66.145 631.13 68.849 631.13C71.553 631.13 72.385 629.05 72.385 626.58C72.385 624.11 71.553 622.03 68.849 622.03ZM71.085 626.58C71.085 627.308 71.033 627.906 70.916 628.387L67.497 623.551C67.835 623.317 68.277 623.2 68.849 623.2C70.578 623.2 71.085 624.227 71.085 626.58ZM66.613 626.58C66.613 625.865 66.665 625.267 66.769 624.786L70.188 629.609C69.863 629.843 69.421 629.96 68.849 629.96C67.107 629.96 66.613 628.933 66.613 626.58ZM76.4159 626.502V627.672H80.9919V626.502H76.4159ZM86.9677 629.83L88.9957 627.867C90.1267 626.775 90.7117 626.021 90.7117 624.76C90.7117 623.499 89.9707 622.03 87.8647 622.03C85.7587 622.03 85.0177 623.499 85.0177 625.15H86.3177C86.3177 623.85 86.7857 623.2 87.8647 623.2C88.9437 623.2 89.4117 623.785 89.4117 624.695C89.4117 625.644 88.8917 626.216 87.7217 627.308L85.0177 629.83V631H90.5817V629.83H86.9677ZM97.3202 631.13C99.5562 631.13 100.297 629.661 100.297 628.27C100.297 626.489 99.0882 625.67 97.4632 625.93L100.037 623.33V622.16H94.7332V623.33H98.3212L96.0202 625.67L96.5402 626.84H97.5152C98.3342 626.84 98.9972 627.165 98.9972 628.27C98.9972 629.31 98.5292 629.96 97.3202 629.96C96.1112 629.96 95.6432 629.31 95.6432 628.27H94.3432C94.3432 629.661 95.0842 631.13 97.3202 631.13ZM107.413 631.13C109.922 631.13 110.624 629.83 110.624 628.66C110.624 627.542 110.273 626.684 108.687 626.294V626.086C109.818 625.696 110.104 625.124 110.104 624.24C110.104 623.07 109.402 622.03 107.413 622.03C105.424 622.03 104.722 623.07 104.722 624.24C104.722 625.124 105.008 625.696 106.139 626.086V626.294C104.553 626.684 104.202 627.529 104.202 628.66C104.202 629.83 104.904 631.13 107.413 631.13ZM107.413 625.605C106.386 625.605 106.022 625.098 106.022 624.435C106.022 623.642 106.386 623.2 107.413 623.2C108.427 623.2 108.804 623.642 108.804 624.435C108.804 625.098 108.427 625.605 107.413 625.605ZM107.413 629.96C105.866 629.96 105.502 629.258 105.502 628.335C105.502 627.412 105.866 626.775 107.413 626.775C108.947 626.775 109.324 627.412 109.324 628.335C109.324 629.258 108.947 629.96 107.413 629.96ZM117.705 622.03C114.767 622.03 114.403 624.383 114.403 625.67V627.36C114.403 629.648 115.209 631.13 117.51 631.13C119.811 631.13 120.617 629.661 120.617 628.01C120.617 626.359 119.811 624.89 117.705 624.89C116.795 624.89 116.093 625.371 115.703 625.8C115.703 624.643 115.742 623.2 117.705 623.2C118.225 623.2 118.862 623.2 119.707 623.434V622.29C118.693 622.03 118.199 622.03 117.705 622.03ZM117.51 626.047C118.784 626.047 119.317 626.71 119.317 628.01C119.317 629.31 118.784 629.96 117.51 629.96C116.236 629.96 115.703 628.92 115.703 627.88C115.703 626.71 116.236 626.047 117.51 626.047Z" fill="white" fill-opacity="0.33"/>
<path d="M251.649 614.531C233.374 654.852 230.305 619.722 196.4 629.336C162.494 638.949 170.427 593.431 181.596 574.086C192.764 554.741 227.109 532.812 239.902 556.877C252.695 580.942 269.925 574.211 251.649 614.531Z" fill="url(#paint0_radial_3379_1284)"/>
<g filter="url(#filter0_f_3379_1284)">
<path d="M267.263 593.901C236.816 629.926 246.266 613.853 213.817 647.107C181.368 680.361 176.165 641.857 160.371 593.901C144.578 545.945 208.822 563.172 215.726 535.944C222.629 508.716 297.709 557.875 267.263 593.901Z" fill="url(#paint1_radial_3379_1284)"/>
</g>
<circle cx="209.899" cy="595.472" r="26.5583" fill="url(#paint2_radial_3379_1284)"/>
<circle cx="216.428" cy="594.98" r="13.9322" fill="url(#paint3_radial_3379_1284)"/>
<path d="M316.833 594C316.833 595.473 318.027 596.667 319.5 596.667C320.973 596.667 322.167 595.473 322.167 594C322.167 592.527 320.973 591.333 319.5 591.333C318.027 591.333 316.833 592.527 316.833 594ZM319.5 594.5L387.5 594.5L387.5 593.5L319.5 593.5L319.5 594.5Z" fill="#FFA753"/>
<path d="M42.014 843.33V842.16H35.28V843.33H37.997V851H39.297V843.33H42.014ZM45.7765 841.9V851H47.0765V845.67H49.9365V851H51.2365V844.5H47.0765V841.9H45.7765ZM58.309 851.13C58.803 851.13 59.167 851.13 60.181 850.87V849.726C59.336 849.96 58.829 849.96 58.309 849.96C56.788 849.96 56.424 849.245 56.333 848.335H60.623V847.62C60.623 845.579 59.817 844.37 57.815 844.37C55.813 844.37 55.007 845.709 55.007 847.75C55.007 849.037 55.371 851.13 58.309 851.13ZM56.307 847.165C56.372 846.112 56.814 845.54 57.815 845.54C58.868 845.54 59.297 846.034 59.323 847.165H56.307ZM72.9709 849.83V842.16H71.6709V851H76.5849V849.83H72.9709ZM83.3909 851.13C83.8849 851.13 84.2489 851.13 85.2629 850.87V849.726C84.4179 849.96 83.9109 849.96 83.3909 849.96C81.8699 849.96 81.5059 849.245 81.4149 848.335H85.7049V847.62C85.7049 845.579 84.8989 844.37 82.8969 844.37C80.8949 844.37 80.0889 845.709 80.0889 847.75C80.0889 849.037 80.4529 851.13 83.3909 851.13ZM81.3889 847.165C81.4539 846.112 81.8959 845.54 82.8969 845.54C83.9499 845.54 84.3789 846.034 84.4049 847.165H81.3889ZM91.4113 851.13C92.3213 851.13 92.8283 850.87 93.2183 850.35V851H95.2983V849.7H94.5183V844.5H89.8383V845.67H93.2183V847.36C92.8283 846.84 92.3213 846.58 91.4113 846.58C89.8253 846.58 89.0843 847.724 89.0843 848.855C89.0843 849.986 89.8253 851.13 91.4113 851.13ZM91.8013 849.96C90.8523 849.96 90.3843 849.505 90.3843 848.855C90.3843 848.205 90.8523 847.75 91.8013 847.75C92.7503 847.75 93.2183 848.205 93.2183 848.855C93.2183 849.505 92.7503 849.96 91.8013 849.96ZM102.44 844.37C101.53 844.37 100.893 844.721 100.503 845.28V844.5H99.2029V853.08H100.503V850.22C100.893 850.779 101.53 851.13 102.44 851.13C104.546 851.13 105.287 849.661 105.287 847.75C105.287 845.839 104.546 844.37 102.44 844.37ZM102.245 849.96C100.971 849.96 100.503 849.31 100.503 847.75C100.503 846.19 100.971 845.54 102.245 845.54C103.519 845.54 103.987 846.19 103.987 847.75C103.987 849.31 103.519 849.96 102.245 849.96ZM38.257 871.13C40.233 871.13 41.364 869.791 41.364 867.75C41.364 865.709 40.233 864.37 38.257 864.37C36.281 864.37 35.15 865.709 35.15 867.75C35.15 869.791 36.281 871.13 38.257 871.13ZM38.257 869.96C36.918 869.96 36.45 869.44 36.45 867.75C36.45 866.06 36.918 865.54 38.257 865.54C39.596 865.54 40.064 866.06 40.064 867.75C40.064 869.44 39.596 869.96 38.257 869.96ZM48.6742 865.67V864.5H46.8282V863.07H48.6742V861.9H45.5282V864.5H44.4882V865.67H45.5282V871H46.8282V865.67H48.6742ZM61.2255 864.682L65.4375 871H66.7375V862.16H65.4375V868.478H65.2295L61.0175 862.16H59.7175V871H61.0175V864.682H61.2255ZM72.9634 871.13C73.8734 871.13 74.3804 870.87 74.7704 870.35V871H76.8504V869.7H76.0704V864.5H71.3904V865.67H74.7704V867.36C74.3804 866.84 73.8734 866.58 72.9634 866.58C71.3774 866.58 70.6364 867.724 70.6364 868.855C70.6364 869.986 71.3774 871.13 72.9634 871.13ZM73.3534 869.96C72.4044 869.96 71.9364 869.505 71.9364 868.855C71.9364 868.205 72.4044 867.75 73.3534 867.75C74.3024 867.75 74.7704 868.205 74.7704 868.855C74.7704 869.505 74.3024 869.96 73.3534 869.96ZM82.9295 868.348L84.7495 871H86.3225L84.0995 867.763L86.3225 864.5H84.7495L82.9295 867.178H81.9155V861.9H80.6155V871H81.9155V868.348H82.9295ZM92.7483 871.13C94.6593 871.13 95.6603 870.311 95.6603 868.14V864.5H94.3603V868.4C94.3603 869.57 93.8923 869.96 92.7483 869.96C91.6043 869.96 91.1363 869.57 91.1363 868.4V864.5H89.8363V868.14C89.8363 870.311 90.8373 871.13 92.7483 871.13Z" fill="white"/>
<path d="M37.23 893.83L39.258 891.867C40.389 890.775 40.974 890.021 40.974 888.76C40.974 887.499 40.233 886.03 38.127 886.03C36.021 886.03 35.28 887.499 35.28 889.15H36.58C36.58 887.85 37.048 887.2 38.127 887.2C39.206 887.2 39.674 887.785 39.674 888.695C39.674 889.644 39.154 890.216 37.984 891.308L35.28 893.83V895H40.844V893.83H37.23ZM47.5825 895.13C49.8185 895.13 50.5595 893.661 50.5595 892.27C50.5595 890.489 49.3505 889.67 47.7255 889.93L50.2995 887.33V886.16H44.9955V887.33H48.5835L46.2825 889.67L46.8025 890.84H47.7775C48.5965 890.84 49.2595 891.165 49.2595 892.27C49.2595 893.31 48.7915 893.96 47.5825 893.96C46.3735 893.96 45.9055 893.31 45.9055 892.27H44.6055C44.6055 893.661 45.3465 895.13 47.5825 895.13ZM58.0001 886.03C55.2961 886.03 54.4641 888.11 54.4641 890.58C54.4641 893.05 55.2961 895.13 58.0001 895.13C60.7041 895.13 61.5361 893.05 61.5361 890.58C61.5361 888.11 60.7041 886.03 58.0001 886.03ZM60.2361 890.58C60.2361 891.308 60.1841 891.906 60.0671 892.387L56.6481 887.551C56.9861 887.317 57.4281 887.2 58.0001 887.2C59.7291 887.2 60.2361 888.227 60.2361 890.58ZM55.7641 890.58C55.7641 889.865 55.8161 889.267 55.9201 888.786L59.3391 893.609C59.0141 893.843 58.5721 893.96 58.0001 893.96C56.2581 893.96 55.7641 892.933 55.7641 890.58ZM68.849 886.03C66.145 886.03 65.313 888.11 65.313 890.58C65.313 893.05 66.145 895.13 68.849 895.13C71.553 895.13 72.385 893.05 72.385 890.58C72.385 888.11 71.553 886.03 68.849 886.03ZM71.085 890.58C71.085 891.308 71.033 891.906 70.916 892.387L67.497 887.551C67.835 887.317 68.277 887.2 68.849 887.2C70.578 887.2 71.085 888.227 71.085 890.58ZM66.613 890.58C66.613 889.865 66.665 889.267 66.769 888.786L70.188 893.609C69.863 893.843 69.421 893.96 68.849 893.96C67.107 893.96 66.613 892.933 66.613 890.58ZM76.4159 890.502V891.672H80.9919V890.502H76.4159ZM86.9677 893.83L88.9957 891.867C90.1267 890.775 90.7117 890.021 90.7117 888.76C90.7117 887.499 89.9707 886.03 87.8647 886.03C85.7587 886.03 85.0177 887.499 85.0177 889.15H86.3177C86.3177 887.85 86.7857 887.2 87.8647 887.2C88.9437 887.2 89.4117 887.785 89.4117 888.695C89.4117 889.644 88.8917 890.216 87.7217 891.308L85.0177 893.83V895H90.5817V893.83H86.9677ZM97.3202 895.13C99.5562 895.13 100.297 893.661 100.297 892.27C100.297 890.489 99.0882 889.67 97.4632 889.93L100.037 887.33V886.16H94.7332V887.33H98.3212L96.0202 889.67L96.5402 890.84H97.5152C98.3342 890.84 98.9972 891.165 98.9972 892.27C98.9972 893.31 98.5292 893.96 97.3202 893.96C96.1112 893.96 95.6432 893.31 95.6432 892.27H94.3432C94.3432 893.661 95.0842 895.13 97.3202 895.13ZM107.413 895.13C109.922 895.13 110.624 893.83 110.624 892.66C110.624 891.542 110.273 890.684 108.687 890.294V890.086C109.818 889.696 110.104 889.124 110.104 888.24C110.104 887.07 109.402 886.03 107.413 886.03C105.424 886.03 104.722 887.07 104.722 888.24C104.722 889.124 105.008 889.696 106.139 890.086V890.294C104.553 890.684 104.202 891.529 104.202 892.66C104.202 893.83 104.904 895.13 107.413 895.13ZM107.413 889.605C106.386 889.605 106.022 889.098 106.022 888.435C106.022 887.642 106.386 887.2 107.413 887.2C108.427 887.2 108.804 887.642 108.804 888.435C108.804 889.098 108.427 889.605 107.413 889.605ZM107.413 893.96C105.866 893.96 105.502 893.258 105.502 892.335C105.502 891.412 105.866 890.775 107.413 890.775C108.947 890.775 109.324 891.412 109.324 892.335C109.324 893.258 108.947 893.96 107.413 893.96ZM117.705 886.03C114.767 886.03 114.403 888.383 114.403 889.67V891.36C114.403 893.648 115.209 895.13 117.51 895.13C119.811 895.13 120.617 893.661 120.617 892.01C120.617 890.359 119.811 888.89 117.705 888.89C116.795 888.89 116.093 889.371 115.703 889.8C115.703 888.643 115.742 887.2 117.705 887.2C118.225 887.2 118.862 887.2 119.707 887.434V886.29C118.693 886.03 118.199 886.03 117.705 886.03ZM117.51 890.047C118.784 890.047 119.317 890.71 119.317 892.01C119.317 893.31 118.784 893.96 117.51 893.96C116.236 893.96 115.703 892.92 115.703 891.88C115.703 890.71 116.236 890.047 117.51 890.047Z" fill="white" fill-opacity="0.33"/>
<g style="mix-blend-mode:screen" filter="url(#filter1_f_3379_1284)">
<path d="M255.493 858.999C264.655 867.612 240.977 910.502 214.321 900.694C187.664 890.887 172.625 878.838 172.625 858.999C172.625 839.16 192.074 829.538 214.321 826.285C236.567 823.032 246.332 850.387 255.493 858.999Z" fill="url(#paint4_radial_3379_1284)"/>
</g>
<g filter="url(#filter2_f_3379_1284)">
<path d="M253.743 858.999C262.905 867.612 239.227 910.502 212.571 900.694C185.914 890.887 170.875 878.838 170.875 858.999C170.875 839.16 190.324 829.538 212.571 826.285C234.817 823.032 244.582 850.387 253.743 858.999Z" fill="url(#paint5_radial_3379_1284)"/>
</g>
<g style="mix-blend-mode:screen" filter="url(#filter3_f_3379_1284)">
<path d="M255.493 865.124C264.655 873.737 240.977 916.627 214.321 906.819C187.664 897.012 172.625 884.963 172.625 865.124C172.625 845.285 192.074 835.663 214.321 832.41C236.567 829.157 246.332 856.512 255.493 865.124Z" fill="url(#paint6_radial_3379_1284)"/>
</g>
<circle cx="201.627" cy="868.145" r="42.1266" fill="url(#paint7_radial_3379_1284)"/>
<path d="M316.833 868C316.833 869.473 318.027 870.667 319.5 870.667C320.973 870.667 322.167 869.473 322.167 868C322.167 866.527 320.973 865.333 319.5 865.333C318.027 865.333 316.833 866.527 316.833 868ZM319.5 868.5L387.5 868.5L387.5 867.5L319.5 867.5L319.5 868.5Z" fill="white"/>
<path d="M42.014 250.33V249.16H35.28V250.33H37.997V258H39.297V250.33H42.014ZM45.7765 248.9V258H47.0765V252.67H49.9365V258H51.2365V251.5H47.0765V248.9H45.7765ZM58.309 258.13C58.803 258.13 59.167 258.13 60.181 257.87V256.726C59.336 256.96 58.829 256.96 58.309 256.96C56.788 256.96 56.424 256.245 56.333 255.335H60.623V254.62C60.623 252.579 59.817 251.37 57.815 251.37C55.813 251.37 55.007 252.709 55.007 254.75C55.007 256.037 55.371 258.13 58.309 258.13ZM56.307 254.165C56.372 253.112 56.814 252.54 57.815 252.54C58.868 252.54 59.297 253.034 59.323 254.165H56.307ZM75.2849 258.13C77.3519 258.13 78.6129 257.428 78.6129 255.621C78.6129 253.918 77.6639 253.437 75.1679 252.865C73.6469 252.514 72.9709 252.228 72.9709 251.435C72.9709 250.512 73.6079 250.2 74.6479 250.2C75.4799 250.2 76.6109 250.486 77.9109 250.941V249.771C77.0399 249.342 75.8699 249.03 74.8169 249.03C72.9319 249.03 71.6709 249.706 71.6709 251.396C71.6709 252.774 72.3599 253.45 74.8949 254.035C76.3899 254.373 77.3129 254.633 77.3129 255.595C77.3129 256.713 76.4419 256.96 75.2849 256.96C74.1149 256.96 72.7629 256.518 71.5409 255.686V256.973C72.4379 257.662 74.0369 258.13 75.2849 258.13ZM85.5618 258.13C86.0558 258.13 86.4198 258.13 87.4338 257.87V256.726C86.5888 256.96 86.0818 256.96 85.5618 256.96C84.0408 256.96 83.6768 256.245 83.5858 255.335H87.8758V254.62C87.8758 252.579 87.0698 251.37 85.0678 251.37C83.0658 251.37 82.2598 252.709 82.2598 254.75C82.2598 256.037 82.6238 258.13 85.5618 258.13ZM83.5598 254.165C83.6248 253.112 84.0668 252.54 85.0678 252.54C86.1208 252.54 86.5498 253.034 86.5758 254.165H83.5598ZM94.2681 258.13C95.7891 258.13 96.7121 257.285 96.7121 256.18C96.7121 254.984 96.0101 254.581 94.0861 254.061C92.9811 253.762 92.8121 253.515 92.8121 253.151C92.8121 252.826 93.0331 252.54 93.6961 252.54C94.4111 252.54 95.2431 252.748 96.1921 253.216V252.046C95.5551 251.604 94.6971 251.37 93.8261 251.37C92.4351 251.37 91.5121 252.111 91.5121 253.19C91.5121 254.217 92.0191 254.828 93.8781 255.231C95.0741 255.491 95.4121 255.738 95.4121 256.193C95.4121 256.596 95.1131 256.96 94.2681 256.96C93.3061 256.96 92.6951 256.726 91.5121 255.985V257.298C92.4611 257.935 93.2541 258.13 94.2681 258.13ZM103.319 258.13C105.295 258.13 106.426 256.791 106.426 254.75C106.426 252.709 105.295 251.37 103.319 251.37C101.343 251.37 100.212 252.709 100.212 254.75C100.212 256.791 101.343 258.13 103.319 258.13ZM103.319 256.96C101.98 256.96 101.512 256.44 101.512 254.75C101.512 253.06 101.98 252.54 103.319 252.54C104.658 252.54 105.126 253.06 105.126 254.75C105.126 256.44 104.658 256.96 103.319 256.96ZM114.234 252.67V258H115.534V251.5H110.074V258H111.374V252.67H114.234ZM124.092 252.28C123.702 251.721 123.065 251.37 122.155 251.37C120.049 251.37 119.308 252.839 119.308 254.75C119.308 256.661 120.049 258.13 122.155 258.13C123.065 258.13 123.702 257.779 124.092 257.22V258H125.392V248.9H124.092V252.28ZM122.35 256.96C121.076 256.96 120.608 256.31 120.608 254.75C120.608 253.19 121.076 252.54 122.35 252.54C123.624 252.54 124.092 253.19 124.092 254.75C124.092 256.31 123.624 256.96 122.35 256.96ZM36.71 276.83V269.16H35.41V278H40.324V276.83H36.71ZM47.13 278.13C47.624 278.13 47.988 278.13 49.002 277.87V276.726C48.157 276.96 47.65 276.96 47.13 276.96C45.609 276.96 45.245 276.245 45.154 275.335H49.444V274.62C49.444 272.579 48.638 271.37 46.636 271.37C44.634 271.37 43.828 272.709 43.828 274.75C43.828 276.037 44.192 278.13 47.13 278.13ZM45.128 274.165C45.193 273.112 45.635 272.54 46.636 272.54C47.689 272.54 48.118 273.034 48.144 274.165H45.128ZM55.1504 278.13C56.0604 278.13 56.5674 277.87 56.9574 277.35V278H59.0374V276.7H58.2574V271.5H53.5774V272.67H56.9574V274.36C56.5674 273.84 56.0604 273.58 55.1504 273.58C53.5644 273.58 52.8234 274.724 52.8234 275.855C52.8234 276.986 53.5644 278.13 55.1504 278.13ZM55.5404 276.96C54.5914 276.96 54.1234 276.505 54.1234 275.855C54.1234 275.205 54.5914 274.75 55.5404 274.75C56.4894 274.75 56.9574 275.205 56.9574 275.855C56.9574 276.505 56.4894 276.96 55.5404 276.96ZM66.1791 271.37C65.2691 271.37 64.6321 271.721 64.2421 272.28V271.5H62.9421V280.08H64.2421V277.22C64.6321 277.779 65.2691 278.13 66.1791 278.13C68.2851 278.13 69.0261 276.661 69.0261 274.75C69.0261 272.839 68.2851 271.37 66.1791 271.37ZM65.9841 276.96C64.7101 276.96 64.2421 276.31 64.2421 274.75C64.2421 273.19 64.7101 272.54 65.9841 272.54C67.2581 272.54 67.7261 273.19 67.7261 274.75C67.7261 276.31 67.2581 276.96 65.9841 276.96Z" fill="white"/>
<path d="M37.23 300.83L39.258 298.867C40.389 297.775 40.974 297.021 40.974 295.76C40.974 294.499 40.233 293.03 38.127 293.03C36.021 293.03 35.28 294.499 35.28 296.15H36.58C36.58 294.85 37.048 294.2 38.127 294.2C39.206 294.2 39.674 294.785 39.674 295.695C39.674 296.644 39.154 297.216 37.984 298.308L35.28 300.83V302H40.844V300.83H37.23ZM47.5825 302.13C49.8185 302.13 50.5595 300.661 50.5595 299.27C50.5595 297.489 49.3505 296.67 47.7255 296.93L50.2995 294.33V293.16H44.9955V294.33H48.5835L46.2825 296.67L46.8025 297.84H47.7775C48.5965 297.84 49.2595 298.165 49.2595 299.27C49.2595 300.31 48.7915 300.96 47.5825 300.96C46.3735 300.96 45.9055 300.31 45.9055 299.27H44.6055C44.6055 300.661 45.3465 302.13 47.5825 302.13ZM58.0001 293.03C55.2961 293.03 54.4641 295.11 54.4641 297.58C54.4641 300.05 55.2961 302.13 58.0001 302.13C60.7041 302.13 61.5361 300.05 61.5361 297.58C61.5361 295.11 60.7041 293.03 58.0001 293.03ZM60.2361 297.58C60.2361 298.308 60.1841 298.906 60.0671 299.387L56.6481 294.551C56.9861 294.317 57.4281 294.2 58.0001 294.2C59.7291 294.2 60.2361 295.227 60.2361 297.58ZM55.7641 297.58C55.7641 296.865 55.8161 296.267 55.9201 295.786L59.3391 300.609C59.0141 300.843 58.5721 300.96 58.0001 300.96C56.2581 300.96 55.7641 299.933 55.7641 297.58ZM68.849 293.03C66.145 293.03 65.313 295.11 65.313 297.58C65.313 300.05 66.145 302.13 68.849 302.13C71.553 302.13 72.385 300.05 72.385 297.58C72.385 295.11 71.553 293.03 68.849 293.03ZM71.085 297.58C71.085 298.308 71.033 298.906 70.916 299.387L67.497 294.551C67.835 294.317 68.277 294.2 68.849 294.2C70.578 294.2 71.085 295.227 71.085 297.58ZM66.613 297.58C66.613 296.865 66.665 296.267 66.769 295.786L70.188 300.609C69.863 300.843 69.421 300.96 68.849 300.96C67.107 300.96 66.613 299.933 66.613 297.58ZM76.4159 297.502V298.672H80.9919V297.502H76.4159ZM86.9677 300.83L88.9957 298.867C90.1267 297.775 90.7117 297.021 90.7117 295.76C90.7117 294.499 89.9707 293.03 87.8647 293.03C85.7587 293.03 85.0177 294.499 85.0177 296.15H86.3177C86.3177 294.85 86.7857 294.2 87.8647 294.2C88.9437 294.2 89.4117 294.785 89.4117 295.695C89.4117 296.644 88.8917 297.216 87.7217 298.308L85.0177 300.83V302H90.5817V300.83H86.9677ZM97.3202 302.13C99.5562 302.13 100.297 300.661 100.297 299.27C100.297 297.489 99.0882 296.67 97.4632 296.93L100.037 294.33V293.16H94.7332V294.33H98.3212L96.0202 296.67L96.5402 297.84H97.5152C98.3342 297.84 98.9972 298.165 98.9972 299.27C98.9972 300.31 98.5292 300.96 97.3202 300.96C96.1112 300.96 95.6432 300.31 95.6432 299.27H94.3432C94.3432 300.661 95.0842 302.13 97.3202 302.13ZM107.413 302.13C109.922 302.13 110.624 300.83 110.624 299.66C110.624 298.542 110.273 297.684 108.687 297.294V297.086C109.818 296.696 110.104 296.124 110.104 295.24C110.104 294.07 109.402 293.03 107.413 293.03C105.424 293.03 104.722 294.07 104.722 295.24C104.722 296.124 105.008 296.696 106.139 297.086V297.294C104.553 297.684 104.202 298.529 104.202 299.66C104.202 300.83 104.904 302.13 107.413 302.13ZM107.413 296.605C106.386 296.605 106.022 296.098 106.022 295.435C106.022 294.642 106.386 294.2 107.413 294.2C108.427 294.2 108.804 294.642 108.804 295.435C108.804 296.098 108.427 296.605 107.413 296.605ZM107.413 300.96C105.866 300.96 105.502 300.258 105.502 299.335C105.502 298.412 105.866 297.775 107.413 297.775C108.947 297.775 109.324 298.412 109.324 299.335C109.324 300.258 108.947 300.96 107.413 300.96ZM117.705 293.03C114.767 293.03 114.403 295.383 114.403 296.67V298.36C114.403 300.648 115.209 302.13 117.51 302.13C119.811 302.13 120.617 300.661 120.617 299.01C120.617 297.359 119.811 295.89 117.705 295.89C116.795 295.89 116.093 296.371 115.703 296.8C115.703 295.643 115.742 294.2 117.705 294.2C118.225 294.2 118.862 294.2 119.707 294.434V293.29C118.693 293.03 118.199 293.03 117.705 293.03ZM117.51 297.047C118.784 297.047 119.317 297.71 119.317 299.01C119.317 300.31 118.784 300.96 117.51 300.96C116.236 300.96 115.703 299.92 115.703 298.88C115.703 297.71 116.236 297.047 117.51 297.047Z" fill="white" fill-opacity="0.33"/>
<path d="M242.299 271.066C244.989 298.07 219.883 294.086 213.606 299.841C207.33 305.597 188.5 288.742 188.5 275.05C188.5 261.359 198.811 244.947 213.606 248.489C228.401 252.03 239.609 244.062 242.299 271.066Z" fill="url(#paint8_radial_3379_1284)"/>
<circle cx="209.741" cy="275.241" r="20.2406" fill="url(#paint9_radial_3379_1284)"/>
<circle cx="217.5" cy="274" r="11" fill="url(#paint10_radial_3379_1284)"/>
<path d="M316.833 275C316.833 276.473 318.027 277.667 319.5 277.667C320.973 277.667 322.167 276.473 322.167 275C322.167 273.527 320.973 272.333 319.5 272.333C318.027 272.333 316.833 273.527 316.833 275ZM319.5 275.5L387.5 275.5L387.5 274.5L319.5 274.5L319.5 275.5Z" fill="white"/>
<path d="M42.014 19.33V18.16H35.28V19.33H37.997V27H39.297V19.33H42.014ZM45.7765 17.9V27H47.0765V21.67H49.9365V27H51.2365V20.5H47.0765V17.9H45.7765ZM58.309 27.13C58.803 27.13 59.167 27.13 60.181 26.87V25.726C59.336 25.96 58.829 25.96 58.309 25.96C56.788 25.96 56.424 25.245 56.333 24.335H60.623V23.62C60.623 21.579 59.817 20.37 57.815 20.37C55.813 20.37 55.007 21.709 55.007 23.75C55.007 25.037 55.371 27.13 58.309 27.13ZM56.307 23.165C56.372 22.112 56.814 21.54 57.815 21.54C58.868 21.54 59.297 22.034 59.323 23.165H56.307ZM76.5979 23.555V22.385H72.9709V19.33H77.3649V18.16H71.6709V27H72.9709V23.555H76.5979ZM81.136 17.9V19.2H82.436V17.9H81.136ZM81.136 20.5V27H82.436V20.5H81.136ZM90.2681 21.67V20.5H86.4721V27H87.7721V21.67H90.2681ZM96.535 27.13C98.056 27.13 98.979 26.285 98.979 25.18C98.979 23.984 98.277 23.581 96.353 23.061C95.248 22.762 95.079 22.515 95.079 22.151C95.079 21.826 95.3 21.54 95.963 21.54C96.678 21.54 97.51 21.748 98.459 22.216V21.046C97.822 20.604 96.964 20.37 96.093 20.37C94.702 20.37 93.779 21.111 93.779 22.19C93.779 23.217 94.286 23.828 96.145 24.231C97.341 24.491 97.679 24.738 97.679 25.193C97.679 25.596 97.38 25.96 96.535 25.96C95.573 25.96 94.962 25.726 93.779 24.985V26.298C94.728 26.935 95.521 27.13 96.535 27.13ZM104.438 25.83V21.67H106.154V20.5H104.438V17.9H103.138V20.5H102.098V21.67H103.138V27H106.154V25.83H104.438ZM118.501 25.83V18.16H117.201V27H122.115V25.83H118.501ZM128.921 27.13C129.415 27.13 129.779 27.13 130.793 26.87V25.726C129.948 25.96 129.441 25.96 128.921 25.96C127.4 25.96 127.036 25.245 126.945 24.335H131.235V23.62C131.235 21.579 130.429 20.37 128.427 20.37C126.425 20.37 125.619 21.709 125.619 23.75C125.619 25.037 125.983 27.13 128.921 27.13ZM126.919 23.165C126.984 22.112 127.426 21.54 128.427 21.54C129.48 21.54 129.909 22.034 129.935 23.165H126.919ZM136.941 27.13C137.851 27.13 138.358 26.87 138.748 26.35V27H140.828V25.7H140.048V20.5H135.368V21.67H138.748V23.36C138.358 22.84 137.851 22.58 136.941 22.58C135.355 22.58 134.614 23.724 134.614 24.855C134.614 25.986 135.355 27.13 136.941 27.13ZM137.331 25.96C136.382 25.96 135.914 25.505 135.914 24.855C135.914 24.205 136.382 23.75 137.331 23.75C138.28 23.75 138.748 24.205 138.748 24.855C138.748 25.505 138.28 25.96 137.331 25.96ZM147.97 20.37C147.06 20.37 146.423 20.721 146.033 21.28V20.5H144.733V29.08H146.033V26.22C146.423 26.779 147.06 27.13 147.97 27.13C150.076 27.13 150.817 25.661 150.817 23.75C150.817 21.839 150.076 20.37 147.97 20.37ZM147.775 25.96C146.501 25.96 146.033 25.31 146.033 23.75C146.033 22.19 146.501 21.54 147.775 21.54C149.049 21.54 149.517 22.19 149.517 23.75C149.517 25.31 149.049 25.96 147.775 25.96Z" fill="white"/>
<path d="M37.23 49.83L39.258 47.867C40.389 46.775 40.974 46.021 40.974 44.76C40.974 43.499 40.233 42.03 38.127 42.03C36.021 42.03 35.28 43.499 35.28 45.15H36.58C36.58 43.85 37.048 43.2 38.127 43.2C39.206 43.2 39.674 43.785 39.674 44.695C39.674 45.644 39.154 46.216 37.984 47.308L35.28 49.83V51H40.844V49.83H37.23ZM47.5825 51.13C49.8185 51.13 50.5595 49.661 50.5595 48.27C50.5595 46.489 49.3505 45.67 47.7255 45.93L50.2995 43.33V42.16H44.9955V43.33H48.5835L46.2825 45.67L46.8025 46.84H47.7775C48.5965 46.84 49.2595 47.165 49.2595 48.27C49.2595 49.31 48.7915 49.96 47.5825 49.96C46.3735 49.96 45.9055 49.31 45.9055 48.27H44.6055C44.6055 49.661 45.3465 51.13 47.5825 51.13ZM58.0001 42.03C55.2961 42.03 54.4641 44.11 54.4641 46.58C54.4641 49.05 55.2961 51.13 58.0001 51.13C60.7041 51.13 61.5361 49.05 61.5361 46.58C61.5361 44.11 60.7041 42.03 58.0001 42.03ZM60.2361 46.58C60.2361 47.308 60.1841 47.906 60.0671 48.387L56.6481 43.551C56.9861 43.317 57.4281 43.2 58.0001 43.2C59.7291 43.2 60.2361 44.227 60.2361 46.58ZM55.7641 46.58C55.7641 45.865 55.8161 45.267 55.9201 44.786L59.3391 49.609C59.0141 49.843 58.5721 49.96 58.0001 49.96C56.2581 49.96 55.7641 48.933 55.7641 46.58ZM68.849 42.03C66.145 42.03 65.313 44.11 65.313 46.58C65.313 49.05 66.145 51.13 68.849 51.13C71.553 51.13 72.385 49.05 72.385 46.58C72.385 44.11 71.553 42.03 68.849 42.03ZM71.085 46.58C71.085 47.308 71.033 47.906 70.916 48.387L67.497 43.551C67.835 43.317 68.277 43.2 68.849 43.2C70.578 43.2 71.085 44.227 71.085 46.58ZM66.613 46.58C66.613 45.865 66.665 45.267 66.769 44.786L70.188 49.609C69.863 49.843 69.421 49.96 68.849 49.96C67.107 49.96 66.613 48.933 66.613 46.58ZM76.4159 46.502V47.672H80.9919V46.502H76.4159ZM86.9677 49.83L88.9957 47.867C90.1267 46.775 90.7117 46.021 90.7117 44.76C90.7117 43.499 89.9707 42.03 87.8647 42.03C85.7587 42.03 85.0177 43.499 85.0177 45.15H86.3177C86.3177 43.85 86.7857 43.2 87.8647 43.2C88.9437 43.2 89.4117 43.785 89.4117 44.695C89.4117 45.644 88.8917 46.216 87.7217 47.308L85.0177 49.83V51H90.5817V49.83H86.9677ZM97.3202 51.13C99.5562 51.13 100.297 49.661 100.297 48.27C100.297 46.489 99.0882 45.67 97.4632 45.93L100.037 43.33V42.16H94.7332V43.33H98.3212L96.0202 45.67L96.5402 46.84H97.5152C98.3342 46.84 98.9972 47.165 98.9972 48.27C98.9972 49.31 98.5292 49.96 97.3202 49.96C96.1112 49.96 95.6432 49.31 95.6432 48.27H94.3432C94.3432 49.661 95.0842 51.13 97.3202 51.13ZM107.413 51.13C109.922 51.13 110.624 49.83 110.624 48.66C110.624 47.542 110.273 46.684 108.687 46.294V46.086C109.818 45.696 110.104 45.124 110.104 44.24C110.104 43.07 109.402 42.03 107.413 42.03C105.424 42.03 104.722 43.07 104.722 44.24C104.722 45.124 105.008 45.696 106.139 46.086V46.294C104.553 46.684 104.202 47.529 104.202 48.66C104.202 49.83 104.904 51.13 107.413 51.13ZM107.413 45.605C106.386 45.605 106.022 45.098 106.022 44.435C106.022 43.642 106.386 43.2 107.413 43.2C108.427 43.2 108.804 43.642 108.804 44.435C108.804 45.098 108.427 45.605 107.413 45.605ZM107.413 49.96C105.866 49.96 105.502 49.258 105.502 48.335C105.502 47.412 105.866 46.775 107.413 46.775C108.947 46.775 109.324 47.412 109.324 48.335C109.324 49.258 108.947 49.96 107.413 49.96ZM117.705 42.03C114.767 42.03 114.403 44.383 114.403 45.67V47.36C114.403 49.648 115.209 51.13 117.51 51.13C119.811 51.13 120.617 49.661 120.617 48.01C120.617 46.359 119.811 44.89 117.705 44.89C116.795 44.89 116.093 45.371 115.703 45.8C115.703 44.643 115.742 43.2 117.705 43.2C118.225 43.2 118.862 43.2 119.707 43.434V42.29C118.693 42.03 118.199 42.03 117.705 42.03ZM117.51 46.047C118.784 46.047 119.317 46.71 119.317 48.01C119.317 49.31 118.784 49.96 117.51 49.96C116.236 49.96 115.703 48.92 115.703 47.88C115.703 46.71 116.236 46.047 117.51 46.047Z" fill="white" fill-opacity="0.33"/>
<path d="M243.5 33C246.5 63.5 232.5 43.5 215.5 61C198.5 78.5 187.5 48.464 187.5 33C187.5 17.536 200.5 -7.49976 216.5 2.50001C232.5 12.4998 240.5 2.50001 243.5 33Z" fill="url(#paint11_radial_3379_1284)"/>
<circle cx="207.741" cy="32.2406" r="20.2406" fill="url(#paint12_radial_3379_1284)"/>
<circle cx="213.145" cy="28.6447" r="20.6447" fill="url(#paint13_radial_3379_1284)"/>
<circle cx="216.5" cy="32" r="11" fill="url(#paint14_radial_3379_1284)"/>
<path d="M316.833 34C316.833 35.4728 318.027 36.6667 319.5 36.6667C320.973 36.6667 322.167 35.4728 322.167 34C322.167 32.5272 320.973 31.3333 319.5 31.3333C318.027 31.3333 316.833 32.5272 316.833 34ZM319.5 34.5L387.5 34.5L387.5 33.5L319.5 33.5L319.5 34.5Z" fill="white"/>
<path opacity="0.3" d="M382.5 415.5L0.5 415.5" stroke="#FFA753" stroke-dasharray="6 8"/>
<path opacity="0.3" d="M382.5 773L0.5 773" stroke="#FFA753" stroke-dasharray="6 8"/>
<defs>
<filter id="filter0_f_3379_1284" x="154.293" y="524.468" width="123.792" height="138.709" filterUnits="userSpaceOnUse" color-interpolation-filters="sRGB">
<feFlood flood-opacity="0" result="BackgroundImageFix"/>
<feBlend mode="normal" in="SourceGraphic" in2="BackgroundImageFix" result="shape"/>
<feGaussianBlur stdDeviation="1.79448" result="effect1_foregroundBlur_3379_1284"/>
</filter>
<filter id="filter1_f_3379_1284" x="162.66" y="816.053" width="104.806" height="96.0556" filterUnits="userSpaceOnUse" color-interpolation-filters="sRGB">
<feFlood flood-opacity="0" result="BackgroundImageFix"/>
<feBlend mode="normal" in="SourceGraphic" in2="BackgroundImageFix" result="shape"/>
<feGaussianBlur stdDeviation="4.98264" result="effect1_foregroundBlur_3379_1284"/>
</filter>
<filter id="filter2_f_3379_1284" x="160.91" y="816.053" width="104.806" height="96.0556" filterUnits="userSpaceOnUse" color-interpolation-filters="sRGB">
<feFlood flood-opacity="0" result="BackgroundImageFix"/>
<feBlend mode="normal" in="SourceGraphic" in2="BackgroundImageFix" result="shape"/>
<feGaussianBlur stdDeviation="4.98264" result="effect1_foregroundBlur_3379_1284"/>
</filter>
<filter id="filter3_f_3379_1284" x="162.66" y="822.178" width="104.806" height="96.0556" filterUnits="userSpaceOnUse" color-interpolation-filters="sRGB">
<feFlood flood-opacity="0" result="BackgroundImageFix"/>
<feBlend mode="normal" in="SourceGraphic" in2="BackgroundImageFix" result="shape"/>
<feGaussianBlur stdDeviation="4.98264" result="effect1_foregroundBlur_3379_1284"/>
</filter>
<radialGradient id="paint0_radial_3379_1284" cx="0" cy="0" r="1" gradientUnits="userSpaceOnUse" gradientTransform="translate(216.689 594.782) rotate(120) scale(47.5346 40.5613)">
<stop offset="0.454023" stop-opacity="0"/>
<stop offset="0.689655" stop-color="#150C2D" stop-opacity="0.585167"/>
<stop offset="0.877395" stop-color="#4D2215"/>
<stop offset="0.979203" stop-color="#FFA753"/>
<stop offset="1" stop-color="white"/>
</radialGradient>
<radialGradient id="paint1_radial_3379_1284" cx="0" cy="0" r="1" gradientUnits="userSpaceOnUse" gradientTransform="translate(214.206 594.396) rotate(90) scale(73.5736 63.0631)">
<stop offset="0.454023" stop-opacity="0"/>
<stop offset="0.689655" stop-color="#150C2D" stop-opacity="0"/>
<stop offset="0.877395" stop-color="#E87E67"/>
<stop offset="0.979203" stop-color="#FFA753"/>
<stop offset="1" stop-color="white"/>
</radialGradient>
<radialGradient id="paint2_radial_3379_1284" cx="0" cy="0" r="1" gradientUnits="userSpaceOnUse" gradientTransform="translate(217.797 594.498) rotate(118.809) scale(23.4475 22.3383)">
<stop offset="0.321881" stop-color="white"/>
<stop offset="0.63576" stop-color="#FFE0C2"/>
<stop offset="0.827086" stop-color="#FA05FF" stop-opacity="0.06"/>
<stop offset="1" stop-color="#FF7A00" stop-opacity="0"/>
</radialGradient>
<radialGradient id="paint3_radial_3379_1284" cx="0" cy="0" r="1" gradientUnits="userSpaceOnUse" gradientTransform="translate(207.365 589.943) rotate(25.8892) scale(25.5609)">
<stop offset="0.697917" stop-color="white"/>
<stop offset="0.870764" stop-color="#FFD9B6"/>
<stop offset="0.932292" stop-color="#8B5243"/>
</radialGradient>
<radialGradient id="paint4_radial_3379_1284" cx="0" cy="0" r="1" gradientUnits="userSpaceOnUse" gradientTransform="translate(214.321 864.772) rotate(61.1902) scale(44.203 44.534)">
<stop offset="0.454023" stop-opacity="0"/>
<stop offset="0.689655" stop-color="#0C102D" stop-opacity="0.585167"/>
<stop offset="0.746122" stop-color="#31154D"/>
<stop offset="0.830104" stop-color="#FF9153"/>
<stop offset="0.874171" stop-color="white"/>
</radialGradient>
<radialGradient id="paint5_radial_3379_1284" cx="0" cy="0" r="1" gradientUnits="userSpaceOnUse" gradientTransform="translate(212.571 864.772) rotate(61.1902) scale(44.203 44.534)">
<stop offset="0.454023" stop-opacity="0"/>
<stop offset="0.689655" stop-color="#0C102D" stop-opacity="0.585167"/>
<stop offset="0.746122" stop-color="#31154D"/>
<stop offset="0.830104" stop-color="#FF9153"/>
<stop offset="0.874171" stop-color="white"/>
</radialGradient>
<radialGradient id="paint6_radial_3379_1284" cx="0" cy="0" r="1" gradientUnits="userSpaceOnUse" gradientTransform="translate(215.5 871.081) rotate(62.4354) scale(43.4844 43.81)">
<stop offset="0.373081" stop-opacity="0"/>
<stop offset="0.689655" stop-color="#0C102D" stop-opacity="0.585167"/>
<stop offset="0.746122" stop-color="#31154D"/>
<stop offset="0.830104" stop-color="#FF9153"/>
<stop offset="0.874171" stop-color="white"/>
</radialGradient>
<radialGradient id="paint7_radial_3379_1284" cx="0" cy="0" r="1" gradientUnits="userSpaceOnUse" gradientTransform="translate(212.945 868.144) rotate(-63.6388) scale(33.3467 31.7692)">
<stop offset="0.299997"/>
<stop offset="0.302304" stop-color="#FF7A00" stop-opacity="0"/>
<stop offset="0.436695" stop-color="#FFE0C2"/>
<stop offset="1" stop-color="#050FFF" stop-opacity="0"/>
</radialGradient>
<radialGradient id="paint8_radial_3379_1284" cx="0" cy="0" r="1" gradientUnits="userSpaceOnUse" gradientTransform="translate(213.606 275.05) rotate(60.1466) scale(29.9202 30.3008)">
<stop offset="0.454023" stop-opacity="0"/>
<stop offset="0.689655" stop-color="#0C102D" stop-opacity="0.585167"/>
<stop offset="0.877395" stop-color="#153F4D"/>
<stop offset="0.979203" stop-color="#FF9153"/>
<stop offset="1" stop-color="white"/>
</radialGradient>
<radialGradient id="paint9_radial_3379_1284" cx="0" cy="0" r="1" gradientUnits="userSpaceOnUse" gradientTransform="translate(215.76 274.498) rotate(118.809) scale(17.8698 17.0245)">
<stop offset="0.55564" stop-color="#FFE0C2"/>
<stop offset="0.645833" stop-color="white"/>
<stop offset="0.842178" stop-color="#FA05FF" stop-opacity="0"/>
<stop offset="1" stop-color="#FF7A00" stop-opacity="0"/>
</radialGradient>
<radialGradient id="paint10_radial_3379_1284" cx="0" cy="0" r="1" gradientUnits="userSpaceOnUse" gradientTransform="translate(210.344 270.023) rotate(25.8892) scale(20.1813)">
<stop offset="0.822063" stop-color="white"/>
<stop offset="0.870764" stop-color="#FFEEB3"/>
<stop offset="0.932292" stop-color="#D37642"/>
</radialGradient>
<radialGradient id="paint11_radial_3379_1284" cx="0" cy="0" r="1" gradientUnits="userSpaceOnUse" gradientTransform="translate(215.5 33) rotate(93.4682) scale(33.0605 33.0605)">
<stop offset="0.454023" stop-opacity="0"/>
<stop offset="0.689655" stop-color="#150C2D" stop-opacity="0.585167"/>
<stop offset="0.877395" stop-color="#234D15"/>
<stop offset="0.979203" stop-color="#FF9153"/>
<stop offset="1" stop-color="white"/>
</radialGradient>
<radialGradient id="paint12_radial_3379_1284" cx="0" cy="0" r="1" gradientUnits="userSpaceOnUse" gradientTransform="translate(213.76 31.4977) rotate(118.809) scale(17.8698 17.0245)">
<stop offset="0.55564" stop-color="#FFE0C2"/>
<stop offset="0.645833" stop-color="white"/>
<stop offset="0.842178" stop-color="#FA05FF" stop-opacity="0"/>
<stop offset="1" stop-color="#52FF00" stop-opacity="0"/>
</radialGradient>
<radialGradient id="paint13_radial_3379_1284" cx="0" cy="0" r="1" gradientUnits="userSpaceOnUse" gradientTransform="translate(218.691 28.6445) rotate(-63.6388) scale(16.342 15.5689)">
<stop offset="0.307302" stop-color="white"/>
<stop offset="0.321986" stop-color="#FF7A00" stop-opacity="0"/>
<stop offset="0.436695" stop-color="#D2FFC2"/>
<stop offset="1" stop-color="#05FFC3" stop-opacity="0"/>
</radialGradient>
<radialGradient id="paint14_radial_3379_1284" cx="0" cy="0" r="1" gradientUnits="userSpaceOnUse" gradientTransform="translate(209.344 28.0229) rotate(25.8892) scale(20.1813)">
<stop offset="0.822063" stop-color="white"/>
<stop offset="0.870764" stop-color="#FFEEB3"/>
<stop offset="0.932292" stop-color="#D37642"/>
</radialGradient>
</defs>
</svg>
