<svg xmlns="http://www.w3.org/2000/svg" width="386" height="919" fill="none"><path stroke="#fff" stroke-dasharray="1 11" stroke-width="11" d="M383 34v834" opacity=".33"/><path stroke="#FFA753" stroke-dasharray="1 11" stroke-width="11" d="M383 415v358"/><path fill="#FFA753" d="M42.014 559.33v-1.17H35.28v1.17h2.717V567h1.3v-7.67h2.717Zm3.762-1.43v9.1h1.3v-5.33h2.86V567h1.3v-6.5h-4.16v-2.6h-1.3Zm12.533 9.23c.494 0 .858 0 1.872-.26v-1.144c-.845.234-1.352.234-1.872.234-1.521 0-1.885-.715-1.976-1.625h4.29v-.715c0-2.041-.806-3.25-2.808-3.25s-2.808 1.339-2.808 3.38c0 1.287.364 3.38 3.302 3.38Zm-2.002-3.965c.065-1.053.507-1.625 1.508-1.625 1.053 0 1.482.494 1.508 1.625h-3.016Zm16.664 2.665v-2.795h3.354v-1.17H72.97v-2.535h4.394v-1.17H71.67V567h5.694v-1.17H72.97Zm12.098-4.16v-1.17h-3.796v6.5h1.3v-5.33h2.496Zm5.454 5.46c.91 0 1.417-.26 1.807-.78v.65h2.08v-1.3h-.78v-5.2h-4.68v1.17h3.38v1.69c-.39-.52-.897-.78-1.807-.78-1.586 0-2.327 1.144-2.327 2.275s.74 2.275 2.327 2.275Zm.39-1.17c-.95 0-1.417-.455-1.417-1.105 0-.65.468-1.105 1.417-1.105.949 0 1.417.455 1.417 1.105 0 .65-.468 1.105-1.417 1.105Zm-52.656 21.17c1.976 0 3.107-1.339 3.107-3.38s-1.131-3.38-3.107-3.38c-1.976 0-3.107 1.339-3.107 3.38s1.131 3.38 3.107 3.38Zm0-1.17c-1.339 0-1.807-.52-1.807-2.21s.468-2.21 1.807-2.21 1.807.52 1.807 2.21-.468 2.21-1.807 2.21Zm10.417-4.29v-1.17h-1.846v-1.43h1.846v-1.17h-3.146v2.6h-1.04v1.17h1.04V587h1.3v-5.33h1.846Zm13.123 4.16v-4.16h1.717v-1.17h-1.717v-2.6h-1.3v2.6h-1.04v1.17h1.04V587h3.017v-1.17h-1.717Zm5.748-7.93v9.1h1.3v-5.33h2.86V587h1.3v-6.5h-4.16v-2.6h-1.3Zm12.532 9.23c.494 0 .858 0 1.872-.26v-1.144c-.845.234-1.352.234-1.872.234-1.52 0-1.885-.715-1.976-1.625h4.29v-.715c0-2.041-.806-3.25-2.808-3.25s-2.808 1.339-2.808 3.38c0 1.287.364 3.38 3.302 3.38Zm-2.002-3.965c.065-1.053.507-1.625 1.508-1.625 1.053 0 1.482.494 1.508 1.625h-3.016Zm18.9 3.965c1.612 0 2.12-.858 2.353-1.365h.208V587h1.3v-4.407H96.13v1.17h3.406c-.13 1.144-.793 2.197-2.3 2.197-1.873 0-2.757-.897-2.757-3.38 0-2.483.754-3.38 2.626-3.38 1.508 0 2.08.793 2.184 1.937h1.287c-.13-1.82-1.313-3.107-3.47-3.107-2.835 0-3.927 2.21-3.927 4.55s1.092 4.55 3.796 4.55Zm11.563-5.46v-1.17h-3.796v6.5h1.3v-5.33h2.496Zm6.493 5.46c.494 0 .858 0 1.872-.26v-1.144c-.845.234-1.352.234-1.872.234-1.521 0-1.885-.715-1.976-1.625h4.29v-.715c0-2.041-.806-3.25-2.808-3.25s-2.808 1.339-2.808 3.38c0 1.287.364 3.38 3.302 3.38Zm-2.002-3.965c.065-1.053.507-1.625 1.508-1.625 1.053 0 1.482.494 1.508 1.625h-3.016Zm10.022 3.965c.91 0 1.417-.26 1.807-.78v.65h2.08v-1.3h-.78v-5.2h-4.68v1.17h3.38v1.69c-.39-.52-.897-.78-1.807-.78-1.586 0-2.327 1.144-2.327 2.275s.741 2.275 2.327 2.275Zm.39-1.17c-.949 0-1.417-.455-1.417-1.105 0-.65.468-1.105 1.417-1.105.949 0 1.417.455 1.417 1.105 0 .65-.468 1.105-1.417 1.105Zm8.822-.13v-4.16h1.716v-1.17h-1.716v-2.6h-1.3v2.6h-1.04v1.17h1.04V587h3.016v-1.17h-1.716Zm-95.553 20v-7.67h-1.3V607h4.914v-1.17H36.71Zm10.42 1.3c.494 0 .858 0 1.872-.26v-1.144c-.845.234-1.352.234-1.872.234-1.521 0-1.885-.715-1.976-1.625h4.29v-.715c0-2.041-.806-3.25-2.808-3.25s-2.808 1.339-2.808 3.38c0 1.287.364 3.38 3.302 3.38Zm-2.002-3.965c.065-1.053.507-1.625 1.508-1.625 1.053 0 1.482.494 1.508 1.625h-3.016Zm10.022 3.965c.91 0 1.417-.26 1.807-.78v.65h2.08v-1.3h-.78v-5.2h-4.68v1.17h3.38v1.69c-.39-.52-.897-.78-1.807-.78-1.586 0-2.327 1.144-2.327 2.275s.741 2.275 2.327 2.275Zm.39-1.17c-.949 0-1.417-.455-1.417-1.105 0-.65.468-1.105 1.417-1.105.95 0 1.417.455 1.417 1.105 0 .65-.468 1.105-1.417 1.105Zm10.64-5.59c-.91 0-1.548.351-1.938.91v-.78h-1.3v8.58h1.3v-2.86c.39.559 1.027.91 1.937.91 2.106 0 2.847-1.469 2.847-3.38 0-1.911-.74-3.38-2.847-3.38Zm-.196 5.59c-1.274 0-1.742-.65-1.742-2.21s.468-2.21 1.742-2.21 1.742.65 1.742 2.21-.468 2.21-1.742 2.21Z"/><path fill="#fff" fill-opacity=".33" d="m37.23 629.83 2.028-1.963c1.131-1.092 1.716-1.846 1.716-3.107 0-1.261-.741-2.73-2.847-2.73s-2.847 1.469-2.847 3.12h1.3c0-1.3.468-1.95 1.547-1.95s1.547.585 1.547 1.495c0 .949-.52 1.521-1.69 2.613l-2.704 2.522V631h5.564v-1.17H37.23Zm10.353 1.3c2.236 0 2.977-1.469 2.977-2.86 0-1.781-1.21-2.6-2.835-2.34l2.575-2.6v-1.17h-5.304v1.17h3.587l-2.3 2.34.52 1.17h.975c.819 0 1.482.325 1.482 1.43 0 1.04-.468 1.69-1.677 1.69-1.21 0-1.677-.65-1.677-1.69h-1.3c0 1.391.74 2.86 2.977 2.86ZM58 622.03c-2.704 0-3.536 2.08-3.536 4.55 0 2.47.832 4.55 3.536 4.55s3.536-2.08 3.536-4.55c0-2.47-.832-4.55-3.536-4.55Zm2.236 4.55c0 .728-.052 1.326-.169 1.807l-3.419-4.836c.338-.234.78-.351 1.352-.351 1.73 0 2.236 1.027 2.236 3.38Zm-4.472 0c0-.715.052-1.313.156-1.794l3.42 4.823c-.326.234-.768.351-1.34.351-1.742 0-2.236-1.027-2.236-3.38Zm13.085-4.55c-2.704 0-3.536 2.08-3.536 4.55 0 2.47.832 4.55 3.536 4.55s3.536-2.08 3.536-4.55c0-2.47-.832-4.55-3.536-4.55Zm2.236 4.55c0 .728-.052 1.326-.169 1.807l-3.419-4.836c.338-.234.78-.351 1.352-.351 1.729 0 2.236 1.027 2.236 3.38Zm-4.472 0c0-.715.052-1.313.156-1.794l3.419 4.823c-.325.234-.767.351-1.339.351-1.742 0-2.236-1.027-2.236-3.38Zm9.803-.078v1.17h4.576v-1.17h-4.576Zm10.552 3.328 2.028-1.963c1.13-1.092 1.716-1.846 1.716-3.107 0-1.261-.741-2.73-2.847-2.73s-2.847 1.469-2.847 3.12h1.3c0-1.3.468-1.95 1.547-1.95s1.547.585 1.547 1.495c0 .949-.52 1.521-1.69 2.613l-2.704 2.522V631h5.564v-1.17h-3.614Zm10.352 1.3c2.236 0 2.977-1.469 2.977-2.86 0-1.781-1.209-2.6-2.834-2.34l2.574-2.6v-1.17h-5.304v1.17h3.588l-2.3 2.34.52 1.17h.974c.82 0 1.482.325 1.482 1.43 0 1.04-.468 1.69-1.677 1.69s-1.677-.65-1.677-1.69h-1.3c0 1.391.741 2.86 2.977 2.86Zm10.093 0c2.509 0 3.211-1.3 3.211-2.47 0-1.118-.351-1.976-1.937-2.366v-.208c1.131-.39 1.417-.962 1.417-1.846 0-1.17-.702-2.21-2.691-2.21-1.989 0-2.691 1.04-2.691 2.21 0 .884.286 1.456 1.417 1.846v.208c-1.586.39-1.937 1.235-1.937 2.366 0 1.17.702 2.47 3.211 2.47Zm0-5.525c-1.027 0-1.391-.507-1.391-1.17 0-.793.364-1.235 1.391-1.235 1.014 0 1.391.442 1.391 1.235 0 .663-.377 1.17-1.391 1.17Zm0 4.355c-1.547 0-1.911-.702-1.911-1.625s.364-1.56 1.911-1.56c1.534 0 1.911.637 1.911 1.56s-.377 1.625-1.911 1.625Zm10.292-7.93c-2.938 0-3.302 2.353-3.302 3.64v1.69c0 2.288.806 3.77 3.107 3.77s3.107-1.469 3.107-3.12-.806-3.12-2.912-3.12c-.91 0-1.612.481-2.002.91 0-1.157.039-2.6 2.002-2.6.52 0 1.157 0 2.002.234v-1.144c-1.014-.26-1.508-.26-2.002-.26Zm-.195 4.017c1.274 0 1.807.663 1.807 1.963s-.533 1.95-1.807 1.95-1.807-1.04-1.807-2.08c0-1.17.533-1.833 1.807-1.833Z"/><path fill="url(#a)" d="M251.649 614.531c-18.275 40.321-21.344 5.191-55.249 14.805-33.906 9.613-25.973-35.905-14.804-55.25 11.168-19.345 45.513-41.274 58.306-17.209s30.023 17.334 11.747 57.654Z"/><g filter="url(#b)"><path fill="url(#c)" d="M267.263 593.901c-30.447 36.025-20.997 19.952-53.446 53.206-32.449 33.254-37.652-5.25-53.446-53.206-15.793-47.956 48.451-30.729 55.355-57.957 6.903-27.228 81.983 21.931 51.537 57.957Z"/></g><circle cx="209.899" cy="595.472" r="26.558" fill="url(#d)"/><circle cx="216.428" cy="594.98" r="13.932" fill="url(#e)"/><path fill="#FFA753" d="M316.833 594a2.667 2.667 0 1 0 5.334 0 2.667 2.667 0 0 0-5.334 0Zm2.667.5h68v-1h-68v1Z"/><path fill="#fff" d="M42.014 843.33v-1.17H35.28v1.17h2.717V851h1.3v-7.67h2.717Zm3.762-1.43v9.1h1.3v-5.33h2.86V851h1.3v-6.5h-4.16v-2.6h-1.3Zm12.533 9.23c.494 0 .858 0 1.872-.26v-1.144c-.845.234-1.352.234-1.872.234-1.521 0-1.885-.715-1.976-1.625h4.29v-.715c0-2.041-.806-3.25-2.808-3.25s-2.808 1.339-2.808 3.38c0 1.287.364 3.38 3.302 3.38Zm-2.002-3.965c.065-1.053.507-1.625 1.508-1.625 1.053 0 1.482.494 1.508 1.625h-3.016Zm16.664 2.665v-7.67h-1.3V851h4.914v-1.17H72.97Zm10.42 1.3c.494 0 .858 0 1.872-.26v-1.144c-.845.234-1.352.234-1.872.234-1.521 0-1.885-.715-1.976-1.625h4.29v-.715c0-2.041-.806-3.25-2.808-3.25s-2.808 1.339-2.808 3.38c0 1.287.364 3.38 3.302 3.38Zm-2.002-3.965c.065-1.053.507-1.625 1.508-1.625 1.053 0 1.482.494 1.508 1.625h-3.016Zm10.022 3.965c.91 0 1.417-.26 1.807-.78v.65h2.08v-1.3h-.78v-5.2h-4.68v1.17h3.38v1.69c-.39-.52-.897-.78-1.807-.78-1.586 0-2.327 1.144-2.327 2.275s.741 2.275 2.327 2.275Zm.39-1.17c-.949 0-1.417-.455-1.417-1.105 0-.65.468-1.105 1.417-1.105.95 0 1.417.455 1.417 1.105 0 .65-.468 1.105-1.417 1.105Zm10.639-5.59c-.91 0-1.547.351-1.937.91v-.78h-1.3v8.58h1.3v-2.86c.39.559 1.027.91 1.937.91 2.106 0 2.847-1.469 2.847-3.38 0-1.911-.741-3.38-2.847-3.38Zm-.195 5.59c-1.274 0-1.742-.65-1.742-2.21s.468-2.21 1.742-2.21 1.742.65 1.742 2.21-.468 2.21-1.742 2.21Zm-63.988 21.17c1.976 0 3.107-1.339 3.107-3.38s-1.131-3.38-3.107-3.38c-1.976 0-3.107 1.339-3.107 3.38s1.131 3.38 3.107 3.38Zm0-1.17c-1.339 0-1.807-.52-1.807-2.21s.468-2.21 1.807-2.21 1.807.52 1.807 2.21-.468 2.21-1.807 2.21Zm10.417-4.29v-1.17h-1.846v-1.43h1.846v-1.17h-3.146v2.6h-1.04v1.17h1.04V871h1.3v-5.33h1.846Zm12.551-.988L65.438 871h1.3v-8.84h-1.3v6.318h-.207l-4.213-6.318h-1.3V871h1.3v-6.318h.208Zm11.738 6.448c.91 0 1.417-.26 1.807-.78v.65h2.08v-1.3h-.78v-5.2h-4.68v1.17h3.38v1.69c-.39-.52-.897-.78-1.807-.78-1.586 0-2.327 1.144-2.327 2.275s.741 2.275 2.327 2.275Zm.39-1.17c-.949 0-1.417-.455-1.417-1.105 0-.65.468-1.105 1.417-1.105.95 0 1.417.455 1.417 1.105 0 .65-.468 1.105-1.417 1.105Zm9.577-1.612L84.75 871h1.573l-2.223-3.237 2.223-3.263H84.75l-1.82 2.678h-1.015V861.9h-1.3v9.1h1.3v-2.652h1.014Zm9.818 2.782c1.911 0 2.912-.819 2.912-2.99v-3.64h-1.3v3.9c0 1.17-.468 1.56-1.612 1.56-1.144 0-1.612-.39-1.612-1.56v-3.9h-1.3v3.64c0 2.171 1.001 2.99 2.912 2.99Z"/><path fill="#fff" fill-opacity=".33" d="m37.23 893.83 2.028-1.963c1.131-1.092 1.716-1.846 1.716-3.107 0-1.261-.741-2.73-2.847-2.73s-2.847 1.469-2.847 3.12h1.3c0-1.3.468-1.95 1.547-1.95s1.547.585 1.547 1.495c0 .949-.52 1.521-1.69 2.613l-2.704 2.522V895h5.564v-1.17H37.23Zm10.353 1.3c2.236 0 2.977-1.469 2.977-2.86 0-1.781-1.21-2.6-2.835-2.34l2.575-2.6v-1.17h-5.304v1.17h3.587l-2.3 2.34.52 1.17h.975c.819 0 1.482.325 1.482 1.43 0 1.04-.468 1.69-1.677 1.69-1.21 0-1.677-.65-1.677-1.69h-1.3c0 1.391.74 2.86 2.977 2.86ZM58 886.03c-2.704 0-3.536 2.08-3.536 4.55 0 2.47.832 4.55 3.536 4.55s3.536-2.08 3.536-4.55c0-2.47-.832-4.55-3.536-4.55Zm2.236 4.55c0 .728-.052 1.326-.169 1.807l-3.419-4.836c.338-.234.78-.351 1.352-.351 1.73 0 2.236 1.027 2.236 3.38Zm-4.472 0c0-.715.052-1.313.156-1.794l3.42 4.823c-.326.234-.768.351-1.34.351-1.742 0-2.236-1.027-2.236-3.38Zm13.085-4.55c-2.704 0-3.536 2.08-3.536 4.55 0 2.47.832 4.55 3.536 4.55s3.536-2.08 3.536-4.55c0-2.47-.832-4.55-3.536-4.55Zm2.236 4.55c0 .728-.052 1.326-.169 1.807l-3.419-4.836c.338-.234.78-.351 1.352-.351 1.729 0 2.236 1.027 2.236 3.38Zm-4.472 0c0-.715.052-1.313.156-1.794l3.419 4.823c-.325.234-.767.351-1.339.351-1.742 0-2.236-1.027-2.236-3.38Zm9.803-.078v1.17h4.576v-1.17h-4.576Zm10.552 3.328 2.028-1.963c1.13-1.092 1.716-1.846 1.716-3.107 0-1.261-.741-2.73-2.847-2.73s-2.847 1.469-2.847 3.12h1.3c0-1.3.468-1.95 1.547-1.95s1.547.585 1.547 1.495c0 .949-.52 1.521-1.69 2.613l-2.704 2.522V895h5.564v-1.17h-3.614Zm10.352 1.3c2.236 0 2.977-1.469 2.977-2.86 0-1.781-1.209-2.6-2.834-2.34l2.574-2.6v-1.17h-5.304v1.17h3.588l-2.3 2.34.52 1.17h.974c.82 0 1.482.325 1.482 1.43 0 1.04-.468 1.69-1.677 1.69s-1.677-.65-1.677-1.69h-1.3c0 1.391.741 2.86 2.977 2.86Zm10.093 0c2.509 0 3.211-1.3 3.211-2.47 0-1.118-.351-1.976-1.937-2.366v-.208c1.131-.39 1.417-.962 1.417-1.846 0-1.17-.702-2.21-2.691-2.21-1.989 0-2.691 1.04-2.691 2.21 0 .884.286 1.456 1.417 1.846v.208c-1.586.39-1.937 1.235-1.937 2.366 0 1.17.702 2.47 3.211 2.47Zm0-5.525c-1.027 0-1.391-.507-1.391-1.17 0-.793.364-1.235 1.391-1.235 1.014 0 1.391.442 1.391 1.235 0 .663-.377 1.17-1.391 1.17Zm0 4.355c-1.547 0-1.911-.702-1.911-1.625s.364-1.56 1.911-1.56c1.534 0 1.911.637 1.911 1.56s-.377 1.625-1.911 1.625Zm10.292-7.93c-2.938 0-3.302 2.353-3.302 3.64v1.69c0 2.288.806 3.77 3.107 3.77s3.107-1.469 3.107-3.12-.806-3.12-2.912-3.12c-.91 0-1.612.481-2.002.91 0-1.157.039-2.6 2.002-2.6.52 0 1.157 0 2.002.234v-1.144c-1.014-.26-1.508-.26-2.002-.26Zm-.195 4.017c1.274 0 1.807.663 1.807 1.963s-.533 1.95-1.807 1.95-1.807-1.04-1.807-2.08c0-1.17.533-1.833 1.807-1.833Z"/><g filter="url(#f)" style="mix-blend-mode:screen"><path fill="url(#g)" d="M255.493 858.999c9.162 8.613-14.516 51.503-41.172 41.695-26.657-9.807-41.696-21.856-41.696-41.695s19.449-29.461 41.696-32.714c22.246-3.253 32.011 24.102 41.172 32.714Z"/></g><g filter="url(#h)"><path fill="url(#i)" d="M253.743 858.999c9.162 8.613-14.516 51.503-41.172 41.695-26.657-9.807-41.696-21.856-41.696-41.695s19.449-29.461 41.696-32.714c22.246-3.253 32.011 24.102 41.172 32.714Z"/></g><g filter="url(#j)" style="mix-blend-mode:screen"><path fill="url(#k)" d="M255.493 865.124c9.162 8.613-14.516 51.503-41.172 41.695-26.657-9.807-41.696-21.856-41.696-41.695s19.449-29.461 41.696-32.714c22.246-3.253 32.011 24.102 41.172 32.714Z"/></g><circle cx="201.627" cy="868.145" r="42.127" fill="url(#l)"/><path fill="#fff" d="M316.833 868a2.667 2.667 0 1 0 5.334 0 2.667 2.667 0 0 0-5.334 0Zm2.667.5h68v-1h-68v1ZM42.014 250.33v-1.17H35.28v1.17h2.717V258h1.3v-7.67h2.717Zm3.762-1.43v9.1h1.3v-5.33h2.86V258h1.3v-6.5h-4.16v-2.6h-1.3Zm12.533 9.23c.494 0 .858 0 1.872-.26v-1.144c-.845.234-1.352.234-1.872.234-1.521 0-1.885-.715-1.976-1.625h4.29v-.715c0-2.041-.806-3.25-2.808-3.25s-2.808 1.339-2.808 3.38c0 1.287.364 3.38 3.302 3.38Zm-2.002-3.965c.065-1.053.507-1.625 1.508-1.625 1.053 0 1.482.494 1.508 1.625h-3.016Zm18.978 3.965c2.067 0 3.328-.702 3.328-2.509 0-1.703-.95-2.184-3.445-2.756-1.521-.351-2.197-.637-2.197-1.43 0-.923.637-1.235 1.677-1.235.832 0 1.963.286 3.263.741v-1.17c-.871-.429-2.041-.741-3.094-.741-1.885 0-3.146.676-3.146 2.366 0 1.378.689 2.054 3.224 2.639 1.495.338 2.418.598 2.418 1.56 0 1.118-.871 1.365-2.028 1.365-1.17 0-2.522-.442-3.744-1.274v1.287c.897.689 2.496 1.157 3.744 1.157Zm10.277 0c.494 0 .858 0 1.872-.26v-1.144c-.845.234-1.352.234-1.872.234-1.521 0-1.885-.715-1.976-1.625h4.29v-.715c0-2.041-.806-3.25-2.808-3.25s-2.808 1.339-2.808 3.38c0 1.287.364 3.38 3.302 3.38Zm-2.002-3.965c.065-1.053.507-1.625 1.508-1.625 1.053 0 1.482.494 1.508 1.625H83.56Zm10.708 3.965c1.521 0 2.444-.845 2.444-1.95 0-1.196-.702-1.599-2.626-2.119-1.105-.299-1.274-.546-1.274-.91 0-.325.221-.611.884-.611.715 0 1.547.208 2.496.676v-1.17c-.637-.442-1.495-.676-2.366-.676-1.39 0-2.314.741-2.314 1.82 0 1.027.507 1.638 2.366 2.041 1.196.26 1.534.507 1.534.962 0 .403-.299.767-1.144.767-.962 0-1.573-.234-2.756-.975v1.313c.95.637 1.742.832 2.756.832Zm9.051 0c1.976 0 3.107-1.339 3.107-3.38s-1.131-3.38-3.107-3.38c-1.976 0-3.107 1.339-3.107 3.38s1.131 3.38 3.107 3.38Zm0-1.17c-1.339 0-1.807-.52-1.807-2.21s.468-2.21 1.807-2.21 1.807.52 1.807 2.21-.468 2.21-1.807 2.21Zm10.915-4.29V258h1.3v-6.5h-5.46v6.5h1.3v-5.33h2.86Zm9.858-.39c-.39-.559-1.027-.91-1.937-.91-2.106 0-2.847 1.469-2.847 3.38 0 1.911.741 3.38 2.847 3.38.91 0 1.547-.351 1.937-.91v.78h1.3v-9.1h-1.3v3.38Zm-1.742 4.68c-1.274 0-1.742-.65-1.742-2.21s.468-2.21 1.742-2.21 1.742.65 1.742 2.21-.468 2.21-1.742 2.21Zm-85.64 19.87v-7.67h-1.3V278h4.914v-1.17H36.71Zm10.42 1.3c.494 0 .858 0 1.872-.26v-1.144c-.845.234-1.352.234-1.872.234-1.521 0-1.885-.715-1.976-1.625h4.29v-.715c0-2.041-.806-3.25-2.808-3.25s-2.808 1.339-2.808 3.38c0 1.287.364 3.38 3.302 3.38Zm-2.002-3.965c.065-1.053.507-1.625 1.508-1.625 1.053 0 1.482.494 1.508 1.625h-3.016Zm10.022 3.965c.91 0 1.417-.26 1.807-.78v.65h2.08v-1.3h-.78v-5.2h-4.68v1.17h3.38v1.69c-.39-.52-.897-.78-1.807-.78-1.586 0-2.327 1.144-2.327 2.275s.741 2.275 2.327 2.275Zm.39-1.17c-.949 0-1.417-.455-1.417-1.105 0-.65.468-1.105 1.417-1.105.95 0 1.417.455 1.417 1.105 0 .65-.468 1.105-1.417 1.105Zm10.64-5.59c-.91 0-1.548.351-1.938.91v-.78h-1.3v8.58h1.3v-2.86c.39.559 1.027.91 1.937.91 2.106 0 2.847-1.469 2.847-3.38 0-1.911-.74-3.38-2.847-3.38Zm-.196 5.59c-1.274 0-1.742-.65-1.742-2.21s.468-2.21 1.742-2.21 1.742.65 1.742 2.21-.468 2.21-1.742 2.21Z"/><path fill="#fff" fill-opacity=".33" d="m37.23 300.83 2.028-1.963c1.131-1.092 1.716-1.846 1.716-3.107 0-1.261-.741-2.73-2.847-2.73s-2.847 1.469-2.847 3.12h1.3c0-1.3.468-1.95 1.547-1.95s1.547.585 1.547 1.495c0 .949-.52 1.521-1.69 2.613l-2.704 2.522V302h5.564v-1.17H37.23Zm10.353 1.3c2.236 0 2.977-1.469 2.977-2.86 0-1.781-1.21-2.6-2.835-2.34l2.575-2.6v-1.17h-5.304v1.17h3.587l-2.3 2.34.52 1.17h.975c.819 0 1.482.325 1.482 1.43 0 1.04-.468 1.69-1.677 1.69-1.21 0-1.677-.65-1.677-1.69h-1.3c0 1.391.74 2.86 2.977 2.86ZM58 293.03c-2.704 0-3.536 2.08-3.536 4.55 0 2.47.832 4.55 3.536 4.55s3.536-2.08 3.536-4.55c0-2.47-.832-4.55-3.536-4.55Zm2.236 4.55c0 .728-.052 1.326-.169 1.807l-3.419-4.836c.338-.234.78-.351 1.352-.351 1.73 0 2.236 1.027 2.236 3.38Zm-4.472 0c0-.715.052-1.313.156-1.794l3.42 4.823c-.326.234-.768.351-1.34.351-1.742 0-2.236-1.027-2.236-3.38Zm13.085-4.55c-2.704 0-3.536 2.08-3.536 4.55 0 2.47.832 4.55 3.536 4.55s3.536-2.08 3.536-4.55c0-2.47-.832-4.55-3.536-4.55Zm2.236 4.55c0 .728-.052 1.326-.169 1.807l-3.419-4.836c.338-.234.78-.351 1.352-.351 1.729 0 2.236 1.027 2.236 3.38Zm-4.472 0c0-.715.052-1.313.156-1.794l3.419 4.823c-.325.234-.767.351-1.339.351-1.742 0-2.236-1.027-2.236-3.38Zm9.803-.078v1.17h4.576v-1.17h-4.576Zm10.552 3.328 2.028-1.963c1.13-1.092 1.716-1.846 1.716-3.107 0-1.261-.741-2.73-2.847-2.73s-2.847 1.469-2.847 3.12h1.3c0-1.3.468-1.95 1.547-1.95s1.547.585 1.547 1.495c0 .949-.52 1.521-1.69 2.613l-2.704 2.522V302h5.564v-1.17h-3.614Zm10.352 1.3c2.236 0 2.977-1.469 2.977-2.86 0-1.781-1.209-2.6-2.834-2.34l2.574-2.6v-1.17h-5.304v1.17h3.588l-2.3 2.34.52 1.17h.974c.82 0 1.482.325 1.482 1.43 0 1.04-.468 1.69-1.677 1.69s-1.677-.65-1.677-1.69h-1.3c0 1.391.741 2.86 2.977 2.86Zm10.093 0c2.509 0 3.211-1.3 3.211-2.47 0-1.118-.351-1.976-1.937-2.366v-.208c1.131-.39 1.417-.962 1.417-1.846 0-1.17-.702-2.21-2.691-2.21-1.989 0-2.691 1.04-2.691 2.21 0 .884.286 1.456 1.417 1.846v.208c-1.586.39-1.937 1.235-1.937 2.366 0 1.17.702 2.47 3.211 2.47Zm0-5.525c-1.027 0-1.391-.507-1.391-1.17 0-.793.364-1.235 1.391-1.235 1.014 0 1.391.442 1.391 1.235 0 .663-.377 1.17-1.391 1.17Zm0 4.355c-1.547 0-1.911-.702-1.911-1.625s.364-1.56 1.911-1.56c1.534 0 1.911.637 1.911 1.56s-.377 1.625-1.911 1.625Zm10.292-7.93c-2.938 0-3.302 2.353-3.302 3.64v1.69c0 2.288.806 3.77 3.107 3.77s3.107-1.469 3.107-3.12-.806-3.12-2.912-3.12c-.91 0-1.612.481-2.002.91 0-1.157.039-2.6 2.002-2.6.52 0 1.157 0 2.002.234v-1.144c-1.014-.26-1.508-.26-2.002-.26Zm-.195 4.017c1.274 0 1.807.663 1.807 1.963s-.533 1.95-1.807 1.95-1.807-1.04-1.807-2.08c0-1.17.533-1.833 1.807-1.833Z"/><path fill="url(#m)" d="M242.299 271.066c2.69 27.004-22.416 23.02-28.693 28.775-6.276 5.756-25.106-11.099-25.106-24.791 0-13.691 10.311-30.103 25.106-26.561 14.795 3.541 26.003-4.427 28.693 22.577Z"/><circle cx="209.741" cy="275.241" r="20.241" fill="url(#n)"/><circle cx="217.5" cy="274" r="11" fill="url(#o)"/><path fill="#fff" d="M316.833 275a2.667 2.667 0 1 0 5.334 0 2.667 2.667 0 0 0-5.334 0Zm2.667.5h68v-1h-68v1ZM42.014 19.33v-1.17H35.28v1.17h2.717V27h1.3v-7.67h2.717Zm3.762-1.43V27h1.3v-5.33h2.86V27h1.3v-6.5h-4.16v-2.6h-1.3Zm12.533 9.23c.494 0 .858 0 1.872-.26v-1.144c-.845.234-1.352.234-1.872.234-1.521 0-1.885-.715-1.976-1.625h4.29v-.715c0-2.041-.806-3.25-2.808-3.25s-2.808 1.339-2.808 3.38c0 1.287.364 3.38 3.302 3.38Zm-2.002-3.965c.065-1.053.507-1.625 1.508-1.625 1.053 0 1.482.494 1.508 1.625h-3.016Zm20.29.39v-1.17h-3.626V19.33h4.394v-1.17H71.67V27h1.3v-3.445h3.627Zm4.539-5.655v1.3h1.3v-1.3h-1.3Zm0 2.6V27h1.3v-6.5h-1.3Zm9.132 1.17V20.5h-3.796V27h1.3v-5.33h2.496Zm6.267 5.46c1.521 0 2.444-.845 2.444-1.95 0-1.196-.702-1.599-2.626-2.119-1.105-.299-1.274-.546-1.274-.91 0-.325.221-.611.884-.611.715 0 1.547.208 2.496.676v-1.17c-.637-.442-1.495-.676-2.366-.676-1.391 0-2.314.741-2.314 1.82 0 1.027.507 1.638 2.366 2.041 1.196.26 1.534.507 1.534.962 0 .403-.299.767-1.144.767-.962 0-1.573-.234-2.756-.975v1.313c.949.637 1.742.832 2.756.832Zm7.903-1.3v-4.16h1.716V20.5h-1.716v-2.6h-1.3v2.6h-1.04v1.17h1.04V27h3.016v-1.17h-1.716Zm14.063 0v-7.67h-1.3V27h4.914v-1.17h-3.614Zm10.42 1.3c.494 0 .858 0 1.872-.26v-1.144c-.845.234-1.352.234-1.872.234-1.521 0-1.885-.715-1.976-1.625h4.29v-.715c0-2.041-.806-3.25-2.808-3.25s-2.808 1.339-2.808 3.38c0 1.287.364 3.38 3.302 3.38Zm-2.002-3.965c.065-1.053.507-1.625 1.508-1.625 1.053 0 1.482.494 1.508 1.625h-3.016Zm10.022 3.965c.91 0 1.417-.26 1.807-.78V27h2.08v-1.3h-.78v-5.2h-4.68v1.17h3.38v1.69c-.39-.52-.897-.78-1.807-.78-1.586 0-2.327 1.144-2.327 2.275s.741 2.275 2.327 2.275Zm.39-1.17c-.949 0-1.417-.455-1.417-1.105 0-.65.468-1.105 1.417-1.105.949 0 1.417.455 1.417 1.105 0 .65-.468 1.105-1.417 1.105Zm10.639-5.59c-.91 0-1.547.351-1.937.91v-.78h-1.3v8.58h1.3v-2.86c.39.559 1.027.91 1.937.91 2.106 0 2.847-1.469 2.847-3.38 0-1.911-.741-3.38-2.847-3.38Zm-.195 5.59c-1.274 0-1.742-.65-1.742-2.21s.468-2.21 1.742-2.21 1.742.65 1.742 2.21-.468 2.21-1.742 2.21Z"/><path fill="#fff" fill-opacity=".33" d="m37.23 49.83 2.028-1.963c1.131-1.092 1.716-1.846 1.716-3.107 0-1.261-.741-2.73-2.847-2.73s-2.847 1.469-2.847 3.12h1.3c0-1.3.468-1.95 1.547-1.95s1.547.585 1.547 1.495c0 .949-.52 1.521-1.69 2.613L35.28 49.83V51h5.564v-1.17H37.23Zm10.353 1.3c2.236 0 2.977-1.469 2.977-2.86 0-1.781-1.21-2.6-2.835-2.34l2.575-2.6v-1.17h-5.304v1.17h3.587l-2.3 2.34.52 1.17h.975c.819 0 1.482.325 1.482 1.43 0 1.04-.468 1.69-1.677 1.69-1.21 0-1.677-.65-1.677-1.69h-1.3c0 1.391.74 2.86 2.977 2.86ZM58 42.03c-2.704 0-3.536 2.08-3.536 4.55 0 2.47.832 4.55 3.536 4.55s3.536-2.08 3.536-4.55c0-2.47-.832-4.55-3.536-4.55Zm2.236 4.55c0 .728-.052 1.326-.169 1.807l-3.419-4.836c.338-.234.78-.351 1.352-.351 1.73 0 2.236 1.027 2.236 3.38Zm-4.472 0c0-.715.052-1.313.156-1.794l3.42 4.823c-.326.234-.768.351-1.34.351-1.742 0-2.236-1.027-2.236-3.38Zm13.085-4.55c-2.704 0-3.536 2.08-3.536 4.55 0 2.47.832 4.55 3.536 4.55s3.536-2.08 3.536-4.55c0-2.47-.832-4.55-3.536-4.55Zm2.236 4.55c0 .728-.052 1.326-.169 1.807l-3.419-4.836c.338-.234.78-.351 1.352-.351 1.729 0 2.236 1.027 2.236 3.38Zm-4.472 0c0-.715.052-1.313.156-1.794l3.419 4.823c-.325.234-.767.351-1.339.351-1.742 0-2.236-1.027-2.236-3.38Zm9.803-.078v1.17h4.576v-1.17h-4.576Zm10.552 3.328 2.028-1.963c1.13-1.092 1.716-1.846 1.716-3.107 0-1.261-.741-2.73-2.847-2.73s-2.847 1.469-2.847 3.12h1.3c0-1.3.468-1.95 1.547-1.95s1.547.585 1.547 1.495c0 .949-.52 1.521-1.69 2.613l-2.704 2.522V51h5.564v-1.17h-3.614Zm10.352 1.3c2.236 0 2.977-1.469 2.977-2.86 0-1.781-1.209-2.6-2.834-2.34l2.574-2.6v-1.17h-5.304v1.17h3.588l-2.3 2.34.52 1.17h.974c.82 0 1.482.325 1.482 1.43 0 1.04-.468 1.69-1.677 1.69s-1.677-.65-1.677-1.69h-1.3c0 1.391.741 2.86 2.977 2.86Zm10.093 0c2.509 0 3.211-1.3 3.211-2.47 0-1.118-.351-1.976-1.937-2.366v-.208c1.131-.39 1.417-.962 1.417-1.846 0-1.17-.702-2.21-2.691-2.21-1.989 0-2.691 1.04-2.691 2.21 0 .884.286 1.456 1.417 1.846v.208c-1.586.39-1.937 1.235-1.937 2.366 0 1.17.702 2.47 3.211 2.47Zm0-5.525c-1.027 0-1.391-.507-1.391-1.17 0-.793.364-1.235 1.391-1.235 1.014 0 1.391.442 1.391 1.235 0 .663-.377 1.17-1.391 1.17Zm0 4.355c-1.547 0-1.911-.702-1.911-1.625s.364-1.56 1.911-1.56c1.534 0 1.911.637 1.911 1.56s-.377 1.625-1.911 1.625Zm10.292-7.93c-2.938 0-3.302 2.353-3.302 3.64v1.69c0 2.288.806 3.77 3.107 3.77s3.107-1.469 3.107-3.12-.806-3.12-2.912-3.12c-.91 0-1.612.481-2.002.91 0-1.157.039-2.6 2.002-2.6.52 0 1.157 0 2.002.234V42.29c-1.014-.26-1.508-.26-2.002-.26Zm-.195 4.017c1.274 0 1.807.663 1.807 1.963s-.533 1.95-1.807 1.95-1.807-1.04-1.807-2.08c0-1.17.533-1.833 1.807-1.833Z"/><path fill="url(#p)" d="M243.5 33c3 30.5-11 10.5-28 28s-28-12.536-28-28 13-40.5 29-30.5 24 0 27 30.5Z"/><circle cx="207.741" cy="32.241" r="20.241" fill="url(#q)"/><circle cx="213.145" cy="28.645" r="20.645" fill="url(#r)"/><circle cx="216.5" cy="32" r="11" fill="url(#s)"/><path fill="#fff" d="M316.833 34a2.667 2.667 0 1 0 5.334 0 2.667 2.667 0 0 0-5.334 0Zm2.667.5h68v-1h-68v1Z"/><path stroke="#FFA753" stroke-dasharray="6 8" d="M382.5 415.5H.5M382.5 773H.5" opacity=".3"/><defs><radialGradient id="i" cx="0" cy="0" r="1" gradientTransform="matrix(21.30158 38.73174 -39.02177 21.4611 212.571 864.772)" gradientUnits="userSpaceOnUse"><stop offset=".454" stop-opacity="0"/><stop offset=".69" stop-color="#0C102D" stop-opacity=".585"/><stop offset=".746" stop-color="#31154D"/><stop offset=".83" stop-color="#FF9153"/><stop offset=".874" stop-color="#fff"/></radialGradient><radialGradient id="s" cx="0" cy="0" r="1" gradientTransform="rotate(25.889 43.713 469.404) scale(20.1813)" gradientUnits="userSpaceOnUse"><stop offset=".822" stop-color="#fff"/><stop offset=".871" stop-color="#FFEEB3"/><stop offset=".932" stop-color="#D37642"/></radialGradient><radialGradient id="r" cx="0" cy="0" r="1" gradientTransform="rotate(-63.639 132.427 -161.9) scale(16.342 15.5689)" gradientUnits="userSpaceOnUse"><stop offset=".307" stop-color="#fff"/><stop offset=".322" stop-color="#FF7A00" stop-opacity="0"/><stop offset=".437" stop-color="#D2FFC2"/><stop offset="1" stop-color="#05FFC3" stop-opacity="0"/></radialGradient><radialGradient id="q" cx="0" cy="0" r="1" gradientTransform="rotate(118.809 97.568 78.946) scale(17.8698 17.0245)" gradientUnits="userSpaceOnUse"><stop offset=".556" stop-color="#FFE0C2"/><stop offset=".646" stop-color="#fff"/><stop offset=".842" stop-color="#FA05FF" stop-opacity="0"/><stop offset="1" stop-color="#52FF00" stop-opacity="0"/></radialGradient><radialGradient id="a" cx="0" cy="0" r="1" gradientTransform="rotate(120 -63.354 359.944) scale(47.5346 40.5613)" gradientUnits="userSpaceOnUse"><stop offset=".454" stop-opacity="0"/><stop offset=".69" stop-color="#150C2D" stop-opacity=".585"/><stop offset=".877" stop-color="#4D2215"/><stop offset=".979" stop-color="#FFA753"/><stop offset="1" stop-color="#fff"/></radialGradient><radialGradient id="c" cx="0" cy="0" r="1" gradientTransform="matrix(0 73.5736 -63.0631 0 214.206 594.396)" gradientUnits="userSpaceOnUse"><stop offset=".454" stop-opacity="0"/><stop offset=".69" stop-color="#150C2D" stop-opacity="0"/><stop offset=".877" stop-color="#E87E67"/><stop offset=".979" stop-color="#FFA753"/><stop offset="1" stop-color="#fff"/></radialGradient><radialGradient id="d" cx="0" cy="0" r="1" gradientTransform="matrix(-11.29915 20.54543 -19.57351 -10.76463 217.797 594.498)" gradientUnits="userSpaceOnUse"><stop offset=".322" stop-color="#fff"/><stop offset=".636" stop-color="#FFE0C2"/><stop offset=".827" stop-color="#FA05FF" stop-opacity=".06"/><stop offset="1" stop-color="#FF7A00" stop-opacity="0"/></radialGradient><radialGradient id="e" cx="0" cy="0" r="1" gradientTransform="rotate(25.889 -1179.64 746.06) scale(25.5609)" gradientUnits="userSpaceOnUse"><stop offset=".698" stop-color="#fff"/><stop offset=".871" stop-color="#FFD9B6"/><stop offset=".932" stop-color="#8B5243"/></radialGradient><radialGradient id="g" cx="0" cy="0" r="1" gradientTransform="matrix(21.30158 38.73174 -39.02177 21.4611 214.321 864.772)" gradientUnits="userSpaceOnUse"><stop offset=".454" stop-opacity="0"/><stop offset=".69" stop-color="#0C102D" stop-opacity=".585"/><stop offset=".746" stop-color="#31154D"/><stop offset=".83" stop-color="#FF9153"/><stop offset=".874" stop-color="#fff"/></radialGradient><radialGradient id="p" cx="0" cy="0" r="1" gradientTransform="rotate(93.468 92.22 117.917) scale(33.0605)" gradientUnits="userSpaceOnUse"><stop offset=".454" stop-opacity="0"/><stop offset=".69" stop-color="#150C2D" stop-opacity=".585"/><stop offset=".877" stop-color="#234D15"/><stop offset=".979" stop-color="#FF9153"/><stop offset="1" stop-color="#fff"/></radialGradient><radialGradient id="k" cx="0" cy="0" r="1" gradientTransform="rotate(62.435 -610.912 613.333) scale(43.4844 43.81)" gradientUnits="userSpaceOnUse"><stop offset=".373" stop-opacity="0"/><stop offset=".69" stop-color="#0C102D" stop-opacity=".585"/><stop offset=".746" stop-color="#31154D"/><stop offset=".83" stop-color="#FF9153"/><stop offset=".874" stop-color="#fff"/></radialGradient><radialGradient id="l" cx="0" cy="0" r="1" gradientTransform="rotate(-63.639 806.03 262.48) scale(33.3467 31.7692)" gradientUnits="userSpaceOnUse"><stop offset=".3"/><stop offset=".302" stop-color="#FF7A00" stop-opacity="0"/><stop offset=".437" stop-color="#FFE0C2"/><stop offset="1" stop-color="#050FFF" stop-opacity="0"/></radialGradient><radialGradient id="m" cx="0" cy="0" r="1" gradientTransform="rotate(60.147 -130.695 321.968) scale(29.9202 30.3008)" gradientUnits="userSpaceOnUse"><stop offset=".454" stop-opacity="0"/><stop offset=".69" stop-color="#0C102D" stop-opacity=".585"/><stop offset=".877" stop-color="#153F4D"/><stop offset=".979" stop-color="#FF9153"/><stop offset="1" stop-color="#fff"/></radialGradient><radialGradient id="n" cx="0" cy="0" r="1" gradientTransform="rotate(118.809 26.726 201.038) scale(17.8698 17.0245)" gradientUnits="userSpaceOnUse"><stop offset=".556" stop-color="#FFE0C2"/><stop offset=".646" stop-color="#fff"/><stop offset=".842" stop-color="#FA05FF" stop-opacity="0"/><stop offset="1" stop-color="#FF7A00" stop-opacity="0"/></radialGradient><radialGradient id="o" cx="0" cy="0" r="1" gradientTransform="rotate(25.889 -482.218 592.58) scale(20.1813)" gradientUnits="userSpaceOnUse"><stop offset=".822" stop-color="#fff"/><stop offset=".871" stop-color="#FFEEB3"/><stop offset=".932" stop-color="#D37642"/></radialGradient><filter id="f" width="104.806" height="96.056" x="162.66" y="816.053" color-interpolation-filters="sRGB" filterUnits="userSpaceOnUse"><feFlood flood-opacity="0" result="BackgroundImageFix"/><feBlend in="SourceGraphic" in2="BackgroundImageFix" result="shape"/><feGaussianBlur result="effect1_foregroundBlur_3379_1284" stdDeviation="4.983"/></filter><filter id="j" width="104.806" height="96.056" x="162.66" y="822.178" color-interpolation-filters="sRGB" filterUnits="userSpaceOnUse"><feFlood flood-opacity="0" result="BackgroundImageFix"/><feBlend in="SourceGraphic" in2="BackgroundImageFix" result="shape"/><feGaussianBlur result="effect1_foregroundBlur_3379_1284" stdDeviation="4.983"/></filter><filter id="h" width="104.806" height="96.056" x="160.91" y="816.053" color-interpolation-filters="sRGB" filterUnits="userSpaceOnUse"><feFlood flood-opacity="0" result="BackgroundImageFix"/><feBlend in="SourceGraphic" in2="BackgroundImageFix" result="shape"/><feGaussianBlur result="effect1_foregroundBlur_3379_1284" stdDeviation="4.983"/></filter><filter id="b" width="123.792" height="138.709" x="154.293" y="524.468" color-interpolation-filters="sRGB" filterUnits="userSpaceOnUse"><feFlood flood-opacity="0" result="BackgroundImageFix"/><feBlend in="SourceGraphic" in2="BackgroundImageFix" result="shape"/><feGaussianBlur result="effect1_foregroundBlur_3379_1284" stdDeviation="1.794"/></filter></defs></svg>