<svg xmlns="http://www.w3.org/2000/svg" width="83" height="55" fill="none"><g fill="#fff" clip-path="url(#a)"><path d="M7.065 2.33V1.16H.964v1.17h2.461V10h1.178V2.33h2.462ZM10.474.9V10h1.178V4.67h2.59V10h1.178V3.5h-3.768V.9h-1.178Zm11.354 9.23c.448 0 .777 0 1.696-.26V8.726c-.765.234-1.225.234-1.696.234-1.378 0-1.708-.715-1.79-1.625h3.887V6.62c0-2.041-.73-3.25-2.544-3.25s-2.544 1.339-2.544 3.38c0 1.287.33 3.38 2.991 3.38Zm-1.814-3.965c.06-1.053.46-1.625 1.367-1.625.954 0 1.342.494 1.366 1.625h-2.733Zm17.194 3.965c1.873 0 3.016-.702 3.016-2.509 0-1.703-.86-2.184-3.122-2.756-1.378-.351-1.99-.637-1.99-1.43 0-.923.577-1.235 1.52-1.235.753 0 1.778.286 2.956.741v-1.17c-.79-.429-1.85-.741-2.804-.741-1.707 0-2.85.676-2.85 2.366 0 1.378.624 2.054 2.921 2.639 1.355.338 2.19.598 2.19 1.56 0 1.118-.788 1.365-1.837 1.365-1.06 0-2.285-.442-3.392-1.274v1.287c.813.689 2.262 1.157 3.392 1.157Zm9.311 0c.448 0 .778 0 1.696-.26V8.726c-.765.234-1.225.234-1.696.234-1.378 0-1.707-.715-1.79-1.625h3.887V6.62c0-2.041-.73-3.25-2.544-3.25s-2.544 1.339-2.544 3.38c0 1.287.33 3.38 2.991 3.38Zm-1.813-3.965c.058-1.053.459-1.625 1.366-1.625.954 0 1.342.494 1.366 1.625h-2.733Zm9.701 3.965c1.378 0 2.215-.845 2.215-1.95 0-1.196-.636-1.599-2.38-2.119-1-.299-1.154-.546-1.154-.91 0-.325.2-.611.801-.611.648 0 1.402.208 2.261.676v-1.17c-.577-.442-1.354-.676-2.143-.676-1.26 0-2.097.741-2.097 1.82 0 1.027.46 1.638 2.144 2.041 1.083.26 1.39.507 1.39.962 0 .403-.271.767-1.037.767-.871 0-1.425-.234-2.497-.975v1.313c.86.637 1.579.832 2.497.832Zm8.2 0c1.79 0 2.815-1.339 2.815-3.38s-1.024-3.38-2.815-3.38c-1.79 0-2.815 1.339-2.815 3.38s1.025 3.38 2.815 3.38Zm0-1.17c-1.213 0-1.637-.52-1.637-2.21s.424-2.21 1.637-2.21c1.214 0 1.638.52 1.638 2.21s-.425 2.21-1.638 2.21Zm9.89-4.29V10h1.177V3.5h-4.947V10h1.178V4.67h2.591Zm8.93-.39c-.353-.559-.93-.91-1.754-.91-1.908 0-2.58 1.469-2.58 3.38 0 1.911.672 3.38 2.58 3.38.824 0 1.401-.351 1.755-.91V10h1.178V.9h-1.178v3.38ZM79.85 8.96c-1.154 0-1.578-.65-1.578-2.21s.424-2.21 1.579-2.21c1.154 0 1.578.65 1.578 2.21s-.424 2.21-1.578 2.21ZM2.26 28.83v-7.67H1.082V30h4.452v-1.17H2.259Zm9.441 1.3c.448 0 .777 0 1.696-.26v-1.144c-.766.234-1.225.234-1.696.234-1.378 0-1.708-.715-1.79-1.625h3.886v-.715c0-2.041-.73-3.25-2.544-3.25-1.813 0-2.544 1.339-2.544 3.38 0 1.287.33 3.38 2.992 3.38Zm-1.814-3.965c.06-1.053.46-1.625 1.366-1.625.954 0 1.343.494 1.367 1.625H9.886Zm9.08 3.965c.825 0 1.284-.26 1.638-.78V30h1.884v-1.3h-.707v-5.2h-4.24v1.17h3.063v1.69c-.354-.52-.813-.78-1.637-.78-1.437 0-2.109 1.144-2.109 2.275s.672 2.275 2.108 2.275Zm.354-1.17c-.86 0-1.284-.455-1.284-1.105 0-.65.424-1.105 1.284-1.105.86 0 1.284.455 1.284 1.105 0 .65-.424 1.105-1.284 1.105Zm9.639-5.59c-.825 0-1.402.351-1.755.91v-.78h-1.178v8.58h1.178v-2.86c.353.559.93.91 1.755.91 1.908 0 2.579-1.469 2.579-3.38 0-1.911-.671-3.38-2.58-3.38Zm-.177 5.59c-1.154 0-1.578-.65-1.578-2.21s.424-2.21 1.578-2.21c1.154 0 1.578.65 1.578 2.21s-.424 2.21-1.578 2.21Z"/><path fill-opacity=".33" d="m2.73 52.83 1.838-1.963c1.025-1.092 1.555-1.846 1.555-3.107 0-1.261-.672-2.73-2.58-2.73s-2.58 1.469-2.58 3.12h1.179c0-1.3.424-1.95 1.401-1.95.978 0 1.402.585 1.402 1.495 0 .949-.471 1.521-1.531 2.613L.964 52.83V54h5.04v-1.17H2.732Zm9.38 1.3c2.026 0 2.697-1.469 2.697-2.86 0-1.781-1.095-2.6-2.567-2.34l2.332-2.6v-1.17H9.766v1.17h3.25l-2.084 2.34.471 1.17h.884c.742 0 1.342.325 1.342 1.43 0 1.04-.424 1.69-1.519 1.69s-1.52-.65-1.52-1.69H9.414c0 1.391.671 2.86 2.697 2.86Zm9.438-9.1c-2.45 0-3.203 2.08-3.203 4.55 0 2.47.754 4.55 3.203 4.55 2.45 0 3.204-2.08 3.204-4.55 0-2.47-.754-4.55-3.204-4.55Zm2.026 4.55c0 .728-.047 1.326-.153 1.807l-3.098-4.836c.307-.234.707-.351 1.225-.351 1.567 0 2.026 1.027 2.026 3.38Zm-4.051 0c0-.715.047-1.313.14-1.794l3.099 4.823c-.295.234-.695.351-1.214.351-1.578 0-2.025-1.027-2.025-3.38Zm11.855-4.55c-2.45 0-3.204 2.08-3.204 4.55 0 2.47.754 4.55 3.204 4.55s3.203-2.08 3.203-4.55c0-2.47-.754-4.55-3.203-4.55Zm2.025 4.55c0 .728-.047 1.326-.153 1.807l-3.097-4.836c.306-.234.706-.351 1.225-.351 1.566 0 2.025 1.027 2.025 3.38Zm-4.051 0c0-.715.047-1.313.141-1.794l3.098 4.823c-.295.234-.695.351-1.213.351-1.579 0-2.026-1.027-2.026-3.38Zm8.881-.078v1.17h4.146v-1.17h-4.146Zm9.56 3.328 1.838-1.963c1.024-1.092 1.554-1.846 1.554-3.107 0-1.261-.671-2.73-2.58-2.73-1.907 0-2.578 1.469-2.578 3.12h1.177c0-1.3.424-1.95 1.402-1.95.977 0 1.401.585 1.401 1.495 0 .949-.47 1.521-1.53 2.613l-2.45 2.522V54h5.04v-1.17h-3.274Zm9.38 1.3c2.026 0 2.697-1.469 2.697-2.86 0-1.781-1.095-2.6-2.568-2.34l2.332-2.6v-1.17H54.83v1.17h3.25l-2.084 2.34.471 1.17h.883c.742 0 1.343.325 1.343 1.43 0 1.04-.424 1.69-1.52 1.69-1.095 0-1.519-.65-1.519-1.69h-1.178c0 1.391.672 2.86 2.698 2.86Zm9.144 0c2.273 0 2.909-1.3 2.909-2.47 0-1.118-.318-1.976-1.755-2.366v-.208c1.025-.39 1.284-.962 1.284-1.846 0-1.17-.636-2.21-2.438-2.21s-2.438 1.04-2.438 2.21c0 .884.259 1.456 1.283 1.846v.208c-1.436.39-1.754 1.235-1.754 2.366 0 1.17.636 2.47 2.909 2.47Zm0-5.525c-.93 0-1.26-.507-1.26-1.17 0-.793.33-1.235 1.26-1.235.919 0 1.26.442 1.26 1.235 0 .663-.341 1.17-1.26 1.17Zm0 4.355c-1.402 0-1.732-.702-1.732-1.625s.33-1.56 1.732-1.56c1.39 0 1.731.637 1.731 1.56s-.341 1.625-1.731 1.625Zm9.324-7.93c-2.662 0-2.991 2.353-2.991 3.64v1.69c0 2.288.73 3.77 2.815 3.77 2.084 0 2.815-1.469 2.815-3.12s-.73-3.12-2.639-3.12c-.824 0-1.46.481-1.813.91 0-1.157.035-2.6 1.813-2.6.471 0 1.049 0 1.814.234V45.29c-.918-.26-1.366-.26-1.814-.26Zm-.176 4.017c1.154 0 1.637.663 1.637 1.963s-.483 1.95-1.637 1.95-1.637-1.04-1.637-2.08c0-1.17.483-1.833 1.637-1.833Z"/></g><defs><clipPath id="a"><path fill="#fff" d="M0 0h83v55H0z"/></clipPath></defs></svg>