<svg xmlns="http://www.w3.org/2000/svg" width="190" height="879" fill="none"><g clip-path="url(#a)"><path fill="#FFA753" d="M38.065 542.33v-1.17h-6.101v1.17h2.461V550h1.178v-7.67h2.462Zm3.408-1.43v9.1h1.178v-5.33h2.591V550h1.178v-6.5h-3.769v-2.6h-1.178Zm11.355 9.23c.447 0 .777 0 1.696-.26v-1.144c-.766.234-1.225.234-1.696.234-1.378 0-1.708-.715-1.79-1.625h3.886v-.715c0-2.041-.73-3.25-2.544-3.25s-2.544 1.339-2.544 3.38c0 1.287.33 3.38 2.992 3.38Zm-1.814-3.965c.059-1.053.46-1.625 1.366-1.625.954 0 1.343.494 1.367 1.625h-2.733Zm15.098 2.665v-2.795h3.038v-1.17h-3.038v-2.535h3.98v-1.17h-5.158V550h5.159v-1.17h-3.981Zm10.96-4.16v-1.17h-3.439v6.5h1.178v-5.33h2.261Zm4.941 5.46c.825 0 1.284-.26 1.638-.78v.65h1.884v-1.3h-.706v-5.2h-4.24v1.17h3.062v1.69c-.354-.52-.813-.78-1.638-.78-1.436 0-2.108 1.144-2.108 2.275s.672 2.275 2.108 2.275Zm.354-1.17c-.86 0-1.284-.455-1.284-1.105 0-.65.424-1.105 1.284-1.105.86 0 1.284.455 1.284 1.105 0 .65-.424 1.105-1.284 1.105ZM34.66 570.13c1.79 0 2.815-1.339 2.815-3.38s-1.025-3.38-2.815-3.38-2.815 1.339-2.815 3.38 1.024 3.38 2.815 3.38Zm0-1.17c-1.214 0-1.638-.52-1.638-2.21s.424-2.21 1.638-2.21c1.213 0 1.637.52 1.637 2.21s-.424 2.21-1.637 2.21Zm9.438-4.29v-1.17h-1.673v-1.43H44.1v-1.17h-2.85v2.6h-.943v1.17h.942V570h1.178v-5.33H44.1Zm11.89 4.16v-4.16h1.554v-1.17H55.99v-2.6H54.81v2.6h-.943v1.17h.943V570h2.732v-1.17H55.99Zm5.207-7.93v9.1h1.177v-5.33h2.592V570h1.177v-6.5h-3.769v-2.6h-1.177Zm11.354 9.23c.448 0 .778 0 1.696-.26v-1.144c-.765.234-1.225.234-1.696.234-1.378 0-1.708-.715-1.79-1.625h3.887v-.715c0-2.041-.73-3.25-2.544-3.25s-2.544 1.339-2.544 3.38c0 1.287.33 3.38 2.991 3.38Zm-1.814-3.965c.06-1.053.46-1.625 1.367-1.625.954 0 1.342.494 1.366 1.625h-2.733Zm17.124 3.965c1.46 0 1.92-.858 2.132-1.365h.188V570h1.177v-4.407h-4.263v1.17h3.086c-.118 1.144-.719 2.197-2.085 2.197-1.696 0-2.497-.897-2.497-3.38 0-2.483.683-3.38 2.38-3.38 1.366 0 1.884.793 1.978 1.937h1.166c-.118-1.82-1.19-3.107-3.144-3.107-2.568 0-3.557 2.21-3.557 4.55s.989 4.55 3.439 4.55Zm10.476-5.46v-1.17h-3.44v6.5h1.178v-5.33h2.262Zm5.882 5.46c.448 0 .778 0 1.696-.26v-1.144c-.765.234-1.225.234-1.696.234-1.378 0-1.708-.715-1.79-1.625h3.887v-.715c0-2.041-.73-3.25-2.544-3.25s-2.544 1.339-2.544 3.38c0 1.287.329 3.38 2.991 3.38Zm-1.814-3.965c.059-1.053.46-1.625 1.367-1.625.954 0 1.342.494 1.366 1.625h-2.733Zm9.08 3.965c.825 0 1.284-.26 1.638-.78v.65h1.884v-1.3h-.707v-5.2h-4.24v1.17h3.063v1.69c-.354-.52-.813-.78-1.638-.78-1.436 0-2.108 1.144-2.108 2.275s.672 2.275 2.108 2.275Zm.354-1.17c-.86 0-1.284-.455-1.284-1.105 0-.65.424-1.105 1.284-1.105.86 0 1.284.455 1.284 1.105 0 .65-.424 1.105-1.284 1.105Zm7.993-.13v-4.16h1.554v-1.17h-1.554v-2.6h-1.178v2.6h-.943v1.17h.943V570h2.732v-1.17h-1.554Zm-86.572 20v-7.67h-1.178V590h4.452v-1.17H33.26Zm9.44 1.3c.448 0 .778 0 1.697-.26v-1.144c-.766.234-1.225.234-1.696.234-1.378 0-1.708-.715-1.79-1.625h3.886v-.715c0-2.041-.73-3.25-2.544-3.25s-2.544 1.339-2.544 3.38c0 1.287.33 3.38 2.992 3.38Zm-1.813-3.965c.059-1.053.46-1.625 1.366-1.625.954 0 1.343.494 1.366 1.625h-2.732Zm9.08 3.965c.825 0 1.284-.26 1.637-.78v.65h1.885v-1.3h-.707v-5.2h-4.24v1.17h3.062v1.69c-.353-.52-.812-.78-1.637-.78-1.437 0-2.108 1.144-2.108 2.275s.671 2.275 2.108 2.275Zm.353-1.17c-.86 0-1.283-.455-1.283-1.105 0-.65.424-1.105 1.283-1.105.86 0 1.284.455 1.284 1.105 0 .65-.424 1.105-1.284 1.105Zm9.64-5.59c-.825 0-1.402.351-1.756.91v-.78h-1.178v8.58h1.178v-2.86c.354.559.93.91 1.755.91 1.908 0 2.58-1.469 2.58-3.38 0-1.911-.672-3.38-2.58-3.38Zm-.178 5.59c-1.154 0-1.578-.65-1.578-2.21s.424-2.21 1.578-2.21c1.155 0 1.579.65 1.579 2.21s-.424 2.21-1.578 2.21Z"/><path fill="#fff" fill-opacity=".33" d="m33.73 612.83 1.838-1.963c1.025-1.092 1.555-1.846 1.555-3.107 0-1.261-.672-2.73-2.58-2.73s-2.58 1.469-2.58 3.12h1.179c0-1.3.424-1.95 1.401-1.95.978 0 1.402.585 1.402 1.495 0 .949-.471 1.521-1.531 2.613l-2.45 2.522V614h5.04v-1.17h-3.273Zm9.38 1.3c2.026 0 2.697-1.469 2.697-2.86 0-1.781-1.095-2.6-2.567-2.34l2.332-2.6v-1.17h-4.806v1.17h3.25l-2.084 2.34.471 1.17h.884c.742 0 1.342.325 1.342 1.43 0 1.04-.424 1.69-1.519 1.69s-1.52-.65-1.52-1.69h-1.177c0 1.391.671 2.86 2.697 2.86Zm9.438-9.1c-2.45 0-3.203 2.08-3.203 4.55 0 2.47.754 4.55 3.203 4.55 2.45 0 3.204-2.08 3.204-4.55 0-2.47-.754-4.55-3.204-4.55Zm2.026 4.55c0 .728-.047 1.326-.153 1.807l-3.097-4.836c.306-.234.706-.351 1.224-.351 1.567 0 2.026 1.027 2.026 3.38Zm-4.051 0c0-.715.047-1.313.14-1.794l3.099 4.823c-.295.234-.695.351-1.214.351-1.578 0-2.025-1.027-2.025-3.38Zm11.855-4.55c-2.45 0-3.204 2.08-3.204 4.55 0 2.47.754 4.55 3.204 4.55s3.203-2.08 3.203-4.55c0-2.47-.754-4.55-3.203-4.55Zm2.025 4.55c0 .728-.047 1.326-.153 1.807l-3.097-4.836c.306-.234.706-.351 1.225-.351 1.566 0 2.025 1.027 2.025 3.38Zm-4.051 0c0-.715.047-1.313.141-1.794l3.098 4.823c-.295.234-.695.351-1.213.351-1.579 0-2.026-1.027-2.026-3.38Zm8.881-.078v1.17h4.146v-1.17h-4.146Zm9.56 3.328 1.838-1.963c1.024-1.092 1.554-1.846 1.554-3.107 0-1.261-.671-2.73-2.58-2.73-1.907 0-2.579 1.469-2.579 3.12h1.178c0-1.3.424-1.95 1.402-1.95s1.401.585 1.401 1.495c0 .949-.47 1.521-1.53 2.613l-2.45 2.522V614h5.04v-1.17h-3.274Zm9.38 1.3c2.025 0 2.697-1.469 2.697-2.86 0-1.781-1.096-2.6-2.568-2.34l2.332-2.6v-1.17H85.83v1.17h3.25l-2.084 2.34.471 1.17h.883c.742 0 1.343.325 1.343 1.43 0 1.04-.424 1.69-1.52 1.69-1.095 0-1.519-.65-1.519-1.69h-1.178c0 1.391.672 2.86 2.698 2.86Zm9.144 0c2.273 0 2.909-1.3 2.909-2.47 0-1.118-.318-1.976-1.755-2.366v-.208c1.025-.39 1.284-.962 1.284-1.846 0-1.17-.636-2.21-2.438-2.21s-2.438 1.04-2.438 2.21c0 .884.259 1.456 1.283 1.846v.208c-1.436.39-1.754 1.235-1.754 2.366 0 1.17.636 2.47 2.909 2.47Zm0-5.525c-.93 0-1.26-.507-1.26-1.17 0-.793.33-1.235 1.26-1.235.919 0 1.26.442 1.26 1.235 0 .663-.341 1.17-1.26 1.17Zm0 4.355c-1.402 0-1.732-.702-1.732-1.625s.33-1.56 1.732-1.56c1.39 0 1.731.637 1.731 1.56s-.341 1.625-1.731 1.625Zm9.324-7.93c-2.661 0-2.991 2.353-2.991 3.64v1.69c0 2.288.73 3.77 2.815 3.77 2.084 0 2.815-1.469 2.815-3.12s-.731-3.12-2.639-3.12c-.824 0-1.46.481-1.813.91 0-1.157.035-2.6 1.813-2.6.472 0 1.049 0 1.814.234v-1.144c-.918-.26-1.366-.26-1.814-.26Zm-.176 4.017c1.154 0 1.637.663 1.637 1.963s-.483 1.95-1.637 1.95c-1.155 0-1.637-1.04-1.637-2.08 0-1.17.482-1.833 1.637-1.833Z"/><path fill="#fff" d="M38.065 826.33v-1.17h-6.101v1.17h2.461V834h1.178v-7.67h2.462Zm3.408-1.43v9.1h1.178v-5.33h2.591V834h1.178v-6.5h-3.769v-2.6h-1.178Zm11.355 9.23c.447 0 .777 0 1.696-.26v-1.144c-.766.234-1.225.234-1.696.234-1.378 0-1.708-.715-1.79-1.625h3.886v-.715c0-2.041-.73-3.25-2.544-3.25s-2.544 1.339-2.544 3.38c0 1.287.33 3.38 2.992 3.38Zm-1.814-3.965c.059-1.053.46-1.625 1.366-1.625.954 0 1.343.494 1.367 1.625h-2.733Zm15.098 2.665v-7.67h-1.178V834h4.452v-1.17h-3.274Zm9.44 1.3c.448 0 .777 0 1.696-.26v-1.144c-.765.234-1.225.234-1.696.234-1.378 0-1.708-.715-1.79-1.625h3.887v-.715c0-2.041-.73-3.25-2.544-3.25s-2.544 1.339-2.544 3.38c0 1.287.33 3.38 2.991 3.38Zm-1.814-3.965c.06-1.053.46-1.625 1.367-1.625.954 0 1.342.494 1.366 1.625h-2.733Zm9.08 3.965c.825 0 1.285-.26 1.638-.78v.65h1.884v-1.3h-.706v-5.2h-4.24v1.17h3.062v1.69c-.353-.52-.813-.78-1.637-.78-1.437 0-2.109 1.144-2.109 2.275s.672 2.275 2.109 2.275Zm.354-1.17c-.86 0-1.284-.455-1.284-1.105 0-.65.424-1.105 1.284-1.105.86 0 1.284.455 1.284 1.105 0 .65-.424 1.105-1.284 1.105Zm9.639-5.59c-.825 0-1.402.351-1.755.91v-.78h-1.178v8.58h1.178v-2.86c.353.559.93.91 1.755.91 1.908 0 2.58-1.469 2.58-3.38 0-1.911-.672-3.38-2.58-3.38Zm-.177 5.59c-1.154 0-1.578-.65-1.578-2.21s.424-2.21 1.578-2.21c1.154 0 1.578.65 1.578 2.21s-.424 2.21-1.578 2.21Zm-57.973 21.17c1.79 0 2.815-1.339 2.815-3.38s-1.025-3.38-2.815-3.38-2.815 1.339-2.815 3.38 1.024 3.38 2.815 3.38Zm0-1.17c-1.214 0-1.638-.52-1.638-2.21s.424-2.21 1.638-2.21c1.213 0 1.637.52 1.637 2.21s-.424 2.21-1.637 2.21Zm9.438-4.29v-1.17h-1.673v-1.43H44.1v-1.17h-2.85v2.6h-.943v1.17h.942V854h1.178v-5.33H44.1Zm11.371-.988L59.286 854h1.178v-8.84h-1.178v6.318h-.188l-3.816-6.318h-1.178V854h1.178v-6.318h.188Zm10.635 6.448c.824 0 1.284-.26 1.637-.78v.65h1.884v-1.3h-.706v-5.2h-4.24v1.17h3.062v1.69c-.353-.52-.813-.78-1.637-.78-1.437 0-2.109 1.144-2.109 2.275s.672 2.275 2.109 2.275Zm.353-1.17c-.86 0-1.284-.455-1.284-1.105 0-.65.424-1.105 1.284-1.105.86 0 1.284.455 1.284 1.105 0 .65-.424 1.105-1.284 1.105Zm8.676-1.612 1.65 2.652h1.424l-2.014-3.237 2.014-3.263h-1.425l-1.649 2.678h-.918V844.9h-1.178v9.1h1.178v-2.652h.918Zm8.896 2.782c1.731 0 2.638-.819 2.638-2.99v-3.64H85.49v3.9c0 1.17-.423 1.56-1.46 1.56-1.036 0-1.46-.39-1.46-1.56v-3.9h-1.178v3.64c0 2.171.907 2.99 2.638 2.99Z"/><path fill="#fff" fill-opacity=".33" d="m33.73 876.83 1.838-1.963c1.025-1.092 1.555-1.846 1.555-3.107 0-1.261-.672-2.73-2.58-2.73s-2.58 1.469-2.58 3.12h1.179c0-1.3.424-1.95 1.401-1.95.978 0 1.402.585 1.402 1.495 0 .949-.471 1.521-1.531 2.613l-2.45 2.522V878h5.04v-1.17h-3.273Zm9.38 1.3c2.026 0 2.697-1.469 2.697-2.86 0-1.781-1.095-2.6-2.567-2.34l2.332-2.6v-1.17h-4.806v1.17h3.25l-2.084 2.34.471 1.17h.884c.742 0 1.342.325 1.342 1.43 0 1.04-.424 1.69-1.519 1.69s-1.52-.65-1.52-1.69h-1.177c0 1.391.671 2.86 2.697 2.86Zm9.438-9.1c-2.45 0-3.203 2.08-3.203 4.55 0 2.47.754 4.55 3.203 4.55 2.45 0 3.204-2.08 3.204-4.55 0-2.47-.754-4.55-3.204-4.55Zm2.026 4.55c0 .728-.047 1.326-.153 1.807l-3.097-4.836c.306-.234.706-.351 1.224-.351 1.567 0 2.026 1.027 2.026 3.38Zm-4.051 0c0-.715.047-1.313.14-1.794l3.099 4.823c-.295.234-.695.351-1.214.351-1.578 0-2.025-1.027-2.025-3.38Zm11.855-4.55c-2.45 0-3.204 2.08-3.204 4.55 0 2.47.754 4.55 3.204 4.55s3.203-2.08 3.203-4.55c0-2.47-.754-4.55-3.203-4.55Zm2.025 4.55c0 .728-.047 1.326-.153 1.807l-3.097-4.836c.306-.234.706-.351 1.225-.351 1.566 0 2.025 1.027 2.025 3.38Zm-4.051 0c0-.715.047-1.313.141-1.794l3.098 4.823c-.295.234-.695.351-1.213.351-1.579 0-2.026-1.027-2.026-3.38Zm8.881-.078v1.17h4.146v-1.17h-4.146Zm9.56 3.328 1.838-1.963c1.024-1.092 1.554-1.846 1.554-3.107 0-1.261-.671-2.73-2.58-2.73-1.907 0-2.579 1.469-2.579 3.12h1.178c0-1.3.424-1.95 1.402-1.95s1.401.585 1.401 1.495c0 .949-.47 1.521-1.53 2.613l-2.45 2.522V878h5.04v-1.17h-3.274Zm9.38 1.3c2.025 0 2.697-1.469 2.697-2.86 0-1.781-1.096-2.6-2.568-2.34l2.332-2.6v-1.17H85.83v1.17h3.25l-2.084 2.34.471 1.17h.883c.742 0 1.343.325 1.343 1.43 0 1.04-.424 1.69-1.52 1.69-1.095 0-1.519-.65-1.519-1.69h-1.178c0 1.391.672 2.86 2.698 2.86Zm9.144 0c2.273 0 2.909-1.3 2.909-2.47 0-1.118-.318-1.976-1.755-2.366v-.208c1.025-.39 1.284-.962 1.284-1.846 0-1.17-.636-2.21-2.438-2.21s-2.438 1.04-2.438 2.21c0 .884.259 1.456 1.283 1.846v.208c-1.436.39-1.754 1.235-1.754 2.366 0 1.17.636 2.47 2.909 2.47Zm0-5.525c-.93 0-1.26-.507-1.26-1.17 0-.793.33-1.235 1.26-1.235.919 0 1.26.442 1.26 1.235 0 .663-.341 1.17-1.26 1.17Zm0 4.355c-1.402 0-1.732-.702-1.732-1.625s.33-1.56 1.732-1.56c1.39 0 1.731.637 1.731 1.56s-.341 1.625-1.731 1.625Zm9.324-7.93c-2.661 0-2.991 2.353-2.991 3.64v1.69c0 2.288.73 3.77 2.815 3.77 2.084 0 2.815-1.469 2.815-3.12s-.731-3.12-2.639-3.12c-.824 0-1.46.481-1.813.91 0-1.157.035-2.6 1.813-2.6.472 0 1.049 0 1.814.234v-1.144c-.918-.26-1.366-.26-1.814-.26Zm-.176 4.017c1.154 0 1.637.663 1.637 1.963s-.483 1.95-1.637 1.95c-1.155 0-1.637-1.04-1.637-2.08 0-1.17.482-1.833 1.637-1.833Z"/><path fill="#fff" d="M38.065 233.33v-1.17h-6.101v1.17h2.462V241h1.177v-7.67h2.462Zm3.409-1.43v9.1h1.178v-5.33h2.59V241h1.178v-6.5h-3.769v-2.6h-1.177Zm11.354 9.23c.448 0 .777 0 1.696-.26v-1.144c-.765.234-1.225.234-1.696.234-1.378 0-1.708-.715-1.79-1.625h3.887v-.715c0-2.041-.73-3.25-2.544-3.25s-2.544 1.339-2.544 3.38c0 1.287.33 3.38 2.991 3.38Zm-1.814-3.965c.06-1.053.46-1.625 1.367-1.625.954 0 1.342.494 1.366 1.625h-2.733Zm17.194 3.965c1.873 0 3.016-.702 3.016-2.509 0-1.703-.86-2.184-3.122-2.756-1.378-.351-1.99-.637-1.99-1.43 0-.923.577-1.235 1.52-1.235.753 0 1.778.286 2.956.741v-1.17c-.79-.429-1.85-.741-2.804-.741-1.707 0-2.85.676-2.85 2.366 0 1.378.624 2.054 2.921 2.639 1.355.338 2.19.598 2.19 1.56 0 1.118-.788 1.365-1.837 1.365-1.06 0-2.284-.442-3.392-1.274v1.287c.813.689 2.262 1.157 3.392 1.157Zm9.311 0c.448 0 .778 0 1.696-.26v-1.144c-.765.234-1.225.234-1.696.234-1.378 0-1.708-.715-1.79-1.625h3.887v-.715c0-2.041-.73-3.25-2.544-3.25s-2.544 1.339-2.544 3.38c0 1.287.33 3.38 2.991 3.38Zm-1.814-3.965c.06-1.053.46-1.625 1.367-1.625.954 0 1.342.494 1.366 1.625h-2.733Zm9.702 3.965c1.378 0 2.215-.845 2.215-1.95 0-1.196-.636-1.599-2.38-2.119-1-.299-1.154-.546-1.154-.91 0-.325.2-.611.801-.611.648 0 1.402.208 2.261.676v-1.17c-.577-.442-1.354-.676-2.143-.676-1.26 0-2.097.741-2.097 1.82 0 1.027.46 1.638 2.144 2.041 1.083.26 1.39.507 1.39.962 0 .403-.271.767-1.037.767-.871 0-1.425-.234-2.497-.975v1.313c.86.637 1.579.832 2.497.832Zm8.2 0c1.79 0 2.815-1.339 2.815-3.38s-1.024-3.38-2.815-3.38c-1.79 0-2.815 1.339-2.815 3.38s1.025 3.38 2.815 3.38Zm0-1.17c-1.213 0-1.637-.52-1.637-2.21s.424-2.21 1.637-2.21 1.638.52 1.638 2.21-.425 2.21-1.638 2.21Zm9.889-4.29V241h1.178v-6.5h-4.947v6.5h1.178v-5.33h2.591Zm8.932-.39c-.354-.559-.931-.91-1.755-.91-1.908 0-2.58 1.469-2.58 3.38 0 1.911.672 3.38 2.58 3.38.824 0 1.401-.351 1.755-.91v.78h1.178v-9.1h-1.178v3.38Zm-1.579 4.68c-1.154 0-1.578-.65-1.578-2.21s.424-2.21 1.578-2.21c1.155 0 1.579.65 1.579 2.21s-.424 2.21-1.579 2.21Zm-77.59 19.87v-7.67h-1.177V261h4.452v-1.17H33.26Zm9.441 1.3c.448 0 .777 0 1.696-.26v-1.144c-.766.234-1.225.234-1.696.234-1.378 0-1.708-.715-1.79-1.625h3.887v-.715c0-2.041-.73-3.25-2.545-3.25-1.813 0-2.544 1.339-2.544 3.38 0 1.287.33 3.38 2.992 3.38Zm-1.814-3.965c.06-1.053.46-1.625 1.366-1.625.954 0 1.343.494 1.367 1.625h-2.733Zm9.08 3.965c.825 0 1.284-.26 1.638-.78v.65h1.884v-1.3h-.707v-5.2h-4.24v1.17h3.063v1.69c-.354-.52-.813-.78-1.637-.78-1.437 0-2.109 1.144-2.109 2.275s.672 2.275 2.109 2.275Zm.354-1.17c-.86 0-1.284-.455-1.284-1.105 0-.65.424-1.105 1.284-1.105.86 0 1.284.455 1.284 1.105 0 .65-.424 1.105-1.284 1.105Zm9.639-5.59c-.825 0-1.402.351-1.755.91v-.78h-1.178v8.58h1.178v-2.86c.353.559.93.91 1.755.91 1.908 0 2.579-1.469 2.579-3.38 0-1.911-.671-3.38-2.58-3.38Zm-.177 5.59c-1.154 0-1.578-.65-1.578-2.21s.424-2.21 1.578-2.21c1.154 0 1.578.65 1.578 2.21s-.424 2.21-1.578 2.21Z"/><path fill="#fff" fill-opacity=".33" d="m33.73 283.83 1.838-1.963c1.025-1.092 1.555-1.846 1.555-3.107 0-1.261-.672-2.73-2.58-2.73s-2.58 1.469-2.58 3.12h1.179c0-1.3.424-1.95 1.401-1.95.978 0 1.402.585 1.402 1.495 0 .949-.471 1.521-1.531 2.613l-2.45 2.522V285h5.04v-1.17h-3.273Zm9.38 1.3c2.026 0 2.697-1.469 2.697-2.86 0-1.781-1.095-2.6-2.567-2.34l2.332-2.6v-1.17h-4.806v1.17h3.25l-2.084 2.34.471 1.17h.884c.742 0 1.342.325 1.342 1.43 0 1.04-.424 1.69-1.519 1.69s-1.52-.65-1.52-1.69h-1.177c0 1.391.671 2.86 2.697 2.86Zm9.438-9.1c-2.45 0-3.203 2.08-3.203 4.55 0 2.47.754 4.55 3.203 4.55 2.45 0 3.204-2.08 3.204-4.55 0-2.47-.754-4.55-3.204-4.55Zm2.026 4.55c0 .728-.047 1.326-.153 1.807l-3.097-4.836c.306-.234.706-.351 1.224-.351 1.567 0 2.026 1.027 2.026 3.38Zm-4.051 0c0-.715.047-1.313.14-1.794l3.099 4.823c-.295.234-.695.351-1.214.351-1.578 0-2.025-1.027-2.025-3.38Zm11.855-4.55c-2.45 0-3.204 2.08-3.204 4.55 0 2.47.754 4.55 3.204 4.55s3.203-2.08 3.203-4.55c0-2.47-.754-4.55-3.203-4.55Zm2.025 4.55c0 .728-.047 1.326-.153 1.807l-3.097-4.836c.306-.234.706-.351 1.225-.351 1.566 0 2.025 1.027 2.025 3.38Zm-4.051 0c0-.715.047-1.313.141-1.794l3.098 4.823c-.295.234-.695.351-1.213.351-1.579 0-2.026-1.027-2.026-3.38Zm8.881-.078v1.17h4.146v-1.17h-4.146Zm9.56 3.328 1.838-1.963c1.024-1.092 1.554-1.846 1.554-3.107 0-1.261-.671-2.73-2.58-2.73-1.907 0-2.579 1.469-2.579 3.12h1.178c0-1.3.424-1.95 1.402-1.95s1.401.585 1.401 1.495c0 .949-.47 1.521-1.53 2.613l-2.45 2.522V285h5.04v-1.17h-3.274Zm9.38 1.3c2.025 0 2.697-1.469 2.697-2.86 0-1.781-1.096-2.6-2.568-2.34l2.332-2.6v-1.17H85.83v1.17h3.25l-2.084 2.34.471 1.17h.883c.742 0 1.343.325 1.343 1.43 0 1.04-.424 1.69-1.52 1.69-1.095 0-1.519-.65-1.519-1.69h-1.178c0 1.391.672 2.86 2.698 2.86Zm9.144 0c2.273 0 2.909-1.3 2.909-2.47 0-1.118-.318-1.976-1.755-2.366v-.208c1.025-.39 1.284-.962 1.284-1.846 0-1.17-.636-2.21-2.438-2.21s-2.438 1.04-2.438 2.21c0 .884.259 1.456 1.283 1.846v.208c-1.436.39-1.754 1.235-1.754 2.366 0 1.17.636 2.47 2.909 2.47Zm0-5.525c-.93 0-1.26-.507-1.26-1.17 0-.793.33-1.235 1.26-1.235.919 0 1.26.442 1.26 1.235 0 .663-.341 1.17-1.26 1.17Zm0 4.355c-1.402 0-1.732-.702-1.732-1.625s.33-1.56 1.732-1.56c1.39 0 1.731.637 1.731 1.56s-.341 1.625-1.731 1.625Zm9.324-7.93c-2.661 0-2.991 2.353-2.991 3.64v1.69c0 2.288.73 3.77 2.815 3.77 2.084 0 2.815-1.469 2.815-3.12s-.731-3.12-2.639-3.12c-.824 0-1.46.481-1.813.91 0-1.157.035-2.6 1.813-2.6.472 0 1.049 0 1.814.234v-1.144c-.918-.26-1.366-.26-1.814-.26Zm-.176 4.017c1.154 0 1.637.663 1.637 1.963s-.483 1.95-1.637 1.95c-1.155 0-1.637-1.04-1.637-2.08 0-1.17.482-1.833 1.637-1.833Z"/><path fill="#fff" d="M38.065 2.33V1.16h-6.101v1.17h2.462V10h1.177V2.33h2.462ZM41.474.9V10h1.178V4.67h2.59V10h1.178V3.5h-3.768V.9h-1.178Zm11.354 9.23c.448 0 .778 0 1.696-.26V8.726c-.765.234-1.225.234-1.696.234-1.378 0-1.708-.715-1.79-1.625h3.887V6.62c0-2.041-.73-3.25-2.544-3.25s-2.544 1.339-2.544 3.38c0 1.287.33 3.38 2.991 3.38Zm-1.814-3.965c.06-1.053.46-1.625 1.367-1.625.954 0 1.342.494 1.366 1.625h-2.733Zm18.384.39v-1.17h-3.286V2.33h3.981V1.16h-5.159V10h1.178V6.555h3.286ZM73.51.9v1.3h1.177V.9H73.51Zm0 2.6V10h1.177V3.5H73.51Zm8.273 1.17V3.5h-3.439V10h1.178V4.67h2.261Zm5.678 5.46c1.378 0 2.215-.845 2.215-1.95 0-1.196-.637-1.599-2.38-2.119-1-.299-1.154-.546-1.154-.91 0-.325.2-.611.801-.611.648 0 1.401.208 2.261.676v-1.17c-.577-.442-1.354-.676-2.143-.676-1.26 0-2.097.741-2.097 1.82 0 1.027.46 1.638 2.144 2.041 1.083.26 1.39.507 1.39.962 0 .403-.271.767-1.037.767-.871 0-1.425-.234-2.497-.975v1.313c.86.637 1.579.832 2.497.832Zm7.16-1.3V4.67h1.555V3.5h-1.555V.9h-1.177v2.6H92.5v1.17h.942V10h2.733V8.83h-1.555Zm12.741 0V1.16h-1.177V10h4.452V8.83h-3.275Zm9.441 1.3c.448 0 .777 0 1.696-.26V8.726c-.765.234-1.225.234-1.696.234-1.378 0-1.708-.715-1.79-1.625h3.887V6.62c0-2.041-.731-3.25-2.545-3.25-1.813 0-2.544 1.339-2.544 3.38 0 1.287.33 3.38 2.992 3.38Zm-1.814-3.965c.059-1.053.46-1.625 1.366-1.625.955 0 1.343.494 1.367 1.625h-2.733Zm9.08 3.965c.825 0 1.284-.26 1.637-.78V10h1.885V8.7h-.707V3.5h-4.24v1.17h3.062v1.69c-.353-.52-.812-.78-1.637-.78-1.437 0-2.108 1.144-2.108 2.275s.671 2.275 2.108 2.275Zm.354-1.17c-.86 0-1.284-.455-1.284-1.105 0-.65.424-1.105 1.284-1.105.859 0 1.283.455 1.283 1.105 0 .65-.424 1.105-1.283 1.105Zm9.639-5.59c-.825 0-1.402.351-1.755.91V3.5h-1.178v8.58h1.178V9.22c.353.559.93.91 1.755.91 1.908 0 2.579-1.469 2.579-3.38 0-1.911-.671-3.38-2.579-3.38Zm-.177 5.59c-1.154 0-1.578-.65-1.578-2.21s.424-2.21 1.578-2.21c1.154 0 1.578.65 1.578 2.21s-.424 2.21-1.578 2.21Z"/><path fill="#fff" fill-opacity=".33" d="m33.73 32.83 1.838-1.963c1.025-1.092 1.555-1.846 1.555-3.107 0-1.261-.672-2.73-2.58-2.73s-2.58 1.469-2.58 3.12h1.179c0-1.3.424-1.95 1.401-1.95.978 0 1.402.585 1.402 1.495 0 .949-.471 1.521-1.531 2.613l-2.45 2.522V34h5.04v-1.17h-3.273Zm9.38 1.3c2.026 0 2.697-1.469 2.697-2.86 0-1.781-1.095-2.6-2.567-2.34l2.332-2.6v-1.17h-4.806v1.17h3.25l-2.084 2.34.471 1.17h.884c.742 0 1.342.325 1.342 1.43 0 1.04-.424 1.69-1.519 1.69s-1.52-.65-1.52-1.69h-1.177c0 1.391.671 2.86 2.697 2.86Zm9.438-9.1c-2.45 0-3.203 2.08-3.203 4.55 0 2.47.754 4.55 3.203 4.55 2.45 0 3.204-2.08 3.204-4.55 0-2.47-.754-4.55-3.204-4.55Zm2.026 4.55c0 .728-.047 1.326-.153 1.807l-3.097-4.836c.306-.234.706-.351 1.224-.351 1.567 0 2.026 1.027 2.026 3.38Zm-4.051 0c0-.715.047-1.313.14-1.794l3.099 4.823c-.295.234-.695.351-1.214.351-1.578 0-2.025-1.027-2.025-3.38Zm11.855-4.55c-2.45 0-3.204 2.08-3.204 4.55 0 2.47.754 4.55 3.204 4.55s3.203-2.08 3.203-4.55c0-2.47-.754-4.55-3.203-4.55Zm2.025 4.55c0 .728-.047 1.326-.153 1.807l-3.097-4.836c.306-.234.706-.351 1.225-.351 1.566 0 2.025 1.027 2.025 3.38Zm-4.051 0c0-.715.047-1.313.141-1.794l3.098 4.823c-.295.234-.695.351-1.213.351-1.579 0-2.026-1.027-2.026-3.38Zm8.881-.078v1.17h4.146v-1.17h-4.146Zm9.56 3.328 1.838-1.963c1.024-1.092 1.554-1.846 1.554-3.107 0-1.261-.671-2.73-2.58-2.73-1.907 0-2.579 1.469-2.579 3.12h1.178c0-1.3.424-1.95 1.402-1.95s1.401.585 1.401 1.495c0 .949-.47 1.521-1.53 2.613l-2.45 2.522V34h5.04v-1.17h-3.274Zm9.38 1.3c2.025 0 2.697-1.469 2.697-2.86 0-1.781-1.096-2.6-2.568-2.34l2.332-2.6v-1.17H85.83v1.17h3.25l-2.084 2.34.471 1.17h.883c.742 0 1.343.325 1.343 1.43 0 1.04-.424 1.69-1.52 1.69-1.095 0-1.519-.65-1.519-1.69h-1.178c0 1.391.672 2.86 2.698 2.86Zm9.144 0c2.273 0 2.909-1.3 2.909-2.47 0-1.118-.318-1.976-1.755-2.366v-.208c1.025-.39 1.284-.962 1.284-1.846 0-1.17-.636-2.21-2.438-2.21s-2.438 1.04-2.438 2.21c0 .884.259 1.456 1.283 1.846v.208c-1.436.39-1.754 1.235-1.754 2.366 0 1.17.636 2.47 2.909 2.47Zm0-5.525c-.93 0-1.26-.507-1.26-1.17 0-.793.33-1.235 1.26-1.235.919 0 1.26.442 1.26 1.235 0 .663-.341 1.17-1.26 1.17Zm0 4.355c-1.402 0-1.732-.702-1.732-1.625s.33-1.56 1.732-1.56c1.39 0 1.731.637 1.731 1.56s-.341 1.625-1.731 1.625Zm9.324-7.93c-2.661 0-2.991 2.353-2.991 3.64v1.69c0 2.288.73 3.77 2.815 3.77 2.084 0 2.815-1.469 2.815-3.12s-.731-3.12-2.639-3.12c-.824 0-1.46.481-1.813.91 0-1.157.035-2.6 1.813-2.6.472 0 1.049 0 1.814.234V25.29c-.918-.26-1.366-.26-1.814-.26Zm-.176 4.017c1.154 0 1.637.663 1.637 1.963s-.483 1.95-1.637 1.95c-1.155 0-1.637-1.04-1.637-2.08 0-1.17.482-1.833 1.637-1.833Z"/><path stroke="#FFA753" stroke-dasharray="6 8" d="m189.355 398-188.902.5M189.355 756H.906" opacity=".3"/></g><defs><clipPath id="a"><path fill="#fff" d="M0 0h190v879H0z"/></clipPath></defs></svg>