<svg width="190" height="879" viewBox="0 0 190 879" fill="none" xmlns="http://www.w3.org/2000/svg">
<g clip-path="url(#clip0_3813_1556)">
<path d="M38.0645 542.33V541.16H31.9635V542.33H34.4251V550H35.6029V542.33H38.0645ZM41.4734 540.9V550H42.6512V544.67H45.2423V550H46.4201V543.5H42.6512V540.9H41.4734ZM52.8279 550.13C53.2754 550.13 53.6052 550.13 54.5239 549.87V548.726C53.7583 548.96 53.299 548.96 52.8279 548.96C51.4498 548.96 51.12 548.245 51.0376 547.335H54.9244V546.62C54.9244 544.579 54.1941 543.37 52.3803 543.37C50.5665 543.37 49.8362 544.709 49.8362 546.75C49.8362 548.037 50.166 550.13 52.8279 550.13ZM51.014 546.165C51.0729 545.112 51.4734 544.54 52.3803 544.54C53.3343 544.54 53.723 545.034 53.7466 546.165H51.014ZM66.1116 548.83V546.035H69.1504V544.865H66.1116V542.33H70.0926V541.16H64.9338V550H70.0926V548.83H66.1116ZM77.0722 544.67V543.5H73.633V550H74.8108V544.67H77.0722ZM82.0135 550.13C82.838 550.13 83.2973 549.87 83.6507 549.35V550H85.5352V548.7H84.8285V543.5H80.5884V544.67H83.6507V546.36C83.2973 545.84 82.838 545.58 82.0135 545.58C80.5766 545.58 79.9053 546.724 79.9053 547.855C79.9053 548.986 80.5766 550.13 82.0135 550.13ZM82.3669 548.96C81.5071 548.96 81.0831 548.505 81.0831 547.855C81.0831 547.205 81.5071 546.75 82.3669 546.75C83.2267 546.75 83.6507 547.205 83.6507 547.855C83.6507 548.505 83.2267 548.96 82.3669 548.96ZM34.6607 570.13C36.4509 570.13 37.4756 568.791 37.4756 566.75C37.4756 564.709 36.4509 563.37 34.6607 563.37C32.8704 563.37 31.8457 564.709 31.8457 566.75C31.8457 568.791 32.8704 570.13 34.6607 570.13ZM34.6607 568.96C33.4475 568.96 33.0235 568.44 33.0235 566.75C33.0235 565.06 33.4475 564.54 34.6607 564.54C35.8738 564.54 36.2978 565.06 36.2978 566.75C36.2978 568.44 35.8738 568.96 34.6607 568.96ZM44.0987 564.67V563.5H42.4262V562.07H44.0987V560.9H41.2484V563.5H40.3062V564.67H41.2484V570H42.4262V564.67H44.0987ZM55.9885 568.83V564.67H57.5432V563.5H55.9885V560.9H54.8107V563.5H53.8684V564.67H54.8107V570H57.5432V568.83H55.9885ZM61.1956 560.9V570H62.3734V564.67H64.9646V570H66.1424V563.5H62.3734V560.9H61.1956ZM72.5501 570.13C72.9977 570.13 73.3275 570.13 74.2462 569.87V568.726C73.4806 568.96 73.0213 568.96 72.5501 568.96C71.1721 568.96 70.8423 568.245 70.7599 567.335H74.6466V566.62C74.6466 564.579 73.9164 563.37 72.1026 563.37C70.2888 563.37 69.5585 564.709 69.5585 566.75C69.5585 568.037 69.8883 570.13 72.5501 570.13ZM70.7363 566.165C70.7952 565.112 71.1957 564.54 72.1026 564.54C73.0566 564.54 73.4453 565.034 73.4688 566.165H70.7363ZM87.8597 570.13C89.3202 570.13 89.7795 569.272 89.9915 568.765H90.18V570H91.3575V565.593H87.0941V566.763H90.18C90.0622 567.907 89.4615 568.96 88.0953 568.96C86.3992 568.96 85.5983 568.063 85.5983 565.58C85.5983 563.097 86.2815 562.2 87.9775 562.2C89.3438 562.2 89.862 562.993 89.9562 564.137H91.122C91.0042 562.317 89.9327 561.03 87.9775 561.03C85.4099 561.03 84.4205 563.24 84.4205 565.58C84.4205 567.92 85.4099 570.13 87.8597 570.13ZM98.3356 564.67V563.5H94.8964V570H96.0742V564.67H98.3356ZM104.218 570.13C104.666 570.13 104.996 570.13 105.914 569.87V568.726C105.149 568.96 104.689 568.96 104.218 568.96C102.84 568.96 102.51 568.245 102.428 567.335H106.315V566.62C106.315 564.579 105.585 563.37 103.771 563.37C101.957 563.37 101.227 564.709 101.227 566.75C101.227 568.037 101.556 570.13 104.218 570.13ZM102.404 566.165C102.463 565.112 102.864 564.54 103.771 564.54C104.725 564.54 105.113 565.034 105.137 566.165H102.404ZM111.484 570.13C112.309 570.13 112.768 569.87 113.122 569.35V570H115.006V568.7H114.299V563.5H110.059V564.67H113.122V566.36C112.768 565.84 112.309 565.58 111.484 565.58C110.048 565.58 109.376 566.724 109.376 567.855C109.376 568.986 110.048 570.13 111.484 570.13ZM111.838 568.96C110.978 568.96 110.554 568.505 110.554 567.855C110.554 567.205 110.978 566.75 111.838 566.75C112.698 566.75 113.122 567.205 113.122 567.855C113.122 568.505 112.698 568.96 111.838 568.96ZM119.831 568.83V564.67H121.385V563.5H119.831V560.9H118.653V563.5H117.71V564.67H118.653V570H121.385V568.83H119.831ZM33.2591 588.83V581.16H32.0813V590H36.5334V588.83H33.2591ZM42.6996 590.13C43.1472 590.13 43.477 590.13 44.3957 589.87V588.726C43.6301 588.96 43.1708 588.96 42.6996 588.96C41.3216 588.96 40.9918 588.245 40.9094 587.335H44.7961V586.62C44.7961 584.579 44.0659 583.37 42.2521 583.37C40.4383 583.37 39.708 584.709 39.708 586.75C39.708 588.037 40.0378 590.13 42.6996 590.13ZM40.8858 586.165C40.9447 585.112 41.3452 584.54 42.2521 584.54C43.2061 584.54 43.5948 585.034 43.6183 586.165H40.8858ZM49.9662 590.13C50.7906 590.13 51.25 589.87 51.6033 589.35V590H53.4878V588.7H52.7811V583.5H48.541V584.67H51.6033V586.36C51.25 585.84 50.7906 585.58 49.9662 585.58C48.5292 585.58 47.8579 586.724 47.8579 587.855C47.8579 588.986 48.5292 590.13 49.9662 590.13ZM50.3195 588.96C49.4597 588.96 49.0357 588.505 49.0357 587.855C49.0357 587.205 49.4597 586.75 50.3195 586.75C51.1793 586.75 51.6033 587.205 51.6033 587.855C51.6033 588.505 51.1793 588.96 50.3195 588.96ZM59.9582 583.37C59.1338 583.37 58.5566 583.721 58.2033 584.28V583.5H57.0255V592.08H58.2033V589.22C58.5566 589.779 59.1338 590.13 59.9582 590.13C61.8663 590.13 62.5376 588.661 62.5376 586.75C62.5376 584.839 61.8663 583.37 59.9582 583.37ZM59.7815 588.96C58.6273 588.96 58.2033 588.31 58.2033 586.75C58.2033 585.19 58.6273 584.54 59.7815 584.54C60.9358 584.54 61.3598 585.19 61.3598 586.75C61.3598 588.31 60.9358 588.96 59.7815 588.96Z" fill="#FFA753"/>
<path d="M33.7306 612.83L35.568 610.867C36.5927 609.775 37.1227 609.021 37.1227 607.76C37.1227 606.499 36.4513 605.03 34.5433 605.03C32.6352 605.03 31.9639 606.499 31.9639 608.15H33.1417C33.1417 606.85 33.5657 606.2 34.5433 606.2C35.5208 606.2 35.9449 606.785 35.9449 607.695C35.9449 608.644 35.4737 609.216 34.4137 610.308L31.9639 612.83V614H37.0049V612.83H33.7306ZM43.11 614.13C45.1358 614.13 45.8072 612.661 45.8072 611.27C45.8072 609.489 44.7118 608.67 43.2396 608.93L45.5716 606.33V605.16H40.7662V606.33H44.0169L41.9322 608.67L42.4033 609.84H43.2867C44.0287 609.84 44.6294 610.165 44.6294 611.27C44.6294 612.31 44.2054 612.96 43.11 612.96C42.0146 612.96 41.5906 612.31 41.5906 611.27H40.4128C40.4128 612.661 41.0842 614.13 43.11 614.13ZM52.5484 605.03C50.0986 605.03 49.3448 607.11 49.3448 609.58C49.3448 612.05 50.0986 614.13 52.5484 614.13C54.9982 614.13 55.752 612.05 55.752 609.58C55.752 607.11 54.9982 605.03 52.5484 605.03ZM54.5742 609.58C54.5742 610.308 54.5271 610.906 54.4211 611.387L51.3235 606.551C51.6297 606.317 52.0302 606.2 52.5484 606.2C54.1149 606.2 54.5742 607.227 54.5742 609.58ZM50.5226 609.58C50.5226 608.865 50.5697 608.267 50.6639 607.786L53.7616 612.609C53.4671 612.843 53.0666 612.96 52.5484 612.96C50.9701 612.96 50.5226 611.933 50.5226 609.58ZM62.3776 605.03C59.9277 605.03 59.1739 607.11 59.1739 609.58C59.1739 612.05 59.9277 614.13 62.3776 614.13C64.8274 614.13 65.5812 612.05 65.5812 609.58C65.5812 607.11 64.8274 605.03 62.3776 605.03ZM64.4034 609.58C64.4034 610.308 64.3563 610.906 64.2503 611.387L61.1527 606.551C61.4589 606.317 61.8593 606.2 62.3776 606.2C63.9441 606.2 64.4034 607.227 64.4034 609.58ZM60.3517 609.58C60.3517 608.865 60.3989 608.267 60.4931 607.786L63.5907 612.609C63.2963 612.843 62.8958 612.96 62.3776 612.96C60.7993 612.96 60.3517 611.933 60.3517 609.58ZM69.2332 609.502V610.672H73.3791V609.502H69.2332ZM78.7932 612.83L80.6306 610.867C81.6553 609.775 82.1853 609.021 82.1853 607.76C82.1853 606.499 81.514 605.03 79.6059 605.03C77.6979 605.03 77.0265 606.499 77.0265 608.15H78.2043C78.2043 606.85 78.6283 606.2 79.6059 606.2C80.5835 606.2 81.0075 606.785 81.0075 607.695C81.0075 608.644 80.5364 609.216 79.4764 610.308L77.0265 612.83V614H82.0675V612.83H78.7932ZM88.1726 614.13C90.1985 614.13 90.8696 612.661 90.8696 611.27C90.8696 609.489 89.7745 608.67 88.3022 608.93L90.6341 606.33V605.16H85.8288V606.33H89.0796L86.9948 608.67L87.466 609.84H88.3493C89.0913 609.84 89.692 610.165 89.692 611.27C89.692 612.31 89.268 612.96 88.1726 612.96C87.0773 612.96 86.6533 612.31 86.6533 611.27H85.4755C85.4755 612.661 86.1468 614.13 88.1726 614.13ZM97.3168 614.13C99.59 614.13 100.226 612.83 100.226 611.66C100.226 610.542 99.908 609.684 98.471 609.294V609.086C99.4957 608.696 99.7548 608.124 99.7548 607.24C99.7548 606.07 99.1188 605.03 97.3168 605.03C95.5147 605.03 94.8787 606.07 94.8787 607.24C94.8787 608.124 95.1378 608.696 96.1625 609.086V609.294C94.7256 609.684 94.4076 610.529 94.4076 611.66C94.4076 612.83 95.0436 614.13 97.3168 614.13ZM97.3168 608.605C96.3863 608.605 96.0565 608.098 96.0565 607.435C96.0565 606.642 96.3863 606.2 97.3168 606.2C98.2355 606.2 98.577 606.642 98.577 607.435C98.577 608.098 98.2355 608.605 97.3168 608.605ZM97.3168 612.96C95.9152 612.96 95.5854 612.258 95.5854 611.335C95.5854 610.412 95.9152 609.775 97.3168 609.775C98.7066 609.775 99.0482 610.412 99.0482 611.335C99.0482 612.258 98.7066 612.96 97.3168 612.96ZM106.641 605.03C103.98 605.03 103.65 607.383 103.65 608.67V610.36C103.65 612.648 104.38 614.13 106.465 614.13C108.549 614.13 109.28 612.661 109.28 611.01C109.28 609.359 108.549 607.89 106.641 607.89C105.817 607.89 105.181 608.371 104.828 608.8C104.828 607.643 104.863 606.2 106.641 606.2C107.113 606.2 107.69 606.2 108.455 606.434V605.29C107.537 605.03 107.089 605.03 106.641 605.03ZM106.465 609.047C107.619 609.047 108.102 609.71 108.102 611.01C108.102 612.31 107.619 612.96 106.465 612.96C105.31 612.96 104.828 611.92 104.828 610.88C104.828 609.71 105.31 609.047 106.465 609.047Z" fill="white" fill-opacity="0.33"/>
<path d="M38.0645 826.33V825.16H31.9635V826.33H34.4251V834H35.6029V826.33H38.0645ZM41.4734 824.9V834H42.6512V828.67H45.2423V834H46.4201V827.5H42.6512V824.9H41.4734ZM52.8279 834.13C53.2754 834.13 53.6052 834.13 54.5239 833.87V832.726C53.7583 832.96 53.299 832.96 52.8279 832.96C51.4498 832.96 51.12 832.245 51.0376 831.335H54.9244V830.62C54.9244 828.579 54.1941 827.37 52.3803 827.37C50.5665 827.37 49.8362 828.709 49.8362 830.75C49.8362 832.037 50.166 834.13 52.8279 834.13ZM51.014 830.165C51.0729 829.112 51.4734 828.54 52.3803 828.54C53.3343 828.54 53.723 829.034 53.7466 830.165H51.014ZM66.1116 832.83V825.16H64.9338V834H69.3859V832.83H66.1116ZM75.5522 834.13C75.9997 834.13 76.3295 834.13 77.2482 833.87V832.726C76.4826 832.96 76.0233 832.96 75.5522 832.96C74.1741 832.96 73.8444 832.245 73.7619 831.335H77.6487V830.62C77.6487 828.579 76.9184 827.37 75.1046 827.37C73.2908 827.37 72.5606 828.709 72.5606 830.75C72.5606 832.037 72.8903 834.13 75.5522 834.13ZM73.7384 830.165C73.7972 829.112 74.1977 828.54 75.1046 828.54C76.0586 828.54 76.4473 829.034 76.4709 830.165H73.7384ZM82.8187 834.13C83.6432 834.13 84.1025 833.87 84.4558 833.35V834H86.3403V832.7H85.6337V827.5H81.3936V828.67H84.4558V830.36C84.1025 829.84 83.6432 829.58 82.8187 829.58C81.3818 829.58 80.7104 830.724 80.7104 831.855C80.7104 832.986 81.3818 834.13 82.8187 834.13ZM83.172 832.96C82.3122 832.96 81.8882 832.505 81.8882 831.855C81.8882 831.205 82.3122 830.75 83.172 830.75C84.0318 830.75 84.4558 831.205 84.4558 831.855C84.4558 832.505 84.0318 832.96 83.172 832.96ZM92.8108 827.37C91.9863 827.37 91.4092 827.721 91.0558 828.28V827.5H89.8779V836.08H91.0558V833.22C91.4092 833.779 91.9863 834.13 92.8108 834.13C94.7188 834.13 95.3901 832.661 95.3901 830.75C95.3901 828.839 94.7188 827.37 92.8108 827.37ZM92.6341 832.96C91.4798 832.96 91.0558 832.31 91.0558 830.75C91.0558 829.19 91.4798 828.54 92.6341 828.54C93.7883 828.54 94.2123 829.19 94.2123 830.75C94.2123 832.31 93.7883 832.96 92.6341 832.96ZM34.6607 854.13C36.4509 854.13 37.4756 852.791 37.4756 850.75C37.4756 848.709 36.4509 847.37 34.6607 847.37C32.8704 847.37 31.8457 848.709 31.8457 850.75C31.8457 852.791 32.8704 854.13 34.6607 854.13ZM34.6607 852.96C33.4475 852.96 33.0235 852.44 33.0235 850.75C33.0235 849.06 33.4475 848.54 34.6607 848.54C35.8738 848.54 36.2978 849.06 36.2978 850.75C36.2978 852.44 35.8738 852.96 34.6607 852.96ZM44.0987 848.67V847.5H42.4262V846.07H44.0987V844.9H41.2484V847.5H40.3062V848.67H41.2484V854H42.4262V848.67H44.0987ZM55.4702 847.682L59.2863 854H60.4641V845.16H59.2863V851.478H59.0979L55.2818 845.16H54.104V854H55.2818V847.682H55.4702ZM66.1048 854.13C66.9293 854.13 67.3886 853.87 67.742 853.35V854H69.6265V852.7H68.9198V847.5H64.6797V848.67H67.742V850.36C67.3886 849.84 66.9293 849.58 66.1048 849.58C64.6679 849.58 63.9965 850.724 63.9965 851.855C63.9965 852.986 64.6679 854.13 66.1048 854.13ZM66.4582 852.96C65.5984 852.96 65.1744 852.505 65.1744 851.855C65.1744 851.205 65.5984 850.75 66.4582 850.75C67.318 850.75 67.742 851.205 67.742 851.855C67.742 852.505 67.318 852.96 66.4582 852.96ZM75.1341 851.348L76.7831 854H78.2082L76.1942 850.763L78.2082 847.5H76.7831L75.1341 850.178H74.2155V844.9H73.0377V854H74.2155V851.348H75.1341ZM84.03 854.13C85.7614 854.13 86.6683 853.311 86.6683 851.14V847.5H85.4905V851.4C85.4905 852.57 85.0665 852.96 84.03 852.96C82.9936 852.96 82.5695 852.57 82.5695 851.4V847.5H81.3917V851.14C81.3917 853.311 82.2987 854.13 84.03 854.13Z" fill="white"/>
<path d="M33.7306 876.83L35.568 874.867C36.5927 873.775 37.1227 873.021 37.1227 871.76C37.1227 870.499 36.4513 869.03 34.5433 869.03C32.6352 869.03 31.9639 870.499 31.9639 872.15H33.1417C33.1417 870.85 33.5657 870.2 34.5433 870.2C35.5208 870.2 35.9449 870.785 35.9449 871.695C35.9449 872.644 35.4737 873.216 34.4137 874.308L31.9639 876.83V878H37.0049V876.83H33.7306ZM43.11 878.13C45.1358 878.13 45.8072 876.661 45.8072 875.27C45.8072 873.489 44.7118 872.67 43.2396 872.93L45.5716 870.33V869.16H40.7662V870.33H44.0169L41.9322 872.67L42.4033 873.84H43.2867C44.0287 873.84 44.6294 874.165 44.6294 875.27C44.6294 876.31 44.2054 876.96 43.11 876.96C42.0146 876.96 41.5906 876.31 41.5906 875.27H40.4128C40.4128 876.661 41.0842 878.13 43.11 878.13ZM52.5484 869.03C50.0986 869.03 49.3448 871.11 49.3448 873.58C49.3448 876.05 50.0986 878.13 52.5484 878.13C54.9982 878.13 55.752 876.05 55.752 873.58C55.752 871.11 54.9982 869.03 52.5484 869.03ZM54.5742 873.58C54.5742 874.308 54.5271 874.906 54.4211 875.387L51.3235 870.551C51.6297 870.317 52.0302 870.2 52.5484 870.2C54.1149 870.2 54.5742 871.227 54.5742 873.58ZM50.5226 873.58C50.5226 872.865 50.5697 872.267 50.6639 871.786L53.7616 876.609C53.4671 876.843 53.0666 876.96 52.5484 876.96C50.9701 876.96 50.5226 875.933 50.5226 873.58ZM62.3776 869.03C59.9277 869.03 59.1739 871.11 59.1739 873.58C59.1739 876.05 59.9277 878.13 62.3776 878.13C64.8274 878.13 65.5812 876.05 65.5812 873.58C65.5812 871.11 64.8274 869.03 62.3776 869.03ZM64.4034 873.58C64.4034 874.308 64.3563 874.906 64.2503 875.387L61.1527 870.551C61.4589 870.317 61.8593 870.2 62.3776 870.2C63.9441 870.2 64.4034 871.227 64.4034 873.58ZM60.3517 873.58C60.3517 872.865 60.3989 872.267 60.4931 871.786L63.5907 876.609C63.2963 876.843 62.8958 876.96 62.3776 876.96C60.7993 876.96 60.3517 875.933 60.3517 873.58ZM69.2332 873.502V874.672H73.3791V873.502H69.2332ZM78.7932 876.83L80.6306 874.867C81.6553 873.775 82.1853 873.021 82.1853 871.76C82.1853 870.499 81.514 869.03 79.6059 869.03C77.6979 869.03 77.0265 870.499 77.0265 872.15H78.2043C78.2043 870.85 78.6283 870.2 79.6059 870.2C80.5835 870.2 81.0075 870.785 81.0075 871.695C81.0075 872.644 80.5364 873.216 79.4764 874.308L77.0265 876.83V878H82.0675V876.83H78.7932ZM88.1726 878.13C90.1985 878.13 90.8696 876.661 90.8696 875.27C90.8696 873.489 89.7745 872.67 88.3022 872.93L90.6341 870.33V869.16H85.8288V870.33H89.0796L86.9948 872.67L87.466 873.84H88.3493C89.0913 873.84 89.692 874.165 89.692 875.27C89.692 876.31 89.268 876.96 88.1726 876.96C87.0773 876.96 86.6533 876.31 86.6533 875.27H85.4755C85.4755 876.661 86.1468 878.13 88.1726 878.13ZM97.3168 878.13C99.59 878.13 100.226 876.83 100.226 875.66C100.226 874.542 99.908 873.684 98.471 873.294V873.086C99.4957 872.696 99.7548 872.124 99.7548 871.24C99.7548 870.07 99.1188 869.03 97.3168 869.03C95.5147 869.03 94.8787 870.07 94.8787 871.24C94.8787 872.124 95.1378 872.696 96.1625 873.086V873.294C94.7256 873.684 94.4076 874.529 94.4076 875.66C94.4076 876.83 95.0436 878.13 97.3168 878.13ZM97.3168 872.605C96.3863 872.605 96.0565 872.098 96.0565 871.435C96.0565 870.642 96.3863 870.2 97.3168 870.2C98.2355 870.2 98.577 870.642 98.577 871.435C98.577 872.098 98.2355 872.605 97.3168 872.605ZM97.3168 876.96C95.9152 876.96 95.5854 876.258 95.5854 875.335C95.5854 874.412 95.9152 873.775 97.3168 873.775C98.7066 873.775 99.0482 874.412 99.0482 875.335C99.0482 876.258 98.7066 876.96 97.3168 876.96ZM106.641 869.03C103.98 869.03 103.65 871.383 103.65 872.67V874.36C103.65 876.648 104.38 878.13 106.465 878.13C108.549 878.13 109.28 876.661 109.28 875.01C109.28 873.359 108.549 871.89 106.641 871.89C105.817 871.89 105.181 872.371 104.828 872.8C104.828 871.643 104.863 870.2 106.641 870.2C107.113 870.2 107.69 870.2 108.455 870.434V869.29C107.537 869.03 107.089 869.03 106.641 869.03ZM106.465 873.047C107.619 873.047 108.102 873.71 108.102 875.01C108.102 876.31 107.619 876.96 106.465 876.96C105.31 876.96 104.828 875.92 104.828 874.88C104.828 873.71 105.31 873.047 106.465 873.047Z" fill="white" fill-opacity="0.33"/>
<path d="M38.0649 233.33V232.16H31.9639V233.33H34.4255V241H35.6033V233.33H38.0649ZM41.4737 231.9V241H42.6515V235.67H45.2427V241H46.4205V234.5H42.6515V231.9H41.4737ZM52.8282 241.13C53.2758 241.13 53.6055 241.13 54.5242 240.87V239.726C53.7587 239.96 53.2993 239.96 52.8282 239.96C51.4502 239.96 51.1204 239.245 51.0379 238.335H54.9247V237.62C54.9247 235.579 54.1944 234.37 52.3806 234.37C50.5668 234.37 49.8366 235.709 49.8366 237.75C49.8366 239.037 50.1664 241.13 52.8282 241.13ZM51.0144 237.165C51.0733 236.112 51.4737 235.54 52.3806 235.54C53.3346 235.54 53.7233 236.034 53.7469 237.165H51.0144ZM68.2084 241.13C70.0811 241.13 71.2236 240.428 71.2236 238.621C71.2236 236.918 70.3638 236.437 68.1024 235.865C66.7244 235.514 66.1119 235.228 66.1119 234.435C66.1119 233.512 66.689 233.2 67.6313 233.2C68.3851 233.2 69.4097 233.486 70.5876 233.941V232.771C69.7984 232.342 68.7384 232.03 67.7844 232.03C66.0766 232.03 64.9341 232.706 64.9341 234.396C64.9341 235.774 65.5583 236.45 67.855 237.035C69.2095 237.373 70.0458 237.633 70.0458 238.595C70.0458 239.713 69.2566 239.96 68.2084 239.96C67.1484 239.96 65.9235 239.518 64.8163 238.686V239.973C65.629 240.662 67.0777 241.13 68.2084 241.13ZM77.5193 241.13C77.9668 241.13 78.2966 241.13 79.2153 240.87V239.726C78.4497 239.96 77.9904 239.96 77.5193 239.96C76.1413 239.96 75.8115 239.245 75.729 238.335H79.6158V237.62C79.6158 235.579 78.8855 234.37 77.0717 234.37C75.2579 234.37 74.5277 235.709 74.5277 237.75C74.5277 239.037 74.8574 241.13 77.5193 241.13ZM75.7055 237.165C75.7644 236.112 76.1648 235.54 77.0717 235.54C78.0257 235.54 78.4144 236.034 78.438 237.165H75.7055ZM85.4072 241.13C86.7852 241.13 87.6215 240.285 87.6215 239.18C87.6215 237.984 86.9855 237.581 85.2423 237.061C84.2412 236.762 84.0881 236.515 84.0881 236.151C84.0881 235.826 84.2883 235.54 84.889 235.54C85.5368 235.54 86.2906 235.748 87.1504 236.216V235.046C86.5732 234.604 85.7959 234.37 85.0068 234.37C83.7465 234.37 82.9103 235.111 82.9103 236.19C82.9103 237.217 83.3696 237.828 85.0539 238.231C86.1374 238.491 86.4437 238.738 86.4437 239.193C86.4437 239.596 86.1728 239.96 85.4072 239.96C84.5356 239.96 83.9821 239.726 82.9103 238.985V240.298C83.7701 240.935 84.4885 241.13 85.4072 241.13ZM93.6073 241.13C95.3976 241.13 96.4223 239.791 96.4223 237.75C96.4223 235.709 95.3976 234.37 93.6073 234.37C91.8171 234.37 90.7924 235.709 90.7924 237.75C90.7924 239.791 91.8171 241.13 93.6073 241.13ZM93.6073 239.96C92.3942 239.96 91.9702 239.44 91.9702 237.75C91.9702 236.06 92.3942 235.54 93.6073 235.54C94.8205 235.54 95.2445 236.06 95.2445 237.75C95.2445 239.44 94.8205 239.96 93.6073 239.96ZM103.496 235.67V241H104.674V234.5H99.7274V241H100.905V235.67H103.496ZM112.428 235.28C112.074 234.721 111.497 234.37 110.673 234.37C108.765 234.37 108.093 235.839 108.093 237.75C108.093 239.661 108.765 241.13 110.673 241.13C111.497 241.13 112.074 240.779 112.428 240.22V241H113.606V231.9H112.428V235.28ZM110.849 239.96C109.695 239.96 109.271 239.31 109.271 237.75C109.271 236.19 109.695 235.54 110.849 235.54C112.004 235.54 112.428 236.19 112.428 237.75C112.428 239.31 112.004 239.96 110.849 239.96ZM33.2595 259.83V252.16H32.0816V261H36.5337V259.83H33.2595ZM42.7 261.13C43.1476 261.13 43.4773 261.13 44.396 260.87V259.726C43.6305 259.96 43.1711 259.96 42.7 259.96C41.322 259.96 40.9922 259.245 40.9097 258.335H44.7965V257.62C44.7965 255.579 44.0662 254.37 42.2524 254.37C40.4386 254.37 39.7084 255.709 39.7084 257.75C39.7084 259.037 40.0382 261.13 42.7 261.13ZM40.8862 257.165C40.9451 256.112 41.3455 255.54 42.2524 255.54C43.2064 255.54 43.5951 256.034 43.6187 257.165H40.8862ZM49.9665 261.13C50.791 261.13 51.2503 260.87 51.6036 260.35V261H53.4881V259.7H52.7814V254.5H48.5414V255.67H51.6036V257.36C51.2503 256.84 50.791 256.58 49.9665 256.58C48.5296 256.58 47.8582 257.724 47.8582 258.855C47.8582 259.986 48.5296 261.13 49.9665 261.13ZM50.3198 259.96C49.46 259.96 49.036 259.505 49.036 258.855C49.036 258.205 49.46 257.75 50.3198 257.75C51.1796 257.75 51.6036 258.205 51.6036 258.855C51.6036 259.505 51.1796 259.96 50.3198 259.96ZM59.9585 254.37C59.1341 254.37 58.5569 254.721 58.2036 255.28V254.5H57.0258V263.08H58.2036V260.22C58.5569 260.779 59.1341 261.13 59.9585 261.13C61.8666 261.13 62.5379 259.661 62.5379 257.75C62.5379 255.839 61.8666 254.37 59.9585 254.37ZM59.7818 259.96C58.6276 259.96 58.2036 259.31 58.2036 257.75C58.2036 256.19 58.6276 255.54 59.7818 255.54C60.9361 255.54 61.3601 256.19 61.3601 257.75C61.3601 259.31 60.9361 259.96 59.7818 259.96Z" fill="white"/>
<path d="M33.7306 283.83L35.568 281.867C36.5927 280.775 37.1227 280.021 37.1227 278.76C37.1227 277.499 36.4513 276.03 34.5433 276.03C32.6352 276.03 31.9639 277.499 31.9639 279.15H33.1417C33.1417 277.85 33.5657 277.2 34.5433 277.2C35.5208 277.2 35.9449 277.785 35.9449 278.695C35.9449 279.644 35.4737 280.216 34.4137 281.308L31.9639 283.83V285H37.0049V283.83H33.7306ZM43.11 285.13C45.1358 285.13 45.8072 283.661 45.8072 282.27C45.8072 280.489 44.7118 279.67 43.2396 279.93L45.5716 277.33V276.16H40.7662V277.33H44.0169L41.9322 279.67L42.4033 280.84H43.2867C44.0287 280.84 44.6294 281.165 44.6294 282.27C44.6294 283.31 44.2054 283.96 43.11 283.96C42.0146 283.96 41.5906 283.31 41.5906 282.27H40.4128C40.4128 283.661 41.0842 285.13 43.11 285.13ZM52.5484 276.03C50.0986 276.03 49.3448 278.11 49.3448 280.58C49.3448 283.05 50.0986 285.13 52.5484 285.13C54.9982 285.13 55.752 283.05 55.752 280.58C55.752 278.11 54.9982 276.03 52.5484 276.03ZM54.5742 280.58C54.5742 281.308 54.5271 281.906 54.4211 282.387L51.3235 277.551C51.6297 277.317 52.0302 277.2 52.5484 277.2C54.1149 277.2 54.5742 278.227 54.5742 280.58ZM50.5226 280.58C50.5226 279.865 50.5697 279.267 50.6639 278.786L53.7616 283.609C53.4671 283.843 53.0666 283.96 52.5484 283.96C50.9701 283.96 50.5226 282.933 50.5226 280.58ZM62.3776 276.03C59.9277 276.03 59.1739 278.11 59.1739 280.58C59.1739 283.05 59.9277 285.13 62.3776 285.13C64.8274 285.13 65.5812 283.05 65.5812 280.58C65.5812 278.11 64.8274 276.03 62.3776 276.03ZM64.4034 280.58C64.4034 281.308 64.3563 281.906 64.2503 282.387L61.1527 277.551C61.4589 277.317 61.8593 277.2 62.3776 277.2C63.9441 277.2 64.4034 278.227 64.4034 280.58ZM60.3517 280.58C60.3517 279.865 60.3989 279.267 60.4931 278.786L63.5907 283.609C63.2963 283.843 62.8958 283.96 62.3776 283.96C60.7993 283.96 60.3517 282.933 60.3517 280.58ZM69.2332 280.502V281.672H73.3791V280.502H69.2332ZM78.7932 283.83L80.6306 281.867C81.6553 280.775 82.1853 280.021 82.1853 278.76C82.1853 277.499 81.514 276.03 79.6059 276.03C77.6979 276.03 77.0265 277.499 77.0265 279.15H78.2043C78.2043 277.85 78.6283 277.2 79.6059 277.2C80.5835 277.2 81.0075 277.785 81.0075 278.695C81.0075 279.644 80.5364 280.216 79.4764 281.308L77.0265 283.83V285H82.0675V283.83H78.7932ZM88.1726 285.13C90.1985 285.13 90.8696 283.661 90.8696 282.27C90.8696 280.489 89.7745 279.67 88.3022 279.93L90.6341 277.33V276.16H85.8288V277.33H89.0796L86.9948 279.67L87.466 280.84H88.3493C89.0913 280.84 89.692 281.165 89.692 282.27C89.692 283.31 89.268 283.96 88.1726 283.96C87.0773 283.96 86.6533 283.31 86.6533 282.27H85.4755C85.4755 283.661 86.1468 285.13 88.1726 285.13ZM97.3168 285.13C99.59 285.13 100.226 283.83 100.226 282.66C100.226 281.542 99.908 280.684 98.471 280.294V280.086C99.4957 279.696 99.7548 279.124 99.7548 278.24C99.7548 277.07 99.1188 276.03 97.3168 276.03C95.5147 276.03 94.8787 277.07 94.8787 278.24C94.8787 279.124 95.1378 279.696 96.1625 280.086V280.294C94.7256 280.684 94.4076 281.529 94.4076 282.66C94.4076 283.83 95.0436 285.13 97.3168 285.13ZM97.3168 279.605C96.3863 279.605 96.0565 279.098 96.0565 278.435C96.0565 277.642 96.3863 277.2 97.3168 277.2C98.2355 277.2 98.577 277.642 98.577 278.435C98.577 279.098 98.2355 279.605 97.3168 279.605ZM97.3168 283.96C95.9152 283.96 95.5854 283.258 95.5854 282.335C95.5854 281.412 95.9152 280.775 97.3168 280.775C98.7066 280.775 99.0482 281.412 99.0482 282.335C99.0482 283.258 98.7066 283.96 97.3168 283.96ZM106.641 276.03C103.98 276.03 103.65 278.383 103.65 279.67V281.36C103.65 283.648 104.38 285.13 106.465 285.13C108.549 285.13 109.28 283.661 109.28 282.01C109.28 280.359 108.549 278.89 106.641 278.89C105.817 278.89 105.181 279.371 104.828 279.8C104.828 278.643 104.863 277.2 106.641 277.2C107.113 277.2 107.69 277.2 108.455 277.434V276.29C107.537 276.03 107.089 276.03 106.641 276.03ZM106.465 280.047C107.619 280.047 108.102 280.71 108.102 282.01C108.102 283.31 107.619 283.96 106.465 283.96C105.31 283.96 104.828 282.92 104.828 281.88C104.828 280.71 105.31 280.047 106.465 280.047Z" fill="white" fill-opacity="0.33"/>
<path d="M38.0649 2.32999V1.15999H31.9639V2.32999H34.4255V10H35.6033V2.32999H38.0649ZM41.4737 0.899994V10H42.6516V4.66999H45.2427V10H46.4205V3.49999H42.6516V0.899994H41.4737ZM52.8282 10.13C53.2758 10.13 53.6056 10.13 54.5243 9.87V8.72599C53.7587 8.95999 53.2994 8.96 52.8282 8.96C51.4502 8.96 51.1204 8.24499 51.038 7.33499H54.9247V6.61999C54.9247 4.57899 54.1945 3.36999 52.3807 3.36999C50.5669 3.36999 49.8366 4.70899 49.8366 6.74999C49.8366 8.03699 50.1664 10.13 52.8282 10.13ZM51.0144 6.16499C51.0733 5.11199 51.4738 4.53999 52.3807 4.53999C53.3347 4.53999 53.7234 5.03399 53.7469 6.16499H51.0144ZM69.3981 6.55499V5.38499H66.112V2.32999H70.093V1.15999H64.9342V10H66.112V6.55499H69.3981ZM73.5096 0.899994V2.19999H74.6874V0.899994H73.5096ZM73.5096 3.49999V10H74.6874V3.49999H73.5096ZM81.7833 4.66999V3.49999H78.3442V10H79.522V4.66999H81.7833ZM87.4612 10.13C88.8392 10.13 89.6755 9.285 89.6755 8.18C89.6755 6.984 89.0394 6.58099 87.2963 6.06099C86.2952 5.76199 86.142 5.51499 86.142 5.15099C86.142 4.82599 86.3423 4.53999 86.943 4.53999C87.5907 4.53999 88.3445 4.74799 89.2043 5.21599V4.04599C88.6272 3.60399 87.8499 3.36999 87.0607 3.36999C85.8005 3.36999 84.9642 4.11099 84.9642 5.18999C84.9642 6.21699 85.4236 6.82799 87.1078 7.23099C88.1914 7.49099 88.4977 7.73799 88.4977 8.19299C88.4977 8.59599 88.2268 8.96 87.4612 8.96C86.5896 8.96 86.036 8.72599 84.9642 7.98499V9.298C85.824 9.935 86.5425 10.13 87.4612 10.13ZM94.6213 8.82999V4.66999H96.176V3.49999H94.6213V0.899994H93.4435V3.49999H92.5013V4.66999H93.4435V10H96.176V8.82999H94.6213ZM107.362 8.82999V1.15999H106.185V10H110.637V8.82999H107.362ZM116.803 10.13C117.251 10.13 117.58 10.13 118.499 9.87V8.72599C117.734 8.95999 117.274 8.96 116.803 8.96C115.425 8.96 115.095 8.24499 115.013 7.33499H118.9V6.61999C118.9 4.57899 118.169 3.36999 116.355 3.36999C114.542 3.36999 113.811 4.70899 113.811 6.74999C113.811 8.03699 114.141 10.13 116.803 10.13ZM114.989 6.16499C115.048 5.11199 115.449 4.53999 116.355 4.53999C117.31 4.53999 117.698 5.03399 117.722 6.16499H114.989ZM124.069 10.13C124.894 10.13 125.353 9.87 125.706 9.35V10H127.591V8.69999H126.884V3.49999H122.644V4.66999H125.706V6.35999C125.353 5.83999 124.894 5.57999 124.069 5.57999C122.632 5.57999 121.961 6.72399 121.961 7.85499C121.961 8.98599 122.632 10.13 124.069 10.13ZM124.423 8.96C123.563 8.96 123.139 8.50499 123.139 7.85499C123.139 7.20499 123.563 6.74999 124.423 6.74999C125.282 6.74999 125.706 7.20499 125.706 7.85499C125.706 8.50499 125.282 8.96 124.423 8.96ZM134.062 3.36999C133.237 3.36999 132.66 3.72099 132.307 4.27999V3.49999H131.129V12.08H132.307V9.22C132.66 9.779 133.237 10.13 134.062 10.13C135.97 10.13 136.641 8.66099 136.641 6.74999C136.641 4.83899 135.97 3.36999 134.062 3.36999ZM133.885 8.96C132.731 8.96 132.307 8.30999 132.307 6.74999C132.307 5.18999 132.731 4.53999 133.885 4.53999C135.039 4.53999 135.463 5.18999 135.463 6.74999C135.463 8.30999 135.039 8.96 133.885 8.96Z" fill="white"/>
<path d="M33.7306 32.83L35.568 30.867C36.5927 29.775 37.1227 29.021 37.1227 27.76C37.1227 26.499 36.4513 25.03 34.5433 25.03C32.6352 25.03 31.9639 26.499 31.9639 28.15H33.1417C33.1417 26.85 33.5657 26.2 34.5433 26.2C35.5208 26.2 35.9449 26.785 35.9449 27.695C35.9449 28.644 35.4737 29.216 34.4137 30.308L31.9639 32.83V34H37.0049V32.83H33.7306ZM43.11 34.13C45.1358 34.13 45.8072 32.661 45.8072 31.27C45.8072 29.489 44.7118 28.67 43.2396 28.93L45.5716 26.33V25.16H40.7662V26.33H44.0169L41.9322 28.67L42.4033 29.84H43.2867C44.0287 29.84 44.6294 30.165 44.6294 31.27C44.6294 32.31 44.2054 32.96 43.11 32.96C42.0146 32.96 41.5906 32.31 41.5906 31.27H40.4128C40.4128 32.661 41.0842 34.13 43.11 34.13ZM52.5484 25.03C50.0986 25.03 49.3448 27.11 49.3448 29.58C49.3448 32.05 50.0986 34.13 52.5484 34.13C54.9982 34.13 55.752 32.05 55.752 29.58C55.752 27.11 54.9982 25.03 52.5484 25.03ZM54.5742 29.58C54.5742 30.308 54.5271 30.906 54.4211 31.387L51.3235 26.551C51.6297 26.317 52.0302 26.2 52.5484 26.2C54.1149 26.2 54.5742 27.227 54.5742 29.58ZM50.5226 29.58C50.5226 28.865 50.5697 28.267 50.6639 27.786L53.7616 32.609C53.4671 32.843 53.0666 32.96 52.5484 32.96C50.9701 32.96 50.5226 31.933 50.5226 29.58ZM62.3776 25.03C59.9277 25.03 59.1739 27.11 59.1739 29.58C59.1739 32.05 59.9277 34.13 62.3776 34.13C64.8274 34.13 65.5812 32.05 65.5812 29.58C65.5812 27.11 64.8274 25.03 62.3776 25.03ZM64.4034 29.58C64.4034 30.308 64.3563 30.906 64.2503 31.387L61.1527 26.551C61.4589 26.317 61.8593 26.2 62.3776 26.2C63.9441 26.2 64.4034 27.227 64.4034 29.58ZM60.3517 29.58C60.3517 28.865 60.3989 28.267 60.4931 27.786L63.5907 32.609C63.2963 32.843 62.8958 32.96 62.3776 32.96C60.7993 32.96 60.3517 31.933 60.3517 29.58ZM69.2332 29.502V30.672H73.3791V29.502H69.2332ZM78.7932 32.83L80.6306 30.867C81.6553 29.775 82.1853 29.021 82.1853 27.76C82.1853 26.499 81.514 25.03 79.6059 25.03C77.6979 25.03 77.0265 26.499 77.0265 28.15H78.2043C78.2043 26.85 78.6283 26.2 79.6059 26.2C80.5835 26.2 81.0075 26.785 81.0075 27.695C81.0075 28.644 80.5364 29.216 79.4764 30.308L77.0265 32.83V34H82.0675V32.83H78.7932ZM88.1726 34.13C90.1985 34.13 90.8696 32.661 90.8696 31.27C90.8696 29.489 89.7745 28.67 88.3022 28.93L90.6341 26.33V25.16H85.8288V26.33H89.0796L86.9948 28.67L87.466 29.84H88.3493C89.0913 29.84 89.692 30.165 89.692 31.27C89.692 32.31 89.268 32.96 88.1726 32.96C87.0773 32.96 86.6533 32.31 86.6533 31.27H85.4755C85.4755 32.661 86.1468 34.13 88.1726 34.13ZM97.3168 34.13C99.59 34.13 100.226 32.83 100.226 31.66C100.226 30.542 99.908 29.684 98.471 29.294V29.086C99.4957 28.696 99.7548 28.124 99.7548 27.24C99.7548 26.07 99.1188 25.03 97.3168 25.03C95.5147 25.03 94.8787 26.07 94.8787 27.24C94.8787 28.124 95.1378 28.696 96.1625 29.086V29.294C94.7256 29.684 94.4076 30.529 94.4076 31.66C94.4076 32.83 95.0436 34.13 97.3168 34.13ZM97.3168 28.605C96.3863 28.605 96.0565 28.098 96.0565 27.435C96.0565 26.642 96.3863 26.2 97.3168 26.2C98.2355 26.2 98.577 26.642 98.577 27.435C98.577 28.098 98.2355 28.605 97.3168 28.605ZM97.3168 32.96C95.9152 32.96 95.5854 32.258 95.5854 31.335C95.5854 30.412 95.9152 29.775 97.3168 29.775C98.7066 29.775 99.0482 30.412 99.0482 31.335C99.0482 32.258 98.7066 32.96 97.3168 32.96ZM106.641 25.03C103.98 25.03 103.65 27.383 103.65 28.67V30.36C103.65 32.648 104.38 34.13 106.465 34.13C108.549 34.13 109.28 32.661 109.28 31.01C109.28 29.359 108.549 27.89 106.641 27.89C105.817 27.89 105.181 28.371 104.828 28.8C104.828 27.643 104.863 26.2 106.641 26.2C107.113 26.2 107.69 26.2 108.455 26.434V25.29C107.537 25.03 107.089 25.03 106.641 25.03ZM106.465 29.047C107.619 29.047 108.102 29.71 108.102 31.01C108.102 32.31 107.619 32.96 106.465 32.96C105.31 32.96 104.828 31.92 104.828 30.88C104.828 29.71 105.31 29.047 106.465 29.047Z" fill="white" fill-opacity="0.33"/>
<path opacity="0.3" d="M189.355 398L0.453125 398.5" stroke="#FFA753" stroke-dasharray="6 8"/>
<path opacity="0.3" d="M189.355 756H0.90625" stroke="#FFA753" stroke-dasharray="6 8"/>
</g>
<defs>
<clipPath id="clip0_3813_1556">
<rect width="190" height="879" fill="white"/>
</clipPath>
</defs>
</svg>
