<svg xmlns="http://www.w3.org/2000/svg" width="91" height="75" fill="none"><g clip-path="url(#a)"><path fill="#FFA753" d="M7.065 2.33V1.16H.963v1.17h2.462V10h1.178V2.33h2.462ZM10.473.9V10h1.178V4.67h2.591V10h1.178V3.5h-3.769V.9h-1.178Zm11.355 9.23c.447 0 .777 0 1.696-.26V8.726c-.766.234-1.225.234-1.696.234-1.378 0-1.708-.715-1.79-1.625h3.886V6.62c0-2.041-.73-3.25-2.544-3.25-1.813 0-2.544 1.339-2.544 3.38 0 1.287.33 3.38 2.992 3.38Zm-1.814-3.965c.059-1.053.46-1.625 1.366-1.625.954 0 1.343.494 1.367 1.625h-2.733ZM35.112 8.83V6.035h3.038v-1.17h-3.038V2.33h3.98V1.16h-5.158V10h5.159V8.83h-3.981Zm10.96-4.16V3.5h-3.439V10h1.178V4.67h2.261Zm4.941 5.46c.825 0 1.284-.26 1.638-.78V10h1.884V8.7h-.706V3.5h-4.24v1.17h3.062v1.69c-.354-.52-.813-.78-1.638-.78-1.436 0-2.108 1.144-2.108 2.275s.672 2.275 2.108 2.275Zm.354-1.17c-.86 0-1.284-.455-1.284-1.105 0-.65.424-1.105 1.284-1.105.86 0 1.284.455 1.284 1.105 0 .65-.424 1.105-1.284 1.105ZM3.66 30.13c1.79 0 2.815-1.339 2.815-3.38S5.45 23.37 3.66 23.37.846 24.709.846 26.75s1.024 3.38 2.815 3.38Zm0-1.17c-1.213 0-1.637-.52-1.637-2.21s.424-2.21 1.637-2.21 1.637.52 1.637 2.21-.424 2.21-1.637 2.21Zm9.438-4.29V23.5h-1.673v-1.43H13.1V20.9h-2.85v2.6h-.943v1.17h.942V30h1.178v-5.33H13.1Zm11.89 4.16v-4.16h1.554V23.5h-1.555v-2.6h-1.177v2.6h-.943v1.17h.943V30h2.732v-1.17h-1.555Zm5.207-7.93V30h1.177v-5.33h2.592V30h1.177v-6.5h-3.769v-2.6h-1.177Zm11.354 9.23c.448 0 .778 0 1.696-.26v-1.144c-.765.234-1.225.234-1.696.234-1.378 0-1.708-.715-1.79-1.625h3.887v-.715c0-2.041-.73-3.25-2.544-3.25s-2.544 1.339-2.544 3.38c0 1.287.33 3.38 2.991 3.38Zm-1.814-3.965c.06-1.053.46-1.625 1.367-1.625.954 0 1.342.494 1.366 1.625h-2.733ZM56.86 30.13c1.46 0 1.92-.858 2.132-1.365h.188V30h1.178v-4.407h-4.264v1.17h3.086c-.118 1.144-.718 2.197-2.085 2.197-1.696 0-2.497-.897-2.497-3.38 0-2.483.684-3.38 2.38-3.38 1.366 0 1.884.793 1.978 1.937h1.166c-.118-1.82-1.19-3.107-3.145-3.107-2.567 0-3.556 2.21-3.556 4.55s.989 4.55 3.439 4.55Zm10.476-5.46V23.5h-3.44V30h1.178v-5.33h2.262Zm5.882 5.46c.448 0 .778 0 1.696-.26v-1.144c-.765.234-1.225.234-1.696.234-1.378 0-1.708-.715-1.79-1.625h3.887v-.715c0-2.041-.73-3.25-2.544-3.25s-2.544 1.339-2.544 3.38c0 1.287.33 3.38 2.991 3.38Zm-1.814-3.965c.06-1.053.46-1.625 1.367-1.625.954 0 1.342.494 1.366 1.625h-2.733Zm9.08 3.965c.825 0 1.284-.26 1.638-.78V30h1.884v-1.3H83.3v-5.2h-4.24v1.17h3.063v1.69c-.354-.52-.813-.78-1.638-.78-1.436 0-2.108 1.144-2.108 2.275s.671 2.275 2.108 2.275Zm.354-1.17c-.86 0-1.284-.455-1.284-1.105 0-.65.424-1.105 1.284-1.105.86 0 1.284.455 1.284 1.105 0 .65-.424 1.105-1.284 1.105Zm7.993-.13v-4.16h1.554V23.5H88.83v-2.6h-1.177v2.6h-.943v1.17h.943V30h2.732v-1.17H88.83Zm-86.572 20v-7.67H1.081V50h4.452v-1.17H2.26Zm9.44 1.3c.448 0 .778 0 1.697-.26v-1.144c-.766.234-1.225.234-1.696.234-1.378 0-1.708-.715-1.79-1.625h3.886v-.715c0-2.041-.73-3.25-2.544-3.25s-2.544 1.339-2.544 3.38c0 1.287.33 3.38 2.992 3.38Zm-1.813-3.965c.059-1.053.46-1.625 1.366-1.625.954 0 1.343.494 1.366 1.625H9.886Zm9.08 3.965c.825 0 1.284-.26 1.637-.78V50h1.885v-1.3h-.707v-5.2h-4.24v1.17h3.062v1.69c-.353-.52-.812-.78-1.637-.78-1.437 0-2.108 1.144-2.108 2.275s.671 2.275 2.108 2.275Zm.354-1.17c-.86 0-1.284-.455-1.284-1.105 0-.65.424-1.105 1.284-1.105.86 0 1.283.455 1.283 1.105 0 .65-.424 1.105-1.284 1.105Zm9.638-5.59c-.824 0-1.401.351-1.755.91v-.78h-1.177v8.58h1.177v-2.86c.354.559.93.91 1.755.91 1.908 0 2.58-1.469 2.58-3.38 0-1.911-.672-3.38-2.58-3.38Zm-.176 5.59c-1.155 0-1.579-.65-1.579-2.21s.424-2.21 1.579-2.21c1.154 0 1.578.65 1.578 2.21s-.424 2.21-1.578 2.21Z"/><path fill="#fff" fill-opacity=".33" d="m2.73 72.83 1.838-1.963c1.025-1.092 1.555-1.846 1.555-3.107 0-1.261-.672-2.73-2.58-2.73s-2.58 1.469-2.58 3.12h1.179c0-1.3.424-1.95 1.401-1.95.978 0 1.402.585 1.402 1.495 0 .949-.471 1.521-1.531 2.613L.964 72.83V74h5.04v-1.17H2.732Zm9.38 1.3c2.026 0 2.697-1.469 2.697-2.86 0-1.781-1.095-2.6-2.567-2.34l2.332-2.6v-1.17H9.766v1.17h3.25l-2.084 2.34.471 1.17h.884c.742 0 1.342.325 1.342 1.43 0 1.04-.424 1.69-1.519 1.69s-1.52-.65-1.52-1.69H9.414c0 1.391.671 2.86 2.697 2.86Zm9.438-9.1c-2.45 0-3.203 2.08-3.203 4.55 0 2.47.754 4.55 3.203 4.55 2.45 0 3.204-2.08 3.204-4.55 0-2.47-.754-4.55-3.204-4.55Zm2.026 4.55c0 .728-.047 1.326-.153 1.807l-3.098-4.836c.307-.234.707-.351 1.225-.351 1.567 0 2.026 1.027 2.026 3.38Zm-4.051 0c0-.715.047-1.313.14-1.794l3.099 4.823c-.295.234-.695.351-1.214.351-1.578 0-2.025-1.027-2.025-3.38Zm11.855-4.55c-2.45 0-3.204 2.08-3.204 4.55 0 2.47.754 4.55 3.204 4.55s3.203-2.08 3.203-4.55c0-2.47-.754-4.55-3.203-4.55Zm2.025 4.55c0 .728-.047 1.326-.153 1.807l-3.097-4.836c.306-.234.706-.351 1.225-.351 1.566 0 2.025 1.027 2.025 3.38Zm-4.051 0c0-.715.047-1.313.141-1.794l3.098 4.823c-.295.234-.695.351-1.213.351-1.579 0-2.026-1.027-2.026-3.38Zm8.881-.078v1.17h4.146v-1.17h-4.146Zm9.56 3.328 1.838-1.963c1.024-1.092 1.554-1.846 1.554-3.107 0-1.261-.671-2.73-2.58-2.73-1.907 0-2.578 1.469-2.578 3.12h1.177c0-1.3.424-1.95 1.402-1.95.977 0 1.401.585 1.401 1.495 0 .949-.47 1.521-1.53 2.613l-2.45 2.522V74h5.04v-1.17h-3.274Zm9.38 1.3c2.026 0 2.697-1.469 2.697-2.86 0-1.781-1.095-2.6-2.568-2.34l2.332-2.6v-1.17H54.83v1.17h3.25l-2.084 2.34.471 1.17h.883c.742 0 1.343.325 1.343 1.43 0 1.04-.424 1.69-1.52 1.69-1.095 0-1.519-.65-1.519-1.69h-1.178c0 1.391.672 2.86 2.698 2.86Zm9.144 0c2.273 0 2.909-1.3 2.909-2.47 0-1.118-.318-1.976-1.755-2.366v-.208c1.025-.39 1.284-.962 1.284-1.846 0-1.17-.636-2.21-2.438-2.21s-2.438 1.04-2.438 2.21c0 .884.259 1.456 1.283 1.846v.208c-1.436.39-1.754 1.235-1.754 2.366 0 1.17.636 2.47 2.909 2.47Zm0-5.525c-.93 0-1.26-.507-1.26-1.17 0-.793.33-1.235 1.26-1.235.919 0 1.26.442 1.26 1.235 0 .663-.341 1.17-1.26 1.17Zm0 4.355c-1.402 0-1.732-.702-1.732-1.625s.33-1.56 1.732-1.56c1.39 0 1.731.637 1.731 1.56s-.341 1.625-1.731 1.625Zm9.324-7.93c-2.662 0-2.991 2.353-2.991 3.64v1.69c0 2.288.73 3.77 2.815 3.77 2.084 0 2.815-1.469 2.815-3.12s-.73-3.12-2.639-3.12c-.824 0-1.46.481-1.813.91 0-1.157.035-2.6 1.813-2.6.471 0 1.049 0 1.814.234V65.29c-.918-.26-1.366-.26-1.814-.26Zm-.176 4.017c1.154 0 1.637.663 1.637 1.963s-.483 1.95-1.637 1.95-1.637-1.04-1.637-2.08c0-1.17.483-1.833 1.637-1.833Z"/></g><defs><clipPath id="a"><path fill="#fff" d="M0 0h91v75H0z"/></clipPath></defs></svg>