<svg width="16" height="16" viewBox="0 0 16 16" fill="none" xmlns="http://www.w3.org/2000/svg">
    <path
        d="M0.292664 0.292227C0.480192 0.104756 0.7345 -0.000559768 0.999664 -0.000559768C1.26483 -0.000559768 1.51914 0.104756 1.70666 0.292227L7.99966 6.58523L14.2927 0.292227C14.3849 0.196717 14.4953 0.120534 14.6173 0.0681253C14.7393 0.0157163 14.8705 -0.01187 15.0033 -0.0130238C15.136 -0.0141776 15.2677 0.0111241 15.3906 0.061405C15.5135 0.111686 15.6252 0.185939 15.7191 0.279832C15.813 0.373724 15.8872 0.485376 15.9375 0.608273C15.9878 0.731169 16.0131 0.862849 16.0119 0.995628C16.0108 1.12841 15.9832 1.25963 15.9308 1.38163C15.8784 1.50364 15.8022 1.61398 15.7067 1.70623L9.41366 7.99923L15.7067 14.2922C15.8888 14.4808 15.9896 14.7334 15.9873 14.9956C15.9851 15.2578 15.8799 15.5086 15.6945 15.694C15.5091 15.8795 15.2583 15.9846 14.9961 15.9869C14.7339 15.9892 14.4813 15.8884 14.2927 15.7062L7.99966 9.41323L1.70666 15.7062C1.51806 15.8884 1.26546 15.9892 1.00326 15.9869C0.741066 15.9846 0.490254 15.8795 0.304846 15.694C0.119438 15.5086 0.0142688 15.2578 0.0119903 14.9956C0.00971192 14.7334 0.110506 14.4808 0.292664 14.2922L6.58566 7.99923L0.292664 1.70623C0.105193 1.5187 -0.00012207 1.26439 -0.00012207 0.999227C-0.00012207 0.734062 0.105193 0.479754 0.292664 0.292227Z"
        fill="currentColor"/>
</svg>
